<?xml version="1.0" encoding="UTF-8"?>
<svg id="default" xmlns="http://www.w3.org/2000/svg" viewBox="0 0 294.92 51.37">
  <defs>
    <style>
      .cls-1 {
        fill: #fafafa;
      }
    </style>
  </defs>
  <path class="cls-1" d="M41.42.95h8.73v49.54h-10.96v-29.37l-11.17,15.97h-5.89l-11.3-16.11v29.51H0V.95h8.93l16.31,23.89L41.42.95Z"/>
  <path class="cls-1" d="M90.75,30.52h-19.35v9.95h22.4v10.02h-33.97V.95h33.16v9.95h-21.59v9.75h19.35v9.88Z"/>
  <path class="cls-1" d="M119.24.95c4.83,0,9.2.97,13.13,2.91,3.92,1.94,7.03,4.77,9.31,8.49,2.28,3.72,3.42,8.15,3.42,13.3s-1.14,9.59-3.42,13.33c-2.28,3.75-5.37,6.6-9.27,8.56-3.9,1.96-8.29,2.94-13.16,2.94h-17.87V.95h17.87ZM117.96,40.74c4.92,0,8.64-1.31,11.17-3.93,2.53-2.62,3.79-6.34,3.79-11.17s-1.28-8.47-3.82-11.06c-2.55-2.59-6.26-3.89-11.13-3.89h-5.01v30.05h5.01Z"/>
  <path class="cls-1" d="M192.33,36.07c0,4.51-1.69,8.04-5.08,10.59-3.38,2.55-8.03,3.82-13.94,3.82h-20.71V.95h19.02c5.32,0,9.7,1.2,13.13,3.59,3.43,2.39,5.14,5.87,5.14,10.42s-1.76,7.71-5.28,9.88c5.14,2.08,7.71,5.82,7.71,11.23ZM163.91,10.9v9.75h6.77c2.21,0,3.97-.47,5.28-1.42,1.31-.95,1.96-2.21,1.96-3.79,0-1.49-.63-2.62-1.9-3.38-1.26-.77-3.04-1.15-5.35-1.15h-6.77ZM172.64,40.47c2.44,0,4.33-.44,5.68-1.32s2.03-2.13,2.03-3.76-.69-2.9-2.06-3.82c-1.38-.92-3.28-1.39-5.72-1.39h-8.66v10.29h8.73Z"/>
  <path class="cls-1" d="M200.42,11.98c2.14-3.88,5.06-6.85,8.76-8.9,3.7-2.05,7.78-3.08,12.25-3.08s8.54,1.03,12.22,3.08c3.68,2.05,6.6,5.02,8.76,8.9,2.17,3.88,3.25,8.44,3.25,13.67s-1.08,9.86-3.25,13.74c-2.17,3.88-5.09,6.85-8.76,8.9-3.68,2.05-7.75,3.08-12.22,3.08s-8.61-1.03-12.28-3.08c-3.68-2.05-6.59-5.02-8.73-8.9-2.14-3.88-3.21-8.46-3.21-13.74s1.07-9.79,3.21-13.67ZM210.97,33.63c1.01,2.3,2.42,4.07,4.23,5.31,1.8,1.24,3.88,1.86,6.23,1.86s4.43-.62,6.26-1.86c1.83-1.24,3.25-3.01,4.26-5.31,1.02-2.3,1.52-4.96,1.52-7.99s-.51-5.61-1.52-7.88c-1.01-2.28-2.44-4.04-4.26-5.28-1.83-1.24-3.91-1.86-6.26-1.86s-4.42.62-6.23,1.86c-1.8,1.24-3.21,3-4.23,5.28-1.02,2.28-1.52,4.91-1.52,7.88s.51,5.68,1.52,7.99Z"/>
  <path class="cls-1" d="M294.04.95l-17.33,24.02,18.21,25.51h-14.28l-11.03-16.11-11.23,16.11h-13.26l18.2-25.24L246,.95h14.14l10.22,14.89,10.35-14.89h13.33Z"/>
</svg>