<?xml version="1.0" encoding="UTF-8"?>
<svg id="default" xmlns="http://www.w3.org/2000/svg" viewBox="0 0 100 100">
  <defs>
    <style>
      .cls-1 {
        fill: #68004b;
      }

      .cls-2 {
        fill: #fafafa;
      }
    </style>
  </defs>
  <rect class="cls-2" x="5" y="5" width="90" height="90" rx="16" ry="16"/>
  <path class="cls-1" d="M71.48,22.5H28.52c-3.32,0-6.02,2.7-6.02,6.02v42.97c0,3.32,2.69,6.02,6.02,6.02h42.97c3.32,0,6.02-2.69,6.02-6.02V28.52c0-3.32-2.7-6.02-6.02-6.02ZM72.34,71.48c0,.47-.38.86-.86.86H28.52c-.47,0-.86-.39-.86-.86V28.52c0-.47.38-.86.86-.86h42.97c.47,0,.86.38.86.86v42.97Z"/>
  <g>
    <path class="cls-1" d="M62.89,32.81c1.42,0,2.58,1.15,2.58,2.58v25.78c0,1.42-1.15,2.58-2.58,2.58s-2.58-1.15-2.58-2.58v-25.78c0-1.42,1.15-2.58,2.58-2.58Z"/>
    <path class="cls-1" d="M34.53,35.39c0-1.42,1.15-2.58,2.58-2.58s2.58,1.15,2.58,2.58v18.91c0,1.42-1.15,2.58-2.58,2.58s-2.58-1.15-2.58-2.58v-18.91Z"/>
    <path class="cls-1" d="M50,32.81c1.42,0,2.58,1.15,2.58,2.58v12.03c0,1.42-1.15,2.58-2.58,2.58s-2.58-1.15-2.58-2.58h0v-12.03c0-1.42,1.15-2.58,2.58-2.58Z"/>
  </g>
</svg>