<?xml version="1.0" encoding="UTF-8"?>
<svg id="light" xmlns="http://www.w3.org/2000/svg" viewBox="0 0 100 100">
  <defs>
    <style>
      .cls-1, .cls-2 {
        fill: #68004b;
      }

      .cls-2 {
        opacity: .6;
      }

      .cls-3 {
        fill: #fafafa;
      }
    </style>
  </defs>
  <rect class="cls-3" x="5" y="5" width="90" height="90" rx="16" ry="16"/>
  <g>
    <path class="cls-1" d="M58.14,70.92c.05-1.9-.81-4.18-2.38-5.75-1.57-1.57-3.86-2.43-5.75-2.38-1.9-.05-4.18.81-5.75,2.38-1.57,1.57-2.43,3.86-2.38,5.75-.05,1.9.81,4.18,2.38,5.75,1.57,1.57,3.86,2.43,5.75,2.38,1.9.05,4.18-.81,5.75-2.38,1.57-1.57,2.43-3.86,2.38-5.75Z"/>
    <polygon class="cls-1" points="32.33 38.6 39 33.93 15 20.94 19 47.93 25.67 43.27 44.33 69.92 51 65.26 32.33 38.6"/>
    <polygon class="cls-2" points="74.33 43.27 81 47.93 85 20.94 61 33.93 67.67 38.6 49 65.26 55.67 69.92 74.33 43.27"/>
  </g>
</svg>