<?xml version="1.0" encoding="UTF-8"?>
<svg id="light" xmlns="http://www.w3.org/2000/svg" viewBox="0 0 100 100">
  <defs>
    <style>
      .cls-1 {
        fill: #68004b;
      }

      .cls-2 {
        fill: #fafafa;
      }
    </style>
  </defs>
  <rect class="cls-2" x="5" y="5" width="90" height="90" rx="16" ry="16"/>
  <path class="cls-1" d="M74,70h4c1.1,0,2,.9,2,2v4c0,1.1-.9,2-2,2h-20c-1.1,0-2-.9-2-2v-4c0-1.1.9-2,2-2h4v-16h-24v16h4c1.1,0,2,.9,2,2v4c0,1.1-.9,2-2,2h-20c-1.1,0-2-.9-2-2v-4c0-1.1.9-2,2-2h4V30h-4c-1.1,0-2-.9-2-2v-4c0-1.1.9-2,2-2h20c1.1,0,2,.9,2,2v4c0,1.1-.9,2-2,2h-4v16h24v-16h-4c-1.1,0-2-.9-2-2v-4c0-1.1.9-2,2-2h20c1.1,0,2,.9,2,2v4c0,1.1-.9,2-2,2h-4v40Z"/>
</svg>