<?xml version="1.0" encoding="UTF-8"?>
<svg id="default" xmlns="http://www.w3.org/2000/svg" viewBox="0 0 100 100">
  <defs>
    <style>
      .cls-1 {
        fill: #68004b;
      }

      .cls-2 {
        fill: #fafafa;
      }
    </style>
  </defs>
  <rect class="cls-2" x="5" y="5" width="90" height="90" rx="16" ry="16"/>
  <g>
    <path class="cls-1" d="M38.83,46.56c-1.42,0-2.58,1.15-2.58,2.58s1.15,2.58,2.58,2.58h15.47c1.42,0,2.58-1.15,2.58-2.58s-1.15-2.58-2.58-2.58h-15.47ZM39.69,38.83c0-1.42,1.15-2.58,2.58-2.58h18.91c1.42,0,2.58,1.15,2.58,2.58s-1.15,2.58-2.58,2.58h-18.91c-1.42,0-2.58-1.15-2.58-2.58ZM45.7,56.88c-1.42,0-2.58,1.15-2.58,2.58s1.15,2.58,2.58,2.58h15.47c1.42,0,2.58-1.15,2.58-2.58s-1.15-2.58-2.58-2.58h-15.47Z"/>
    <path class="cls-1" d="M22.5,28.52c0-3.32,2.69-6.02,6.02-6.02h42.97c3.32,0,6.02,2.69,6.02,6.02v42.97c0,3.32-2.69,6.02-6.02,6.02H28.52c-3.32,0-6.02-2.69-6.02-6.02V28.52ZM28.52,27.66c-.47,0-.86.38-.86.86v42.97c0,.47.38.86.86.86h42.97c.47,0,.86-.38.86-.86V28.52c0-.47-.38-.86-.86-.86H28.52Z"/>
  </g>
</svg>