<?xml version="1.0" encoding="UTF-8"?>
<svg id="light" xmlns="http://www.w3.org/2000/svg" viewBox="0 0 100 100">
  <defs>
    <style>
      .cls-1 {
        fill: none;
        stroke: #68004b;
        stroke-linecap: round;
        stroke-linejoin: round;
        stroke-width: 3px;
      }

      .cls-2 {
        opacity: .3;
      }

      .cls-2, .cls-3 {
        fill: #68004b;
      }

      .cls-3 {
        opacity: .6;
      }

      .cls-4 {
        fill: #fafafa;
      }
    </style>
  </defs>
  <rect class="cls-4" x="5" y="5" width="90" height="90" rx="16" ry="16"/>
  <g>
    <polygon class="cls-2" points="43.08 37.8 73.68 46.97 73.68 82.5 43.08 73.33 43.08 37.8"/>
    <polyline class="cls-1" points="29.31 69.42 36.17 65.72 32.47 58.85"/>
    <polygon class="cls-3" points="43.08 73.33 43.08 37.8 56.9 17.5 56.9 53.03 43.08 73.33"/>
    <line class="cls-1" x1="43.08" y1="29.28" x2="43.08" y2="81.86"/>
    <path class="cls-1" d="M49.99,45.42c-3.53-1.13-8.55-1.34-12.84-.27-4.29,1.08-7.85,3.44-9.37,5.84-1.71,2.34-2.03,5.67-.4,8.52,1.62,2.85,5.18,5.21,8.8,6.21"/>
  </g>
</svg>