<?xml version="1.0" encoding="UTF-8"?>
<svg id="light" xmlns="http://www.w3.org/2000/svg" viewBox="0 0 100 100">
  <defs>
    <style>
      .cls-1 {
        fill: #68004b;
      }

      .cls-2 {
        fill: #fafafa;
      }
    </style>
  </defs>
  <rect class="cls-2" x="5" y="5" width="90" height="90" rx="16" ry="16"/>
  <path class="cls-1" d="M78.15,33.75c-5.81-10.06-16.53-16.25-28.15-16.25s-22.34,6.19-28.15,16.25c-5.81,10.06-5.81,22.44,0,32.5,5.81,10.06,16.53,16.25,28.15,16.25s22.34-6.19,28.15-16.25c5.81-10.06,5.81-22.44,0-32.5ZM58.12,58.12l-24.37,8.13,8.12-24.38,24.37-8.13-8.12,24.38ZM50,54.06c-2.24,0-4.06-1.82-4.06-4.06s1.82-4.06,4.06-4.06,4.06,1.82,4.06,4.06-1.82,4.06-4.06,4.06Z"/>
</svg>