<?xml version="1.0" encoding="UTF-8"?>
<svg id="light" xmlns="http://www.w3.org/2000/svg" viewBox="0 0 100 100">
  <defs>
    <style>
      .cls-1 {
        opacity: .3;
      }

      .cls-1, .cls-2 {
        fill: #68004b;
      }

      .cls-3 {
        fill: none;
        stroke: #68004b;
        stroke-linecap: round;
        stroke-linejoin: round;
        stroke-width: 1.5px;
      }

      .cls-2 {
        opacity: .6;
      }

      .cls-4 {
        fill: #fafafa;
      }
    </style>
  </defs>
  <rect class="cls-4" x="5" y="5" width="90" height="90" rx="16" ry="16"/>
  <g>
    <path class="cls-4" d="M46.35,46.63c-3.2-.44-6.63-1.87-8.56-3.79-1.93-1.93-2.34-4.35-1.41-6.17.77-1.85,3.23-3.83,6.57-4.94s7.54-1.35,10.69-.81c3.2.44,6.63,1.87,8.56,3.79,1.93,1.93,2.34,4.35,1.41,6.17l13.61,2.11c.6-1.29.95-2.69.96-4.14.09-3.52-2.16-7.29-6.09-10.17-3.93-2.87-9.54-4.85-14.8-5.62-6.3-1.08-14.72-.6-21.39,1.63-6.67,2.22-11.6,6.19-13.13,9.88-.61,1.31-.96,2.73-.96,4.21-.09,3.45,2.16,7.23,6.09,10.1,3.93,2.87,9.54,4.85,14.8,5.62l3.65-7.86Z"/>
    <path class="cls-1" d="M42.71,54.49c-5.26-.77-10.87-2.74-14.8-5.62-3.93-2.87-6.18-6.65-6.09-10.1v23.01c-.09,3.45,2.16,7.23,6.09,10.1,3.93,2.87,9.54,4.85,14.8,5.62v-23.01Z"/>
    <polygon class="cls-2" points="46.35 46.63 42.71 54.49 42.71 77.5 46.35 69.64 46.35 46.63"/>
    <path class="cls-1" d="M63.61,40.88c.94-1.82.52-4.25-1.41-6.17-1.93-1.93-5.36-3.35-8.56-3.79-3.15-.54-7.36-.3-10.69.81s-5.8,3.09-6.57,4.94c-.94,1.82-.52,4.25,1.41,6.17,1.93,1.93,5.36,3.35,8.56,3.79v7.29c2.53-.4,5.11-.34,7.29,0,4.25.57,8.76,2.87,9.96,5.75v-18.8Z"/>
    <path class="cls-2" d="M77.22,42.98v23.01c.61-1.31.96-2.73.96-4.21v-22.94c-.01,1.46-.36,2.86-.96,4.14Z"/>
    <polygon class="cls-2" points="77.22 42.98 63.61 40.88 63.61 63.89 77.22 65.99 77.22 42.98"/>
    <g>
      <path class="cls-3" d="M46.35,46.63c-3.2-.44-6.63-1.87-8.56-3.79-1.93-1.93-2.34-4.35-1.41-6.17.77-1.85,3.23-3.83,6.57-4.94s7.54-1.35,10.69-.81c3.2.44,6.63,1.87,8.56,3.79,1.93,1.93,2.34,4.35,1.41,6.17l13.61,2.11c.6-1.29.95-2.69.96-4.14.09-3.52-2.16-7.29-6.09-10.17-3.93-2.87-9.54-4.85-14.8-5.62-6.3-1.08-14.72-.6-21.39,1.63-6.67,2.22-11.6,6.19-13.13,9.88-.61,1.31-.96,2.73-.96,4.21-.09,3.45,2.16,7.23,6.09,10.1,3.93,2.87,9.54,4.85,14.8,5.62l3.65-7.86Z"/>
      <path class="cls-3" d="M42.71,54.49c-5.26-.77-10.87-2.74-14.8-5.62-3.93-2.87-6.18-6.65-6.09-10.1v23.01c-.09,3.45,2.16,7.23,6.09,10.1,3.93,2.87,9.54,4.85,14.8,5.62v-23.01Z"/>
      <polygon class="cls-3" points="46.35 46.63 42.71 54.49 42.71 77.5 46.35 69.64 46.35 46.63"/>
      <path class="cls-3" d="M63.61,40.88c.94-1.82.52-4.25-1.41-6.17-1.93-1.93-5.36-3.35-8.56-3.79-3.15-.54-7.36-.3-10.69.81s-5.8,3.09-6.57,4.94c-.94,1.82-.52,4.25,1.41,6.17,1.93,1.93,5.36,3.35,8.56,3.79v7.29c2.53-.4,5.11-.34,7.29,0,4.25.57,8.76,2.87,9.96,5.75v-18.8Z"/>
      <path class="cls-3" d="M77.22,42.98v23.01c.61-1.31.96-2.73.96-4.21v-22.94c-.01,1.46-.36,2.86-.96,4.14Z"/>
      <polygon class="cls-3" points="77.22 42.98 63.61 40.88 63.61 63.89 77.22 65.99 77.22 42.98"/>
    </g>
  </g>
</svg>