<?xml version="1.0" encoding="UTF-8"?>
<svg id="light" xmlns="http://www.w3.org/2000/svg" viewBox="0 0 100 100">
  <defs>
    <style>
      .cls-1 {
        fill: #68004b;
      }

      .cls-2 {
        fill: #fafafa;
      }
    </style>
  </defs>
  <rect class="cls-2" x="5" y="5" width="90" height="90" rx="16" ry="16"/>
  <g>
    <path class="cls-1" d="M82.5,17.5l-26.99,9.64.58-7.6-25.73,14.9c-7.96,4.61-12.86,13.1-12.86,22.29,0,14.23,11.54,25.77,25.77,25.77,9.19,0,17.7-4.9,22.31-12.86l14.89-25.73-7.6.58,9.64-26.99ZM55.95,66.25c-2.9,5.03-8.27,8.12-14.07,8.12s-11.17-3.1-14.07-8.12-2.9-11.22,0-16.25,8.27-8.12,14.07-8.12,11.17,3.1,14.07,8.12,2.9,11.22,0,16.25Z"/>
    <circle class="cls-1" cx="37.81" cy="54.06" r="4.06"/>
    <circle class="cls-1" cx="43.91" cy="64.22" r="2.03"/>
  </g>
</svg>