<?xml version="1.0" encoding="UTF-8"?>
<svg xmlns="http://www.w3.org/2000/svg" viewBox="0 0 100 100">
  <defs>
    <style>
      .cls-1 {
        opacity: .3;
      }

      .cls-1, .cls-2 {
        fill: #68004b;
      }

      .cls-2 {
        opacity: .6;
      }

      .cls-3 {
        fill: none;
        stroke: #68004b;
        stroke-linecap: round;
        stroke-linejoin: round;
      }

      .cls-4 {
        fill: #fafafa;
      }
    </style>
  </defs>
  <g id="light">
    <rect class="cls-4" x="5" y="5" width="90" height="90" rx="16" ry="16"/>
  </g>
  <g id="default">
    <g>
      <g>
        <polygon class="cls-1" points="79.33 33.07 70.66 38.07 61.99 43.07 53.33 48.08 44.66 53.08 36 58.09 28.33 50 37 44.99 45.67 39.99 54.33 34.99 63 29.99 71.67 24.98 79.33 33.07"/>
        <polygon class="cls-1" points="71.67 24.98 63 29.99 54.33 34.99 45.67 39.99 37 44.99 28.33 50 26.8 49.85 20.67 49.24 29.34 44.24 38.01 39.23 46.68 34.23 55.34 29.23 64 24.22 71.67 24.98"/>
        <polygon class="cls-2" points="36 58.09 29.34 61.93 20.67 66.93 17.5 56.26 26.17 51.25 28.33 50 36 58.09"/>
        <polygon class="cls-1" points="39.17 68.76 37 70.01 28.33 75.02 20.67 66.93 29.34 61.93 36 58.09 39.17 68.76"/>
        <polygon class="cls-1" points="39.17 68.76 38.53 70.17 36 75.78 28.33 75.02 37 70.01 39.17 68.76"/>
        <polygon class="cls-2" points="28.33 50 26.17 51.25 17.5 56.26 20.67 49.24 26.8 49.85 28.33 50"/>
        <polygon class="cls-2" points="82.5 43.74 79.33 50.76 70.66 55.76 61.99 60.77 53.33 65.77 44.66 70.77 36 75.78 38.53 70.17 39.17 68.76 47.83 63.76 56.5 58.76 65.17 53.75 73.83 48.75 82.5 43.74"/>
        <polygon class="cls-2" points="82.5 43.74 73.83 48.75 65.17 53.75 56.5 58.76 47.83 63.76 39.17 68.76 36 58.09 44.66 53.08 53.33 48.08 61.99 43.07 70.66 38.07 79.33 33.07 82.5 43.74"/>
      </g>
      <g>
        <line class="cls-3" x1="37" y1="45" x2="29.34" y2="44.24"/>
        <line class="cls-3" x1="71.67" y1="24.98" x2="63" y2="29.99"/>
        <line class="cls-3" x1="79.33" y1="33.07" x2="70.66" y2="38.07"/>
        <line class="cls-3" x1="73.83" y1="48.75" x2="70.66" y2="38.07"/>
        <line class="cls-3" x1="56.5" y1="58.76" x2="53.33" y2="48.08"/>
        <line class="cls-3" x1="45.67" y1="39.99" x2="38.01" y2="39.23"/>
        <line class="cls-3" x1="29.34" y1="61.93" x2="20.67" y2="66.93"/>
        <line class="cls-3" x1="26.17" y1="51.25" x2="29.34" y2="61.93"/>
        <line class="cls-3" x1="53.33" y1="48.08" x2="45.67" y2="39.99"/>
        <line class="cls-3" x1="37" y1="70.01" x2="28.33" y2="75.02"/>
        <line class="cls-3" x1="37" y1="70.01" x2="38.53" y2="70.17"/>
        <line class="cls-3" x1="26.17" y1="51.25" x2="17.5" y2="56.25"/>
        <line class="cls-3" x1="29.34" y1="61.93" x2="37" y2="70.01"/>
        <line class="cls-3" x1="82.5" y1="43.75" x2="73.83" y2="48.75"/>
        <line class="cls-3" x1="70.66" y1="38.07" x2="63" y2="29.99"/>
        <line class="cls-3" x1="35.99" y1="58.09" x2="29.34" y2="61.93"/>
        <polyline class="cls-3" points="65.17 53.75 61.99 43.08 54.33 34.99"/>
        <line class="cls-3" x1="82.5" y1="43.75" x2="79.33" y2="33.07"/>
        <line class="cls-3" x1="82.5" y1="43.75" x2="79.33" y2="50.76"/>
        <polyline class="cls-3" points="79.33 33.07 71.67 24.98 64.01 24.22"/>
        <polyline class="cls-3" points="39.17 68.76 35.99 58.09 28.33 50"/>
        <polyline class="cls-3" points="20.67 49.24 17.5 56.25 20.67 66.93 28.33 75.02 35.99 75.78"/>
        <line class="cls-3" x1="28.33" y1="50" x2="26.17" y2="51.25"/>
        <line class="cls-3" x1="65.17" y1="53.75" x2="61.99" y2="60.77"/>
        <line class="cls-3" x1="39.17" y1="68.76" x2="37" y2="70.01"/>
        <line class="cls-3" x1="26.8" y1="49.85" x2="26.17" y2="51.25"/>
        <line class="cls-3" x1="47.83" y1="63.76" x2="44.66" y2="70.77"/>
        <line class="cls-3" x1="37" y1="45" x2="28.33" y2="50"/>
        <line class="cls-3" x1="70.66" y1="38.07" x2="61.99" y2="43.08"/>
        <line class="cls-3" x1="73.83" y1="48.75" x2="65.17" y2="53.75"/>
        <line class="cls-3" x1="73.83" y1="48.75" x2="70.66" y2="55.76"/>
        <line class="cls-3" x1="56.5" y1="58.76" x2="47.83" y2="63.76"/>
        <line class="cls-3" x1="56.5" y1="58.76" x2="53.33" y2="65.77"/>
        <line class="cls-3" x1="45.67" y1="39.99" x2="37" y2="45"/>
        <line class="cls-3" x1="53.33" y1="48.08" x2="44.66" y2="53.08"/>
        <line class="cls-3" x1="63" y1="29.99" x2="55.34" y2="29.23"/>
        <line class="cls-3" x1="47.83" y1="63.76" x2="39.17" y2="68.76"/>
        <line class="cls-3" x1="44.66" y1="53.08" x2="35.99" y2="58.09"/>
        <line class="cls-3" x1="54.33" y1="34.99" x2="45.67" y2="39.99"/>
        <line class="cls-3" x1="54.33" y1="34.99" x2="46.67" y2="34.23"/>
        <line class="cls-3" x1="61.99" y1="43.08" x2="53.33" y2="48.08"/>
        <line class="cls-3" x1="65.17" y1="53.75" x2="56.5" y2="58.76"/>
        <polyline class="cls-3" points="64.01 24.22 55.34 29.23 46.67 34.23 38.01 39.23 29.34 44.24 20.67 49.24"/>
        <polyline class="cls-3" points="79.33 50.76 70.66 55.76 61.99 60.77 53.33 65.77 44.66 70.77 35.99 75.78"/>
        <line class="cls-3" x1="39.17" y1="68.76" x2="35.99" y2="75.78"/>
        <line class="cls-3" x1="28.33" y1="50" x2="20.67" y2="49.24"/>
        <line class="cls-3" x1="63" y1="29.99" x2="54.33" y2="34.99"/>
        <line class="cls-3" x1="44.66" y1="53.08" x2="37" y2="45"/>
        <line class="cls-3" x1="47.83" y1="63.76" x2="44.66" y2="53.08"/>
      </g>
    </g>
  </g>
</svg>