<?xml version="1.0" encoding="UTF-8"?>
<svg id="light" xmlns="http://www.w3.org/2000/svg" viewBox="0 0 100 100">
  <defs>
    <style>
      .cls-1 {
        fill: #68004b;
      }

      .cls-2 {
        fill: #fafafa;
      }
    </style>
  </defs>
  <rect class="cls-2" x="5" y="5" width="90" height="90" rx="16" ry="16"/>
  <g>
    <polygon class="cls-1" points="34.97 71.67 25.32 61.14 22.95 58.56 28.13 53.82 30.5 56.41 34.05 60.28 34.05 28.94 34.05 25.43 41.07 25.43 41.07 28.94 41.07 60.28 44.63 56.41 46.99 53.82 52.17 58.56 49.8 61.15 40.15 71.68 37.56 74.5 34.97 71.67"/>
    <polygon class="cls-1" points="67.4 25.43 70.9 25.43 70.9 28.94 70.9 39.47 72.66 39.47 76.17 39.47 76.17 46.49 72.66 46.49 67.4 46.49 62.13 46.49 58.62 46.49 58.62 39.47 62.13 39.47 63.89 39.47 63.89 32.45 62.13 32.45 58.62 32.45 58.62 25.43 62.13 25.43 67.4 25.43"/>
    <path class="cls-1" d="M67.4,49.12c-5.33,0-9.65,4.32-9.65,9.65,0,4.64,3.28,8.52,7.66,9.44h-.01l-2.75,4.53-1.11,1.82h8.21l5.33-8.76c1.28-2.12,1.97-4.55,1.97-7.03,0-5.33-4.32-9.65-9.65-9.65ZM69.33,61.7c-1.62,1.07-3.79.62-4.86-.99-1.07-1.62-.62-3.8.99-4.86s3.8-.62,4.86.99c1.07,1.62.62,3.8-.99,4.86Z"/>
  </g>
  <path class="cls-1" d="M79.5,20.5v59H20.5V20.5h59M82.5,17.5H17.5v65h65V17.5h0Z"/>
</svg>