<?xml version="1.0" encoding="UTF-8"?>
<svg id="light" xmlns="http://www.w3.org/2000/svg" viewBox="0 0 100 100">
  <defs>
    <style>
      .cls-1 {
        fill: #68004b;
        opacity: .3;
      }

      .cls-2 {
        stroke-width: 3px;
      }

      .cls-2, .cls-3 {
        fill: none;
        stroke: #68004b;
        stroke-linecap: round;
        stroke-miterlimit: 10;
      }

      .cls-4 {
        fill: #fafafa;
      }

      .cls-3 {
        stroke-width: 2px;
      }
    </style>
  </defs>
  <rect class="cls-4" x="5" y="5" width="90" height="90" rx="16" ry="16"/>
  <g>
    <polygon class="cls-1" points="67.19 75.45 77.81 42.76 50 22.55 22.19 42.76 32.81 75.45 67.19 75.45"/>
    <polygon class="cls-2" points="67.19 75.45 77.81 42.76 50 22.55 22.19 42.76 32.81 75.45 67.19 75.45"/>
    <g>
      <path class="cls-4" d="M82.49,42.76c.23-2.3-2.38-4.91-4.68-4.68-2.3-.23-4.91,2.38-4.68,4.68-.23,2.3,2.38,4.91,4.68,4.68,2.3.23,4.91-2.38,4.68-4.68Z"/>
      <path class="cls-4" d="M26.87,42.76c.23-2.3-2.38-4.91-4.68-4.68-2.3-.23-4.91,2.38-4.68,4.68-.23,2.3,2.38,4.91,4.68,4.68,2.3.23,4.91-2.38,4.68-4.68Z"/>
      <path class="cls-4" d="M54.68,22.55c.23-2.3-2.38-4.91-4.68-4.68-2.3-.23-4.91,2.38-4.68,4.68-.23,2.3,2.38,4.91,4.68,4.68,2.3.23,4.91-2.38,4.68-4.68Z"/>
      <path class="cls-4" d="M71.86,75.45c.23-2.3-2.38-4.91-4.68-4.68-2.3-.23-4.91,2.38-4.68,4.68-.23,2.3,2.38,4.91,4.68,4.68,2.3.23,4.91-2.38,4.68-4.68Z"/>
      <path class="cls-4" d="M37.49,75.45c.23-2.3-2.38-4.91-4.68-4.68-2.3-.23-4.91,2.38-4.68,4.68-.23,2.3,2.38,4.91,4.68,4.68,2.3.23,4.91-2.38,4.68-4.68Z"/>
    </g>
    <g>
      <path class="cls-3" d="M82.49,42.76c.23-2.3-2.38-4.91-4.68-4.68-2.3-.23-4.91,2.38-4.68,4.68-.23,2.3,2.38,4.91,4.68,4.68,2.3.23,4.91-2.38,4.68-4.68Z"/>
      <path class="cls-3" d="M26.87,42.76c.23-2.3-2.38-4.91-4.68-4.68-2.3-.23-4.91,2.38-4.68,4.68-.23,2.3,2.38,4.91,4.68,4.68,2.3.23,4.91-2.38,4.68-4.68Z"/>
      <path class="cls-3" d="M54.68,22.55c.23-2.3-2.38-4.91-4.68-4.68-2.3-.23-4.91,2.38-4.68,4.68-.23,2.3,2.38,4.91,4.68,4.68,2.3.23,4.91-2.38,4.68-4.68Z"/>
      <path class="cls-3" d="M71.86,75.45c.23-2.3-2.38-4.91-4.68-4.68-2.3-.23-4.91,2.38-4.68,4.68-.23,2.3,2.38,4.91,4.68,4.68,2.3.23,4.91-2.38,4.68-4.68Z"/>
      <path class="cls-3" d="M37.49,75.45c.23-2.3-2.38-4.91-4.68-4.68-2.3-.23-4.91,2.38-4.68,4.68-.23,2.3,2.38,4.91,4.68,4.68,2.3.23,4.91-2.38,4.68-4.68Z"/>
    </g>
  </g>
</svg>