<?xml version="1.0" encoding="UTF-8"?>
<svg id="light" xmlns="http://www.w3.org/2000/svg" viewBox="0 0 100 100">
  <defs>
    <style>
      .cls-1 {
        stroke-width: 3px;
      }

      .cls-1, .cls-2 {
        fill: none;
        stroke: #68004b;
        stroke-linejoin: round;
      }

      .cls-2 {
        stroke-width: 4px;
      }

      .cls-3 {
        fill: #fafafa;
      }
    </style>
  </defs>
  <rect class="cls-3" x="5" y="5" width="90" height="90" rx="16" ry="16"/>
  <g>
    <line class="cls-1" x1="79.61" y1="32.91" x2="85" y2="29.79"/>
    <g>
      <path class="cls-2" d="M17.19,56.31c-.07,2.91,1.09,7.12,3.2,10.78,2.11,3.66,5.18,6.77,7.73,8.16,2.55,1.55,5.62,1.99,7.73.77,2.11-1.22,3.27-4.1,3.2-7.08.07-2.91-1.09-7.12-3.2-10.78-2.11-3.66-5.18-6.77-7.73-8.16-2.55-1.55-5.62-1.99-7.73-.77-2.11,1.22-3.27,4.1-3.2,7.08Z"/>
      <path class="cls-2" d="M35.86,76.03l43.75-25.26c2.18-1.21,3.24-4.1,3.2-7.08.07-2.91-1.09-7.12-3.2-10.78-2.11-3.66-5.18-6.77-7.73-8.16-2.56-1.52-5.6-2.05-7.73-.77l-43.75,25.26"/>
    </g>
    <line class="cls-1" x1="15" y1="70.21" x2="35.86" y2="58.16"/>
  </g>
</svg>