<?xml version="1.0" encoding="UTF-8"?>
<svg id="light" xmlns="http://www.w3.org/2000/svg" viewBox="0 0 100 100">
  <defs>
    <style>
      .cls-1 {
        opacity: .3;
      }

      .cls-1, .cls-2, .cls-3 {
        fill: #68004b;
      }

      .cls-3 {
        opacity: .6;
      }

      .cls-4 {
        fill: #fafafa;
      }
    </style>
  </defs>
  <rect class="cls-4" x="5" y="5" width="90" height="90" rx="16" ry="16"/>
  <g>
    <path class="cls-2" d="M61.78,35.08l1.88,1.89,13.19-11.31,1.88,1.89-11.31,13.19,1.88,1.89,12.25-12.25,1.88,1.88-8.32,14.54c-1.85,3.25-5.3,5.25-9.05,5.25-2.29,0-4.49-.75-6.29-2.12l-27.4,27.41-2.66,2.66-5.34-5.34,2.67-2.66,27.4-27.41c-1.37-1.8-2.12-4.01-2.12-6.29,0-3.73,2-7.19,5.25-9.05l14.54-8.31,1.89,1.89-12.25,12.25Z"/>
    <path class="cls-1" d="M41.84,39.96l5.97,5.97-13.04,13.04c-10.74-10.67-18.22-18.39-18.22-26.72,0-7.54,5.34-12.25,5.34-12.25l17.28,17.28,2.66,2.67h.01Z"/>
    <polygon class="cls-3" points="53.13 61.93 58.47 56.59 73.88 72 76.54 74.66 71.21 80 68.54 77.33 53.13 61.93"/>
  </g>
</svg>