<?xml version="1.0" encoding="UTF-8"?>
<svg id="light" xmlns="http://www.w3.org/2000/svg" viewBox="0 0 100 100">
  <defs>
    <style>
      .cls-1 {
        fill: #68004b;
      }

      .cls-2 {
        fill: #fafafa;
      }

      .cls-3 {
        fill: none;
        stroke: #68004b;
        stroke-miterlimit: 10;
        stroke-width: 6px;
      }
    </style>
  </defs>
  <rect class="cls-2" x="5" y="5" width="90" height="90" rx="16" ry="16"/>
  <g>
    <path class="cls-1" d="M61.7,47.17l2.84,2.83c-3.85,3.85-14.25,14.25-18.1,18.1l-5.65-5.66c1.79-1.79,6.58-6.58,8.43-8.43-2.13,0-28.34,0-29.22,0v-8c.71,0,27.25,0,29.21,0-1.87-1.87-6.62-6.62-8.42-8.43l5.65-5.66c1.76,1.76,13.23,13.23,15.26,15.26h0Z"/>
    <path class="cls-3" d="M65.69,15.45c19.08,19.08,19.08,50.02,0,69.11"/>
  </g>
</svg>