<?xml version="1.0" encoding="UTF-8"?>
<svg id="light" xmlns="http://www.w3.org/2000/svg" viewBox="0 0 100 100">
  <defs>
    <style>
      .cls-1 {
        fill: #68004b;
      }

      .cls-2 {
        fill: #fafafa;
      }
    </style>
  </defs>
  <rect class="cls-2" x="5" y="5" width="90" height="90" rx="16" ry="16"/>
  <g>
    <polygon class="cls-1" points="43.57 55 56.42 55 50 42.15 43.57 55"/>
    <path class="cls-1" d="M80,20H20v60h60V20ZM69.61,64.58c1.46,2.95-1.28,6.87-5.91,4.94l-3.51-7.01h-20.37l-2.72,5.42c-.92,1.86-3.17,2.61-5.03,1.67-1.86-.94-2.61-3.17-1.67-5.03l16.24-32.49c.64-1.27,1.94-2.08,3.36-2.08v.02c1.42,0,2.72.8,3.36,2.08l16.24,32.49Z"/>
  </g>
</svg>