<?xml version="1.0" encoding="UTF-8"?>
<svg id="light" xmlns="http://www.w3.org/2000/svg" viewBox="0 0 100 100">
  <defs>
    <style>
      .cls-1 {
        fill: #68004b;
      }

      .cls-2 {
        fill: #fafafa;
      }
    </style>
  </defs>
  <rect class="cls-2" x="5" y="5" width="90" height="90" rx="16" ry="16"/>
  <path class="cls-1" d="M66.25,21.85c-10.06-5.81-22.44-5.81-32.5,0-10.06,5.81-16.25,16.53-16.25,28.15s6.19,22.34,16.25,28.15c10.06,5.81,22.44,5.81,32.5,0,10.06-5.81,16.25-16.53,16.25-28.15s-6.19-22.34-16.25-28.15ZM67.85,46.13l-7.44,7.26,1.75,10.25c.13.76-.18,1.52-.81,1.98-.63.46-1.46.51-2.15.15l-9.2-4.84-9.19,4.82c-.67.37-1.5.29-2.13-.15-.63-.44-.94-1.22-.81-1.98l1.75-10.25-7.44-7.26c-.55-.53-.75-1.35-.51-2.08.24-.74.88-1.27,1.64-1.38l10.28-1.5,4.6-9.32c.33-.69,1.04-1.13,1.82-1.13h.01c.76.01,1.47.44,1.82,1.14l4.6,9.32,10.3,1.5c.76.11,1.4.65,1.64,1.38.24.74.05,1.54-.51,2.08Z"/>
</svg>