<?xml version="1.0" encoding="UTF-8"?>
<svg id="default" xmlns="http://www.w3.org/2000/svg" viewBox="0 0 100 100">
  <defs>
    <style>
      .cls-1 {
        fill: #68004b;
      }

      .cls-2 {
        fill: #fafafa;
      }
    </style>
  </defs>
  <rect class="cls-2" x="5" y="5" width="90" height="90" rx="16" ry="16"/>
  <path class="cls-1" d="M28.52,29.38h42.97c3.32,0,6.02,2.69,6.02,6.02v29.22c0,3.32-2.69,6.02-6.02,6.02H28.52c-3.32,0-6.02-2.69-6.02-6.02v-29.22c0-3.32,2.69-6.02,6.02-6.02ZM27.66,64.61c0,.47.38.86.86.86h42.97c.47,0,.86-.38.86-.86v-22.14l-21.04,12.33c-.81.47-1.81.47-2.61,0l-21.04-12.33v22.14ZM72.34,36.49v-1.1c0-.47-.38-.86-.86-.86H28.52c-.47,0-.86.38-.86.86v1.1l22.34,13.1,22.34-13.1Z"/>
</svg>