<?xml version="1.0" encoding="UTF-8"?>
<svg id="default" xmlns="http://www.w3.org/2000/svg" viewBox="0 0 100 100">
  <defs>
    <style>
      .cls-1 {
        fill: #68004b;
      }

      .cls-2 {
        fill: #fafafa;
      }
    </style>
  </defs>
  <rect class="cls-2" x="5" y="5" width="90" height="90" rx="16" ry="16"/>
  <path class="cls-1" d="M72.01,27.95l12.19,12.19c.4.4.4,1.04,0,1.44-.19.19-.45.3-.72.3h-9.14v27.42c0,1.68-1.36,3.05-3.05,3.05s-3.05-1.36-3.05-3.05v-27.42h-9.14c-.56,0-1.02-.45-1.02-1.01,0-.27.11-.53.3-.72l12.19-12.19c.4-.4,1.04-.4,1.44,0,0,0,0,0,0,0ZM19.5,67.27c0-1.68,1.36-3.05,3.05-3.05h30.47c1.68,0,3.05,1.36,3.05,3.05s-1.36,3.05-3.05,3.05h-30.47c-1.68,0-3.05-1.36-3.05-3.05ZM19.5,51.02c0-1.68,1.36-3.05,3.05-3.05h18.28c1.68,0,3.05,1.36,3.05,3.05s-1.36,3.05-3.05,3.05h-18.28c-1.68,0-3.05-1.36-3.05-3.05ZM19.5,34.77c0-1.68,1.36-3.05,3.05-3.05h10.16c1.68,0,3.05,1.36,3.05,3.05s-1.36,3.05-3.05,3.05h-10.16c-1.68,0-3.05-1.36-3.05-3.05Z"/>
</svg>