<?xml version="1.0" encoding="UTF-8"?>
<svg id="light" xmlns="http://www.w3.org/2000/svg" viewBox="0 0 100 100">
  <defs>
    <style>
      .cls-1 {
        opacity: .3;
      }

      .cls-1, .cls-2, .cls-3 {
        fill: #68004b;
      }

      .cls-3 {
        opacity: .6;
      }

      .cls-4 {
        fill: none;
        stroke: #68004b;
        stroke-miterlimit: 10;
        stroke-width: 3px;
      }

      .cls-5 {
        fill: #fafafa;
      }
    </style>
  </defs>
  <rect class="cls-5" x="5" y="5" width="90" height="90" rx="16" ry="16"/>
  <g>
    <g>
      <path class="cls-1" d="M48.2,75c4.95-7.03,9.2-10.78,13.27-13.64l-31.91-16.81c-4.07,2.86-8.32,6.62-13.27,13.64l31.91,16.81Z"/>
      <path class="cls-3" d="M61.47,61.36c7.09-4.99,13.62-7.29,22.24-19.54l-31.91-16.81c-8.62,12.25-15.15,14.55-22.24,19.54l31.91,16.81Z"/>
    </g>
    <path class="cls-4" d="M51.8,25c-8.62,12.25-15.15,14.55-22.24,19.54-4.07,2.86-8.32,6.62-13.27,13.64l31.91,16.81c4.95-7.03,9.2-10.78,13.27-13.64,7.09-4.99,13.62-7.29,22.24-19.54l-31.91-16.81Z"/>
  </g>
  <polygon class="cls-2" points="22.76 32.57 19.62 29.42 14.88 43.59 29.06 38.87 25.91 35.72 38.52 23.14 35.37 19.98 22.76 32.57"/>
</svg>