<?xml version="1.0" encoding="UTF-8"?>
<svg id="light" xmlns="http://www.w3.org/2000/svg" viewBox="0 0 100 100">
  <defs>
    <style>
      .cls-1 {
        fill: #68004b;
      }

      .cls-2 {
        fill: #fafafa;
      }
    </style>
  </defs>
  <rect class="cls-2" x="5" y="5" width="90" height="90" rx="16" ry="16"/>
  <path class="cls-1" d="M85,69.44v-7.78h-7.57l-2.59-7.78h5.3v-7.78h-7.89l-2.59-7.78h5.61v-7.78h-8.22l-2.59-7.78h-8.2l2.59,7.78h-17.72l2.59-7.78h-8.2l-2.59,7.78h-8.22v7.78h5.63l-2.59,7.78h-7.9v7.78h5.3l-2.59,7.78h-7.57v7.78h4.97l-2.59,7.78h8.2l2.59-7.78h43.65l2.59,7.78h8.2l-2.59-7.78h4.97ZM38.54,38.33h22.92l2.59,7.78h-28.1l2.59-7.78ZM30.76,61.67l2.59-7.78h33.3l2.59,7.78H30.76Z"/>
</svg>