<?xml version="1.0" encoding="UTF-8"?>
<svg id="light" xmlns="http://www.w3.org/2000/svg" viewBox="0 0 100 100">
  <defs>
    <style>
      .cls-1 {
        fill: #68004b;
        opacity: .3;
      }

      .cls-2 {
        stroke-width: 3px;
      }

      .cls-2, .cls-3 {
        fill: none;
        stroke: #68004b;
        stroke-linecap: round;
        stroke-miterlimit: 10;
      }

      .cls-4 {
        fill: #fafafa;
      }

      .cls-3 {
        stroke-width: 2px;
      }
    </style>
  </defs>
  <rect class="cls-4" x="5" y="5" width="90" height="90" rx="16" ry="16"/>
  <g>
    <polygon class="cls-1" points="80.16 50 65.08 23.88 34.92 23.88 19.84 50 34.92 76.12 65.08 76.12 80.16 50"/>
    <polygon class="cls-2" points="80.16 50 65.08 23.88 34.92 23.88 19.84 50 34.92 76.12 65.08 76.12 80.16 50"/>
    <g>
      <path class="cls-4" d="M39.75,76.12c.24-2.37-2.45-5.07-4.83-4.83-2.37-.24-5.07,2.45-4.83,4.83-.24,2.37,2.45,5.07,4.83,4.83,2.37.24,5.07-2.45,4.83-4.83Z"/>
      <path class="cls-4" d="M24.67,50c.24-2.37-2.45-5.07-4.83-4.83-2.37-.24-5.07,2.45-4.83,4.83-.24,2.37,2.45,5.07,4.83,4.83,2.37.24,5.07-2.45,4.83-4.83Z"/>
      <path class="cls-4" d="M39.75,23.88c.24-2.37-2.45-5.07-4.83-4.83-2.37-.24-5.07,2.45-4.83,4.83-.24,2.37,2.45,5.07,4.83,4.83,2.37.24,5.07-2.45,4.83-4.83Z"/>
      <path class="cls-4" d="M69.91,23.88c.24-2.37-2.45-5.07-4.83-4.83-2.37-.24-5.07,2.45-4.83,4.83-.24,2.37,2.45,5.07,4.83,4.83,2.37.24,5.07-2.45,4.83-4.83Z"/>
      <path class="cls-4" d="M84.98,50c.24-2.37-2.45-5.07-4.83-4.83-2.37-.24-5.07,2.45-4.83,4.83-.24,2.37,2.45,5.07,4.83,4.83,2.37.24,5.07-2.45,4.83-4.83Z"/>
      <path class="cls-4" d="M69.91,76.12c.24-2.37-2.45-5.07-4.83-4.83-2.37-.24-5.07,2.45-4.83,4.83-.24,2.37,2.45,5.07,4.83,4.83,2.37.24,5.07-2.45,4.83-4.83Z"/>
    </g>
    <g>
      <path class="cls-3" d="M39.75,76.12c.24-2.37-2.45-5.07-4.83-4.83-2.37-.24-5.07,2.45-4.83,4.83-.24,2.37,2.45,5.07,4.83,4.83,2.37.24,5.07-2.45,4.83-4.83Z"/>
      <path class="cls-3" d="M24.67,50c.24-2.37-2.45-5.07-4.83-4.83-2.37-.24-5.07,2.45-4.83,4.83-.24,2.37,2.45,5.07,4.83,4.83,2.37.24,5.07-2.45,4.83-4.83Z"/>
      <path class="cls-3" d="M39.75,23.88c.24-2.37-2.45-5.07-4.83-4.83-2.37-.24-5.07,2.45-4.83,4.83-.24,2.37,2.45,5.07,4.83,4.83,2.37.24,5.07-2.45,4.83-4.83Z"/>
      <path class="cls-3" d="M69.91,23.88c.24-2.37-2.45-5.07-4.83-4.83-2.37-.24-5.07,2.45-4.83,4.83-.24,2.37,2.45,5.07,4.83,4.83,2.37.24,5.07-2.45,4.83-4.83Z"/>
      <path class="cls-3" d="M84.98,50c.24-2.37-2.45-5.07-4.83-4.83-2.37-.24-5.07,2.45-4.83,4.83-.24,2.37,2.45,5.07,4.83,4.83,2.37.24,5.07-2.45,4.83-4.83Z"/>
      <path class="cls-3" d="M69.91,76.12c.24-2.37-2.45-5.07-4.83-4.83-2.37-.24-5.07,2.45-4.83,4.83-.24,2.37,2.45,5.07,4.83,4.83,2.37.24,5.07-2.45,4.83-4.83Z"/>
    </g>
  </g>
</svg>