<?xml version="1.0" encoding="UTF-8"?>
<svg id="default" xmlns="http://www.w3.org/2000/svg" viewBox="0 0 100 100">
  <defs>
    <style>
      .cls-1 {
        fill: #68004b;
      }

      .cls-2 {
        fill: #fafafa;
      }
    </style>
  </defs>
  <rect class="cls-2" x="5" y="5" width="90" height="90" rx="16" ry="16"/>
  <path class="cls-1" d="M19.5,33.75c0-1.68,1.36-3.05,3.05-3.05h30.47c1.68,0,3.05,1.36,3.05,3.05s-1.36,3.05-3.05,3.05h-30.47c-1.68,0-3.05-1.36-3.05-3.05ZM19.5,50c0-1.68,1.36-3.05,3.05-3.05h18.28c1.68,0,3.05,1.36,3.05,3.05s-1.36,3.05-3.05,3.05h-18.28c-1.68,0-3.05-1.36-3.05-3.05ZM19.5,66.25c0-1.68,1.36-3.05,3.05-3.05h10.16c1.68,0,3.05,1.36,3.05,3.05s-1.36,3.05-3.05,3.05h-10.16c-1.68,0-3.05-1.36-3.05-3.05ZM74.34,57.11h9.14c.56,0,1.02.45,1.02,1.01,0,.27-.11.53-.3.72l-12.19,12.19c-.4.4-1.04.4-1.44,0,0,0,0,0,0,0l-12.19-12.19c-.4-.4-.4-1.04,0-1.44.19-.19.45-.3.72-.3h9.14v-25.39c0-1.68,1.36-3.05,3.05-3.05s3.05,1.36,3.05,3.05v25.39Z"/>
</svg>