<?xml version="1.0" encoding="UTF-8"?>
<svg id="light" xmlns="http://www.w3.org/2000/svg" viewBox="0 0 100 100">
  <defs>
    <style>
      .cls-1 {
        stroke-linecap: square;
        stroke-miterlimit: 10;
        stroke-width: 6px;
      }

      .cls-1, .cls-2 {
        fill: none;
        stroke: #68004b;
      }

      .cls-2 {
        opacity: .6;
        stroke-linecap: round;
        stroke-linejoin: round;
        stroke-width: 3px;
      }

      .cls-3 {
        fill: #68004b;
      }

      .cls-4 {
        fill: #fafafa;
      }
    </style>
  </defs>
  <rect class="cls-4" x="5" y="5" width="90" height="90" rx="16" ry="16"/>
  <g>
    <line class="cls-2" x1="54.99" y1="34.83" x2="58.65" y2="23.57"/>
    <line class="cls-2" x1="40.68" y1="37.1" x2="33.73" y2="27.52"/>
    <line class="cls-2" x1="62.97" y1="59.38" x2="72.55" y2="66.34"/>
    <line class="cls-2" x1="65.24" y1="45.07" x2="76.5" y2="41.42"/>
    <g>
      <polyline class="cls-1" points="50 85.36 50 50 14.64 50"/>
      <g>
        <path class="cls-4" d="M50,56c-1.6,0-3.11-.62-4.24-1.76-2.34-2.34-2.34-6.15,0-8.49,1.13-1.13,2.64-1.76,4.24-1.76s3.11.62,4.24,1.76c2.34,2.34,2.34,6.15,0,8.49-1.13,1.13-2.64,1.76-4.24,1.76Z"/>
        <path class="cls-3" d="M50,45.5c1.2,0,2.33.47,3.18,1.32,1.75,1.75,1.75,4.61,0,6.36-.85.85-1.98,1.32-3.18,1.32s-2.33-.47-3.18-1.32c-1.75-1.75-1.75-4.61,0-6.36.85-.85,1.98-1.32,3.18-1.32M50,42.5c-1.92,0-3.84.73-5.3,2.2-2.93,2.93-2.93,7.68,0,10.61,1.46,1.46,3.38,2.2,5.3,2.2s3.84-.73,5.3-2.2c2.93-2.93,2.93-7.68,0-10.61-1.46-1.46-3.38-2.2-5.3-2.2h0Z"/>
      </g>
    </g>
  </g>
</svg>