<?xml version="1.0" encoding="UTF-8"?>
<svg id="default" xmlns="http://www.w3.org/2000/svg" viewBox="0 0 100 100">
  <defs>
    <style>
      .cls-1 {
        fill: #68004b;
      }

      .cls-2 {
        fill: #fafafa;
      }
    </style>
  </defs>
  <rect class="cls-2" x="5" y="5" width="90" height="90" rx="16" ry="16"/>
  <path class="cls-1" d="M31.65,28.56v43.26c0,.52.42.94.94.94h11.93c1.56,0,2.82,1.26,2.82,2.82s-1.26,2.82-2.82,2.82h-11.93c-3.64,0-6.58-2.95-6.58-6.58V28.56c0-3.63,2.95-6.58,6.58-6.58h31.98c3.63,0,6.58,2.95,6.58,6.58v29.1c0,1.56-1.26,2.82-2.82,2.82s-2.82-1.26-2.82-2.82v-29.1c0-.52-.42-.94-.94-.94h-31.98c-.52,0-.94.42-.94.94ZM81.59,64.44h0s-17.14,16.74-17.14,16.74c-1.11,1.08-2.88,1.07-3.97-.03l-7.31-7.34c-1.06-1.14-.99-2.93.15-3.99,1.09-1.01,2.77-1,3.85,0l5.34,5.36,15.15-14.79c1.12-1.09,2.9-1.07,3.99.05,1.09,1.12,1.07,2.9-.05,3.99h0ZM40.11,37.03h16.93c1.56,0,2.82,1.26,2.82,2.82s-1.26,2.82-2.82,2.82h-16.93c-1.56,0-2.82-1.26-2.82-2.82s1.26-2.82,2.82-2.82ZM37.29,51.13c0-1.56,1.26-2.82,2.82-2.82h7.52c1.56,0,2.82,1.26,2.82,2.82s-1.26,2.82-2.82,2.82h-7.52c-1.56,0-2.82-1.26-2.82-2.82Z"/>
</svg>