<?xml version="1.0" encoding="UTF-8"?>
<svg id="light" xmlns="http://www.w3.org/2000/svg" viewBox="0 0 100 100">
  <defs>
    <style>
      .cls-1, .cls-2 {
        fill: #68004b;
      }

      .cls-2 {
        opacity: .6;
      }

      .cls-3 {
        fill: #fafafa;
      }
    </style>
  </defs>
  <rect class="cls-3" x="5" y="5" width="90" height="90" rx="16" ry="16"/>
  <g>
    <path class="cls-2" d="M17.5,70.68c0,4.89,3.97,8.86,8.86,8.86h47.27c4.89,0,8.86-3.97,8.86-8.86,0-1.63-1.33-2.95-2.95-2.95H20.45c-1.63,0-2.95,1.33-2.95,2.95Z"/>
    <path class="cls-1" d="M17.5,55.91c0,3.27,2.64,5.91,5.91,5.91h53.18c3.27,0,5.91-2.64,5.91-5.91s-2.64-5.91-5.91-5.91H23.41c-3.27,0-5.91,2.64-5.91,5.91Z"/>
    <path class="cls-2" d="M77.42,44.09c2.81,0,5.08-2.27,5.08-5.08,0-.55-.09-1.09-.31-1.59-1.5-3.4-8.94-16.97-32.19-16.97s-30.69,13.57-32.19,16.97c-.22.5-.31,1.05-.31,1.59,0,2.81,2.27,5.08,5.08,5.08h54.84Z"/>
    <g>
      <path class="cls-1" d="M61.82,32.27c0-1.63,1.32-2.95,2.95-2.95s2.95,1.32,2.95,2.95-1.32,2.95-2.95,2.95-2.95-1.32-2.95-2.95Z"/>
      <path class="cls-1" d="M50,26.36c1.63,0,2.95,1.32,2.95,2.95s-1.32,2.95-2.95,2.95-2.95-1.32-2.95-2.95,1.32-2.95,2.95-2.95Z"/>
      <path class="cls-1" d="M32.27,32.27c0-1.63,1.32-2.95,2.95-2.95s2.95,1.32,2.95,2.95-1.32,2.95-2.95,2.95-2.95-1.32-2.95-2.95Z"/>
    </g>
  </g>
</svg>