<?xml version="1.0" encoding="UTF-8"?>
<svg id="default" xmlns="http://www.w3.org/2000/svg" viewBox="0 0 100 100">
  <defs>
    <style>
      .cls-1 {
        fill: #68004b;
      }

      .cls-2 {
        fill: #fafafa;
      }
    </style>
  </defs>
  <rect class="cls-2" x="5" y="5" width="90" height="90" rx="16" ry="16"/>
  <path class="cls-1" d="M52.95,37.81c0-1.55,1.26-2.81,2.81-2.81h15c1.55,0,2.81,1.26,2.81,2.81,0,.74-.3,1.46-.82,1.98l-7.09,7.09c1.17.28,2.26.67,3.25,1.2,2.78,1.47,4.66,3.99,4.66,7.52,0,2.45-.87,4.53-2.36,6.1-1.45,1.53-3.35,2.45-5.28,2.91-3.79.91-8.34.24-11.71-1.98-1.25-.93-1.51-2.69-.58-3.94.85-1.15,2.42-1.47,3.66-.76,2,1.31,4.95,1.78,7.31,1.21,1.15-.27,1.99-.75,2.51-1.31.48-.51.82-1.2.82-2.23,0-1.15-.46-1.91-1.66-2.54-1.4-.74-3.67-1.19-6.77-1.19-1.55,0-2.81-1.26-2.81-2.81,0-.74.3-1.46.82-1.98l6.45-6.45h-8.21c-1.55,0-2.81-1.26-2.81-2.81h0ZM39.5,59.42c-1.31-.19-2.89.42-3.69,2.14-.62,1.42-2.28,2.07-3.71,1.44-1.42-.62-2.07-2.28-1.44-3.71.02-.04.03-.07.05-.11,1.9-4.1,5.96-5.87,9.59-5.34,3.75.54,7.02,3.54,7.02,8.33,0,5.37-4.08,8.22-6.71,10.05-1.15.81-2.14,1.49-2.89,2.15h7.73c1.55,0,2.81,1.26,2.81,2.81s-1.26,2.81-2.81,2.81h-12.18c-1.55,0-2.81-1.26-2.81-2.81,0-2.59,1.12-4.54,2.51-6.04,1.3-1.39,3-2.53,4.31-3.45,3-2.1,4.42-3.39,4.42-5.53,0-1.77-1-2.59-2.2-2.76ZM40.22,20.34c.91.49,1.48,1.44,1.48,2.48v17.88h2.67c1.55,0,2.81,1.26,2.81,2.81s-1.26,2.81-2.81,2.81h-11.07c-1.55,0-2.81-1.26-2.81-2.81s1.26-2.81,2.81-2.81h2.78v-12.63l-1.25.84c-1.3.85-3.04.48-3.89-.82-.83-1.28-.49-2.99.77-3.86l5.62-3.75c.86-.58,1.97-.63,2.89-.14h0Z"/>
</svg>