<?xml version="1.0" encoding="UTF-8"?>
<svg id="default" xmlns="http://www.w3.org/2000/svg" viewBox="0 0 100 100">
  <defs>
    <style>
      .cls-1 {
        fill: #68004b;
      }

      .cls-2 {
        fill: #fafafa;
      }
    </style>
  </defs>
  <rect class="cls-2" x="5" y="5" width="90" height="90" rx="16" ry="16"/>
  <g>
    <path class="cls-1" d="M45.33,39.66c.77.84.73,2.14-.11,2.91,0,0,0,0,0,0l-8,7.43,8,7.42c.84.77.88,2.08.11,2.92-.77.84-2.08.88-2.92.11l-9.62-8.94c-.84-.77-.88-2.08-.11-2.91.04-.04.07-.07.11-.11l9.62-8.94c.84-.77,2.14-.73,2.91.11,0,0,0,0,0,0ZM54.78,42.57c-.84-.77-.88-2.08-.11-2.92.77-.84,2.08-.88,2.92-.11l9.62,8.94c.84.77.88,2.08.11,2.91-.04.04-.07.07-.11.11l-9.62,8.94c-.84.77-2.14.73-2.92-.11-.77-.84-.73-2.14.11-2.92l8-7.42-8-7.42Z"/>
    <path class="cls-1" d="M71.48,22.5H28.52c-3.32,0-6.02,2.7-6.02,6.02v42.97c0,3.32,2.69,6.02,6.02,6.02h42.97c3.32,0,6.02-2.69,6.02-6.02V28.52c0-3.32-2.7-6.02-6.02-6.02ZM72.34,71.48c0,.47-.38.86-.86.86H28.52c-.47,0-.86-.39-.86-.86V28.52c0-.47.38-.86.86-.86h42.97c.47,0,.86.38.86.86v42.97Z"/>
  </g>
</svg>