<?xml version="1.0" encoding="UTF-8"?>
<svg id="light" xmlns="http://www.w3.org/2000/svg" viewBox="0 0 100 100">
  <defs>
    <style>
      .cls-1 {
        fill: #68004b;
      }

      .cls-2 {
        fill: #fafafa;
      }
    </style>
  </defs>
  <rect class="cls-2" x="5" y="5" width="90" height="90" rx="16" ry="16"/>
  <g>
    <polygon class="cls-1" points="30.56 78.05 18.07 64.42 15 61.07 21.7 54.94 24.76 58.29 29.36 63.3 29.36 22.75 29.36 18.21 38.45 18.21 38.45 22.75 38.45 63.3 43.05 58.29 46.11 54.94 52.81 61.07 49.74 64.43 37.25 78.06 33.91 81.71 30.56 78.05"/>
    <polygon class="cls-1" points="72.51 18.21 77.05 18.21 77.05 22.75 77.05 36.37 79.32 36.37 83.86 36.37 83.86 45.46 79.32 45.46 72.51 45.46 65.7 45.46 61.16 45.46 61.16 36.37 65.7 36.37 67.97 36.37 67.97 27.29 65.7 27.29 61.16 27.29 61.16 18.21 65.7 18.21 72.51 18.21"/>
    <path class="cls-1" d="M72.51,48.86c-6.9,0-12.49,5.59-12.49,12.49,0,6,4.24,11.03,9.91,12.22h-.01l-3.56,5.86-1.43,2.36h10.63l6.9-11.34c1.66-2.74,2.55-5.89,2.55-9.1,0-6.9-5.59-12.49-12.49-12.49ZM75.01,65.14c-2.09,1.38-4.91.81-6.29-1.28-1.38-2.09-.81-4.91,1.28-6.29s4.91-.81,6.29,1.28c1.38,2.09.81,4.91-1.28,6.29Z"/>
  </g>
</svg>