<?xml version="1.0" encoding="UTF-8"?>
<svg id="default" xmlns="http://www.w3.org/2000/svg" viewBox="0 0 100 100">
  <defs>
    <style>
      .cls-1 {
        fill: #68004b;
      }

      .cls-2 {
        fill: #fafafa;
      }
    </style>
  </defs>
  <rect class="cls-2" x="5" y="5" width="90" height="90" rx="16" ry="16"/>
  <path class="cls-1" d="M83.43,74.5l-7.5-7.51c3.32-5.06,5.06-10.9,5.06-16.99,0-17.09-13.9-30.99-30.99-30.99s-30.99,13.9-30.99,30.99,13.9,30.99,30.99,30.99c6.11,0,11.95-1.74,16.99-5.06l7.5,7.51c1.23,1.23,2.85,1.85,4.47,1.85,1.62,0,3.24-.62,4.47-1.85,2.47-2.47,2.47-6.48,0-8.94Z"/>
  <circle class="cls-2" cx="50" cy="50" r="22.5"/>
  <polygon class="cls-1" points="57.5 54.92 42.5 54.92 50 41.65 57.5 54.92"/>
</svg>