<?xml version="1.0" encoding="UTF-8"?>
<svg id="light" xmlns="http://www.w3.org/2000/svg" viewBox="0 0 100 100">
  <defs>
    <style>
      .cls-1 {
        fill: #68004b;
      }

      .cls-2 {
        fill: #fafafa;
      }
    </style>
  </defs>
  <rect class="cls-2" x="5" y="5" width="90" height="90" rx="16" ry="16"/>
  <path class="cls-1" d="M46.88,23.87c-2.43-1.05-4.06-3.02-4.06-5.28,0-3.36,3.64-6.09,8.12-6.09s8.12,2.73,8.12,6.09c0,2.26-1.64,4.23-4.06,5.28v4.88h16.25v16.25h4.88c1.05-2.43,3.02-4.06,5.28-4.06,3.36,0,6.09,3.64,6.09,8.12s-2.73,8.12-6.09,8.12c-2.26,0-4.23-1.64-5.28-4.06h-4.88v24.38h-16.25v-4.88c2.43-1.05,4.06-3.02,4.06-5.28,0-3.36-3.64-6.09-8.12-6.09s-8.12,2.73-8.12,6.09c0,2.26,1.64,4.23,4.06,5.28v4.88h-24.38v-24.38h4.88c1.05,2.43,3.02,4.06,5.28,4.06,3.36,0,6.09-3.64,6.09-8.12s-2.73-8.12-6.09-8.12c-2.26,0-4.23,1.64-5.28,4.06h-4.88v-16.25h24.38v-4.88Z"/>
</svg>