<?xml version="1.0" encoding="UTF-8"?>
<svg id="light" xmlns="http://www.w3.org/2000/svg" viewBox="0 0 100 100">
  <defs>
    <style>
      .cls-1 {
        fill: none;
        stroke: #68004b;
        stroke-linecap: round;
        stroke-linejoin: round;
        stroke-width: 3px;
      }

      .cls-2 {
        opacity: .3;
      }

      .cls-2, .cls-3 {
        fill: #68004b;
      }

      .cls-4 {
        fill: #fafafa;
      }
    </style>
  </defs>
  <rect class="cls-4" x="5" y="5" width="90" height="90" rx="16" ry="16"/>
  <g>
    <rect class="cls-2" x="25" y="25" width="50" height="50"/>
    <rect class="cls-1" x="25" y="25" width="50" height="50"/>
    <g>
      <circle class="cls-4" cx="25" cy="25" r="6"/>
      <path class="cls-3" d="M25,20.5c2.48,0,4.5,2.02,4.5,4.5s-2.02,4.5-4.5,4.5-4.5-2.02-4.5-4.5,2.02-4.5,4.5-4.5M25,17.5c-4.14,0-7.5,3.36-7.5,7.5s3.36,7.5,7.5,7.5,7.5-3.36,7.5-7.5-3.36-7.5-7.5-7.5h0Z"/>
    </g>
    <g>
      <circle class="cls-4" cx="75" cy="25" r="6"/>
      <path class="cls-3" d="M75,20.5c2.48,0,4.5,2.02,4.5,4.5s-2.02,4.5-4.5,4.5-4.5-2.02-4.5-4.5,2.02-4.5,4.5-4.5M75,17.5c-4.14,0-7.5,3.36-7.5,7.5s3.36,7.5,7.5,7.5,7.5-3.36,7.5-7.5-3.36-7.5-7.5-7.5h0Z"/>
    </g>
    <g>
      <circle class="cls-4" cx="25" cy="75" r="6"/>
      <path class="cls-3" d="M25,70.5c2.48,0,4.5,2.02,4.5,4.5s-2.02,4.5-4.5,4.5-4.5-2.02-4.5-4.5,2.02-4.5,4.5-4.5M25,67.5c-4.14,0-7.5,3.36-7.5,7.5s3.36,7.5,7.5,7.5,7.5-3.36,7.5-7.5-3.36-7.5-7.5-7.5h0Z"/>
    </g>
    <g>
      <circle class="cls-4" cx="75" cy="75" r="6"/>
      <path class="cls-3" d="M75,70.5c2.48,0,4.5,2.02,4.5,4.5s-2.02,4.5-4.5,4.5-4.5-2.02-4.5-4.5,2.02-4.5,4.5-4.5M75,67.5c-4.14,0-7.5,3.36-7.5,7.5s3.36,7.5,7.5,7.5,7.5-3.36,7.5-7.5-3.36-7.5-7.5-7.5h0Z"/>
    </g>
  </g>
</svg>