<?xml version="1.0" encoding="utf-8"?>
<!-- Generator: $$$/GeneralStr/196=Adobe Illustrator 27.6.0, SVG Export Plug-In . SVG Version: 6.00 Build 0)  -->
<svg version="1.1" id="Layer_1" xmlns="http://www.w3.org/2000/svg" xmlns:xlink="http://www.w3.org/1999/xlink" x="0px" y="0px"
	 viewBox="0 0 200 200" style="enable-background:new 0 0 200 200;" xml:space="preserve">
<style type="text/css">
	.st0{fill:#68004B;}
	.st1{fill:#FF99E2;}
	.st2{fill:#FF00AA;}
	.st3{fill:#FFFFFF;}
</style>
<path class="st0" d="M131.89,150.01H34.33c-16.57,0-30-13.43-30-30v-40c0-16.57,13.43-30,30-30h97.56V150.01z"/>
<path class="st1" d="M131.89,50.01h33.78c16.57,0,30,13.43,30,30v40c0,16.57-13.43,30-30,30h-33.78V50.01z"/>
<polygon class="st2" points="158.56,80.88 169,80.88 169,94.8 182.91,94.8 182.91,105.23 169,105.23 169,119.15 158.56,119.15 
	158.56,105.23 144.65,105.23 144.65,94.8 158.56,94.8 "/>
<g>
	<path class="st3" d="M88.05,78.6H98.7v42.83H85.32V102.5L71.7,121.43h-7.18l-13.79-19.09v19.09H37.52V78.6h10.9l19.9,28.31
		L88.05,78.6z"/>
</g>
</svg>
