<?xml version="1.0" encoding="UTF-8"?>
<svg id="light" xmlns="http://www.w3.org/2000/svg" viewBox="0 0 100 100">
  <defs>
    <style>
      .cls-1 {
        fill: #68004b;
      }

      .cls-2 {
        fill: #fafafa;
      }
    </style>
  </defs>
  <rect class="cls-2" x="5" y="5" width="90" height="90" rx="16" ry="16"/>
  <g>
    <g>
      <polygon class="cls-1" points="71.57 54.46 73.9 56.79 81.71 64.6 81.87 64.6 81.87 64.78 82.67 65.57 85 67.9 82.67 70.23 81.87 71.02 81.87 71.16 81.7 71.16 73.88 78.97 71.55 81.3 66.92 76.64 69.25 74.31 72.4 71.16 58.85 71.16 57.21 71.16 56.22 69.85 30.89 36.08 18.29 36.08 15 36.08 15 29.5 18.29 29.5 32.54 29.5 34.18 29.5 35.17 30.82 60.5 64.58 72.4 64.58 69.25 61.43 66.92 59.1 71.57 54.46"/>
      <polygon class="cls-1" points="73.9 21.69 81.71 29.5 81.87 29.5 81.87 29.68 82.67 30.47 85 32.8 82.67 35.13 81.87 35.93 81.87 36.08 81.7 36.08 73.88 43.89 71.55 46.22 66.92 41.56 69.25 39.23 72.4 36.08 60.5 36.08 52.55 46.67 48.44 41.19 56.22 30.82 57.21 29.5 58.85 29.5 72.4 29.5 69.25 26.35 66.92 24.02 71.57 19.37 73.9 21.7 73.9 21.69"/>
    </g>
    <path class="cls-1" d="M47.49,76.18l-13.32-26.65c-.53-1.05-1.59-1.7-2.75-1.7h0c-1.17-.01-2.23.65-2.75,1.69l-13.32,26.65c-.77,1.52-.15,3.36,1.37,4.13s3.37.15,4.13-1.37l2.23-4.45h16.71l2.23,4.46c.76,1.51,2.61,2.13,4.13,1.37,1.51-.76,2.13-2.6,1.37-4.13ZM26.13,68.33l5.28-10.55,5.27,10.55h-10.55Z"/>
  </g>
</svg>