<?xml version="1.0" encoding="UTF-8"?>
<svg id="light" xmlns="http://www.w3.org/2000/svg" viewBox="0 0 100 100">
  <defs>
    <style>
      .cls-1 {
        fill: #68004b;
      }

      .cls-2 {
        fill: none;
        stroke: #68004b;
        stroke-miterlimit: 10;
        stroke-width: 3px;
      }

      .cls-3 {
        fill: #fafafa;
      }
    </style>
  </defs>
  <rect class="cls-3" x="5" y="5" width="90" height="90" rx="16" ry="16"/>
  <polyline class="cls-2" points="82.4 57.61 17.6 57.61 35.88 75.88 54.15 57.61"/>
  <g>
    <path class="cls-1" d="M28.63,34.16v2.64h-4.24v4.03h-2.66v-4.03h-4.24v-2.64h4.24v-4.03h2.66v4.03h4.24ZM17.5,42.16h11.13v2.64h-11.13v-2.64Z"/>
    <path class="cls-1" d="M38.34,47.12c-2.22,0-3.91-.82-5.05-2.47s-1.71-4.04-1.71-7.18.57-5.55,1.71-7.19,2.82-2.46,5.05-2.46,3.91.82,5.05,2.46,1.71,4.03,1.71,7.19-.57,5.53-1.71,7.18-2.82,2.47-5.05,2.47ZM38.34,44.37c1.2,0,2.07-.55,2.6-1.66.53-1.1.8-2.85.8-5.24s-.27-4.13-.8-5.24c-.53-1.1-1.4-1.66-2.6-1.66s-2.07.55-2.6,1.66c-.53,1.1-.8,2.85-.8,5.24s.27,4.13.8,5.24c.53,1.1,1.4,1.66,2.6,1.66Z"/>
    <path class="cls-1" d="M49.4,43.06c.59,0,1.06.18,1.41.53s.53.82.53,1.41-.18,1.06-.53,1.41-.82.53-1.41.53-1.06-.18-1.41-.53-.53-.82-.53-1.41.18-1.06.53-1.41.82-.53,1.41-.53Z"/>
    <path class="cls-1" d="M60.47,47.12c-2.22,0-3.91-.82-5.05-2.47s-1.71-4.04-1.71-7.18.57-5.55,1.71-7.19,2.82-2.46,5.05-2.46,3.91.82,5.05,2.46,1.71,4.03,1.71,7.19-.57,5.53-1.71,7.18-2.82,2.47-5.05,2.47ZM60.47,44.37c1.2,0,2.07-.55,2.6-1.66.53-1.1.8-2.85.8-5.24s-.27-4.13-.8-5.24c-.53-1.1-1.4-1.66-2.6-1.66s-2.07.55-2.6,1.66c-.53,1.1-.8,2.85-.8,5.24s.27,4.13.8,5.24c.53,1.1,1.4,1.66,2.6,1.66Z"/>
    <path class="cls-1" d="M75.74,47.12c-2.22,0-3.91-.82-5.05-2.47-1.14-1.64-1.71-4.04-1.71-7.18s.57-5.55,1.71-7.19c1.14-1.64,2.82-2.46,5.05-2.46s3.9.82,5.05,2.46c1.14,1.64,1.71,4.03,1.71,7.19s-.57,5.53-1.71,7.18c-1.14,1.64-2.82,2.47-5.05,2.47ZM75.74,44.37c1.2,0,2.07-.55,2.6-1.66.53-1.1.8-2.85.8-5.24s-.27-4.13-.8-5.24c-.53-1.1-1.4-1.66-2.6-1.66s-2.07.55-2.6,1.66c-.53,1.1-.8,2.85-.8,5.24s.27,4.13.8,5.24c.53,1.1,1.4,1.66,2.6,1.66Z"/>
  </g>
</svg>