<?xml version="1.0" encoding="UTF-8"?>
<svg id="light" xmlns="http://www.w3.org/2000/svg" viewBox="0 0 100 100">
  <defs>
    <style>
      .cls-1 {
        opacity: .3;
      }

      .cls-2 {
        stroke-linecap: round;
      }

      .cls-2, .cls-3 {
        fill: none;
        stroke: #68004b;
        stroke-miterlimit: 10;
        stroke-width: 3px;
      }

      .cls-4 {
        fill: #fff;
      }

      .cls-5 {
        fill: #68004b;
      }

      .cls-6 {
        fill: #fafafa;
      }

      .cls-3 {
        stroke-linecap: square;
      }
    </style>
  </defs>
  <rect class="cls-6" x="5" y="5" width="90" height="90" rx="16" ry="16"/>
  <g class="cls-1">
    <polygon class="cls-3" points="23.9 65.07 36.95 72.61 50 80.14 63.05 72.61 76.1 65.07 76.1 50 76.1 34.93 63.05 27.39 50 19.86 36.95 27.39 23.9 34.93 23.9 50 23.9 65.07"/>
    <line class="cls-2" x1="50" y1="50" x2="23.9" y2="34.93"/>
    <line class="cls-2" x1="50" y1="80.14" x2="50" y2="50"/>
    <line class="cls-2" x1="76.1" y1="34.93" x2="50" y2="50"/>
  </g>
  <g>
    <circle class="cls-4" cx="50" cy="19.86" r="5"/>
    <circle class="cls-4" cx="23.9" cy="34.93" r="5"/>
    <circle class="cls-4" cx="23.9" cy="65.07" r="5"/>
    <circle class="cls-4" cx="50" cy="80.14" r="5"/>
    <circle class="cls-4" cx="49.78" cy="49.78" r="5"/>
    <circle class="cls-4" cx="76.1" cy="34.93" r="5"/>
    <circle class="cls-4" cx="76.1" cy="65.07" r="5"/>
  </g>
  <polygon class="cls-5" points="71.52 74.13 62.61 85 62.61 55 85 74.13 71.52 74.13"/>
  <g class="cls-1">
    <path class="cls-5" d="M50,16.86c.8,0,1.55.31,2.12.88,1.17,1.17,1.17,3.07,0,4.24-.57.57-1.32.88-2.12.88s-1.55-.31-2.12-.88c-.57-.57-.88-1.32-.88-2.12s.31-1.55.88-2.12c.57-.57,1.32-.88,2.12-.88M50,14.86c-1.28,0-2.56.49-3.54,1.46-1.95,1.95-1.95,5.12,0,7.07.98.98,2.26,1.46,3.54,1.46s2.56-.49,3.54-1.46c1.95-1.95,1.95-5.12,0-7.07-.98-.98-2.26-1.46-3.54-1.46h0Z"/>
    <path class="cls-5" d="M23.9,31.93c.8,0,1.55.31,2.12.88.57.57.88,1.32.88,2.12s-.31,1.55-.88,2.12c-.57.57-1.32.88-2.12.88s-1.55-.31-2.12-.88-.88-1.32-.88-2.12.31-1.55.88-2.12c.57-.57,1.32-.88,2.12-.88M23.9,29.93c-1.28,0-2.56.49-3.54,1.46-1.95,1.95-1.95,5.12,0,7.07.98.98,2.26,1.46,3.54,1.46s2.56-.49,3.54-1.46c1.95-1.95,1.95-5.12,0-7.07-.98-.98-2.26-1.46-3.54-1.46h0Z"/>
    <path class="cls-5" d="M23.9,62.07c.8,0,1.55.31,2.12.88.57.57.88,1.32.88,2.12s-.31,1.55-.88,2.12c-.57.57-1.32.88-2.12.88s-1.55-.31-2.12-.88-.88-1.32-.88-2.12.31-1.55.88-2.12c.57-.57,1.32-.88,2.12-.88M23.9,60.07c-1.28,0-2.56.49-3.54,1.46-1.95,1.95-1.95,5.12,0,7.07.98.98,2.26,1.46,3.54,1.46s2.56-.49,3.54-1.46c1.95-1.95,1.95-5.12,0-7.07-.98-.98-2.26-1.46-3.54-1.46h0Z"/>
    <path class="cls-5" d="M50,77.14c.8,0,1.55.31,2.12.88s.88,1.32.88,2.12-.31,1.55-.88,2.12c-.57.57-1.32.88-2.12.88s-1.55-.31-2.12-.88-.88-1.32-.88-2.12.31-1.55.88-2.12c.57-.57,1.32-.88,2.12-.88M50,75.14c-1.28,0-2.56.49-3.54,1.46-1.95,1.95-1.95,5.12,0,7.07.98.98,2.26,1.46,3.54,1.46s2.56-.49,3.54-1.46c1.95-1.95,1.95-5.12,0-7.07-.98-.98-2.26-1.46-3.54-1.46h0Z"/>
    <path class="cls-5" d="M76.1,31.93c.8,0,1.55.31,2.12.88,1.17,1.17,1.17,3.07,0,4.24-.57.57-1.32.88-2.12.88s-1.55-.31-2.12-.88-.88-1.32-.88-2.12.31-1.55.88-2.12c.57-.57,1.32-.88,2.12-.88M76.1,29.93c-1.28,0-2.56.49-3.54,1.46-1.95,1.95-1.95,5.12,0,7.07.98.98,2.26,1.46,3.54,1.46s2.56-.49,3.54-1.46c1.95-1.95,1.95-5.12,0-7.07-.98-.98-2.26-1.46-3.54-1.46h0Z"/>
    <path class="cls-5" d="M76.1,62.07c.8,0,1.55.31,2.12.88,1.17,1.17,1.17,3.07,0,4.24-.57.57-1.32.88-2.12.88s-1.55-.31-2.12-.88-.88-1.32-.88-2.12.31-1.55.88-2.12c.57-.57,1.32-.88,2.12-.88M76.1,60.07c-1.28,0-2.56.49-3.54,1.46-1.95,1.95-1.95,5.12,0,7.07.98.98,2.26,1.46,3.54,1.46s2.56-.49,3.54-1.46c1.95-1.95,1.95-5.12,0-7.07-.98-.98-2.26-1.46-3.54-1.46h0Z"/>
  </g>
  <circle class="cls-5" cx="49.78" cy="49.78" r="5"/>
</svg>