<?xml version="1.0" encoding="UTF-8"?>
<svg id="light" xmlns="http://www.w3.org/2000/svg" viewBox="0 0 100 100">
  <defs>
    <style>
      .cls-1 {
        fill: #68004b;
      }

      .cls-2 {
        fill: #fafafa;
      }
    </style>
  </defs>
  <rect class="cls-2" x="5" y="5" width="90" height="90" rx="16" ry="16"/>
  <g>
    <g>
      <circle class="cls-1" cx="70" cy="80" r="5"/>
      <circle class="cls-1" cx="50" cy="80" r="5"/>
      <path class="cls-1" d="M25,80c0-2.76,2.24-5,5-5s5,2.24,5,5-2.24,5-5,5-5-2.24-5-5Z"/>
    </g>
    <path class="cls-1" d="M52.54,62.45l-2.54,2.55-2.54-2.54-16.17-16.17-2.55-2.55,5.09-5.08,2.54,2.54,10.04,10.04V15h7.19v36.23l10.04-10.04,2.54-2.53,5.09,5.08-2.54,2.54-16.17,16.17h-.01Z"/>
  </g>
</svg>