<?xml version="1.0" encoding="UTF-8"?>
<svg id="light" xmlns="http://www.w3.org/2000/svg" viewBox="0 0 100 100">
  <defs>
    <style>
      .cls-1 {
        fill: #68004b;
      }

      .cls-2 {
        fill: #fafafa;
      }
    </style>
  </defs>
  <rect class="cls-2" x="5" y="5" width="90" height="90" rx="16" ry="16"/>
  <path class="cls-1" d="M84.1,65.9l-29.2-19.73,2.72-1.98c3.46-2.52,5.51-6.54,5.51-10.82v-.34c0-7.2-5.84-13.03-13.03-13.03-6.3,0-11.7,4.5-12.82,10.7l-.35,1.92c-.28,1.52.74,2.99,2.26,3.27,1.52.28,2.99-.74,3.27-2.26l.35-1.92c.64-3.53,3.7-6.08,7.29-6.08,4.09,0,7.41,3.32,7.41,7.39v.34c0,2.48-1.18,4.82-3.19,6.27l-5.93,4.31-32.48,21.96c-2.12,1.43-3.4,3.82-3.4,6.39,0,4.25,3.46,7.71,7.71,7.71h59.58c4.25,0,7.71-3.46,7.71-7.71,0-2.56-1.28-4.96-3.4-6.39ZM79.79,74.37H20.21c-1.15,0-2.09-.94-2.09-2.09,0-.69.34-1.34.91-1.72l30.96-20.92,30.96,20.92c.57.39.91,1.03.91,1.72,0,1.15-.94,2.09-2.09,2.09Z"/>
</svg>