<?xml version="1.0" encoding="UTF-8"?>
<svg id="light" xmlns="http://www.w3.org/2000/svg" viewBox="0 0 100 100">
  <defs>
    <style>
      .cls-1 {
        opacity: .3;
      }

      .cls-1, .cls-2 {
        fill: #68004b;
      }

      .cls-3, .cls-4, .cls-5 {
        fill: none;
        stroke-linecap: round;
      }

      .cls-3, .cls-5 {
        stroke: #68004b;
        stroke-miterlimit: 10;
      }

      .cls-4 {
        stroke: #000;
        stroke-linejoin: round;
      }

      .cls-2 {
        opacity: .6;
      }

      .cls-6 {
        fill: #fafafa;
      }

      .cls-5 {
        stroke-width: 2px;
      }
    </style>
  </defs>
  <rect class="cls-6" x="5" y="5" width="90" height="90" rx="16" ry="16"/>
  <g>
    <g>
      <line class="cls-5" x1="21.82" y1="23.75" x2="61.81" y2="43.82"/>
      <line class="cls-5" x1="61.81" y1="43.82" x2="78.18" y2="37.57"/>
      <line class="cls-5" x1="61.81" y1="82.5" x2="61.81" y2="43.82"/>
      <polygon class="cls-5" points="61.81 82.5 78.18 76.25 78.18 37.57 38.19 17.5 21.82 23.75 21.82 62.43 61.81 82.5"/>
    </g>
    <g>
      <path class="cls-2" d="M72.19,73.24l-.88,5.64c-9.56-.19-20.67-2.29-28.36-5.86-7.69-3.57-11.97-8.61-11.74-12.93l.1-1.28V22.95c.72,3.93,4.85,8.23,11.64,11.39,7.69,3.57,18.8,5.67,28.36,5.86v33.01l.88.03Z"/>
      <line class="cls-4" x1="31.21" y1="60.08" x2="31.21" y2="21.41"/>
      <path class="cls-1" d="M72.19,34.56l-.88,5.64c-9.56-.19-20.67-2.29-28.36-5.86-6.79-3.15-10.92-7.45-11.64-11.39v-2.82l12.88.39c-.24,1.54.14,3.24,1.36,4.9,1.22,1.66,3.27,3.29,5.99,4.66,2.73,1.37,6.13,2.48,9.73,3.23,3.6.75,7.38,1.15,10.92,1.25Z"/>
      <line class="cls-4" x1="31.31" y1="20.13" x2="31.21" y2="21.41"/>
      <path class="cls-4" d="M31.31,22.95c-.05-.27-.08-.54-.1-.81-.01-.25-.01-.49,0-.73"/>
      <g>
        <line class="cls-3" x1="71.31" y1="40.2" x2="71.31" y2="78.87"/>
        <line class="cls-3" x1="31.31" y1="20.13" x2="31.31" y2="58.8"/>
        <line class="cls-3" x1="71.31" y1="73.21" x2="72.18" y2="73.24"/>
        <path class="cls-3" d="M31.21,60.08c-.23,4.31,4.05,9.36,11.74,12.93,7.69,3.57,18.8,5.67,28.35,5.86"/>
        <line class="cls-3" x1="31.21" y1="60.08" x2="31.21" y2="21.41"/>
        <line class="cls-3" x1="72.18" y1="34.56" x2="71.31" y2="40.2"/>
        <path class="cls-3" d="M44.19,20.51c-.25,1.55.14,3.24,1.36,4.9,1.22,1.66,3.27,3.29,6,4.66,2.73,1.37,6.13,2.48,9.73,3.23,3.6.75,7.38,1.15,10.91,1.25"/>
        <line class="cls-3" x1="31.31" y1="20.13" x2="44.19" y2="20.51"/>
        <line class="cls-3" x1="72.18" y1="73.24" x2="71.31" y2="78.87"/>
        <line class="cls-3" x1="31.31" y1="20.13" x2="31.21" y2="21.41"/>
        <line class="cls-3" x1="31.31" y1="58.8" x2="31.21" y2="60.08"/>
        <path class="cls-3" d="M31.21,21.41c-.23,4.31,4.05,9.36,11.74,12.93,7.69,3.57,18.8,5.67,28.35,5.86"/>
      </g>
    </g>
  </g>
</svg>