<?xml version="1.0" encoding="UTF-8"?>
<svg id="light" xmlns="http://www.w3.org/2000/svg" viewBox="0 0 100 100">
  <defs>
    <style>
      .cls-1 {
        opacity: .3;
      }

      .cls-1, .cls-2 {
        fill: #68004b;
      }

      .cls-3 {
        fill: #fafafa;
      }
    </style>
  </defs>
  <rect class="cls-3" x="5" y="5" width="90" height="90" rx="16" ry="16"/>
  <g>
    <path class="cls-1" d="M17.57,79.03s.19.07.28.09c.19.06.43.13.76.22.64.18,1.56.42,2.66.67,2.18.49,5.14.98,8.14.98,14.45,0,24.54-7.36,33.67-16.49.73-.73.73-1.92,0-2.65l-14.77-14.77-1.32-1.32-1.32,1.32-28.83,28.83c-.47.46-.66,1.12-.5,1.76s.61,1.14,1.23,1.35"/>
    <path class="cls-2" d="M81.65,27.44l-5.24-5.24c-.79-.77-1.83-1.21-2.93-1.21s-2.14.43-2.93,1.21l-20.91,20.92,1.32,1.32,12.23,12.22,3.63-2.02c1.79-1,2.89-2.88,2.89-4.92v-3.74c0-.49.2-.97.55-1.32l11.37-11.37c.77-.79,1.21-1.83,1.21-2.93s-.43-2.16-1.21-2.93ZM66.92,39.74c-1.04,0-1.88-.84-1.88-1.88s.84-1.88,1.88-1.88,1.88.84,1.88,1.88-.84,1.88-1.88,1.88ZM74.42,32.24c-1.04,0-1.88-.84-1.88-1.88s.84-1.88,1.88-1.88,1.88.84,1.88,1.88-.84,1.88-1.88,1.88Z"/>
  </g>
</svg>