<?xml version="1.0" encoding="UTF-8"?>
<svg id="default" xmlns="http://www.w3.org/2000/svg" viewBox="0 0 100 100">
  <defs>
    <style>
      .cls-1 {
        fill: #68004b;
      }

      .cls-2 {
        fill: #fafafa;
      }
    </style>
  </defs>
  <rect class="cls-2" x="5" y="5" width="90" height="90" rx="16" ry="16"/>
  <path class="cls-1" d="M38.42,78.25c1.26,1.18,3.24,1.11,4.42-.16,1.12-1.2,1.12-3.06,0-4.26l-7.17-7.17h36.21c1.73,0,3.12-1.4,3.12-3.12s-1.4-3.12-3.12-3.12h-36.21l7.17-7.17c1.18-1.26,1.11-3.24-.16-4.42-1.2-1.12-3.06-1.12-4.26,0l-12.5,12.5c-1.22,1.22-1.22,3.2,0,4.42l12.5,12.5ZM61.58,51.17c-1.18,1.26-3.15,1.33-4.42.16-1.26-1.18-1.33-3.15-.16-4.42.05-.05.1-.11.16-.16l7.17-7.17H28.12c-1.73,0-3.12-1.4-3.12-3.12s1.4-3.12,3.12-3.12h36.21l-7.17-7.17c-1.18-1.26-1.11-3.24.16-4.42,1.2-1.12,3.06-1.12,4.26,0l12.5,12.5c1.22,1.22,1.22,3.2,0,4.42,0,0-12.5,12.5-12.5,12.5Z"/>
</svg>