<?xml version="1.0" encoding="UTF-8"?>
<svg id="light" xmlns="http://www.w3.org/2000/svg" viewBox="0 0 100 100">
  <defs>
    <style>
      .cls-1 {
        fill: #68004b;
      }

      .cls-2 {
        fill: #fafafa;
      }
    </style>
  </defs>
  <rect class="cls-2" x="5" y="5" width="90" height="90" rx="16" ry="16"/>
  <path class="cls-1" d="M71.42,67.46l-5.87-5.87,5.84-5.84c1.22-1.22,1.22-3.2,0-4.42l-2.21-2.21c-1.22-1.22-3.2-1.22-4.42,0l-5.84,5.84-6.54-6.53c3.88-2.12,6.54-6.19,6.54-10.92,0-6.9-5.6-12.5-12.5-12.5h-15.62c-1.73,0-3.12,1.4-3.12,3.12v31.25c0,1.73,1.4,3.12,3.12,3.12h3.12c1.73,0,3.12-1.4,3.12-3.12v-9.37h3.66l11.59,11.58-5.87,5.87c-1.22,1.22-1.22,3.2,0,4.42l2.21,2.21c1.22,1.22,3.2,1.22,4.42,0l5.87-5.87,5.87,5.87c1.22,1.22,3.2,1.22,4.42,0l2.21-2.21c1.22-1.22,1.22-3.2,0-4.42ZM46.42,40.62h-9.37v-6.25h9.37c1.72,0,3.12,1.4,3.12,3.12s-1.4,3.12-3.12,3.12Z"/>
</svg>