<?xml version="1.0" encoding="UTF-8"?>
<svg id="light" xmlns="http://www.w3.org/2000/svg" viewBox="0 0 100 100">
  <defs>
    <style>
      .cls-1 {
        fill: #68004b;
      }

      .cls-2 {
        fill: #fafafa;
      }
    </style>
  </defs>
  <rect class="cls-2" x="5" y="5" width="90" height="90" rx="16" ry="16"/>
  <g>
    <path class="cls-1" d="M17.5,49.88v-20.24h42.95c-2.06-2-4.07-3.95-6-5.83,2.09-2.1,3.97-3.98,5.91-5.92,5.18,5.15,10.45,10.4,15.82,15.75-5.38,5.34-10.66,10.59-15.89,15.79-1.9-1.9-3.77-3.76-5.73-5.73,1.93-1.92,3.92-3.91,5.97-5.95H25.56v12.13h-8.06Z"/>
    <path class="cls-1" d="M39.52,70.25c2.1,2.06,4.1,4.03,6.07,5.96-2.05,2.05-3.92,3.92-5.88,5.88-5.21-5.24-10.46-10.52-15.76-15.86,5.3-5.31,10.55-10.59,15.77-15.81,1.93,1.93,3.8,3.79,5.76,5.75-1.92,1.93-3.9,3.92-5.93,5.96h34.93v-12.12h8.03v20.23h-42.98Z"/>
  </g>
</svg>