<?xml version="1.0" encoding="UTF-8"?>
<svg id="light" xmlns="http://www.w3.org/2000/svg" viewBox="0 0 100 100">
  <defs>
    <style>
      .cls-1, .cls-2 {
        fill: #68004b;
      }

      .cls-2 {
        opacity: .6;
      }

      .cls-3 {
        fill: #fafafa;
      }
    </style>
  </defs>
  <rect class="cls-3" x="5" y="5" width="90" height="90" rx="16" ry="16"/>
  <g>
    <rect class="cls-2" x="23.19" y="31.04" width="53.62" height="37.92"/>
    <path class="cls-1" d="M31.23,82.5c2.2-1.56,5-2.97,8.23-3.95,3.23-.98,6.88-1.54,10.54-1.54s7.32.56,10.54,1.54,6.02,2.39,8.23,3.95c0,0,8.04-5.69,8.04-5.69-6.09-4.54-16.45-7.85-26.81-7.85s-20.72,3.31-26.81,7.85c0,0,8.04,5.69,8.04,5.69Z"/>
    <path class="cls-1" d="M31.23,17.5c2.2,1.56,5,2.97,8.23,3.95,3.23.98,6.88,1.54,10.54,1.54s7.32-.56,10.54-1.54,6.02-2.39,8.23-3.95c0,0,8.04,5.69,8.04,5.69-6.09,4.54-16.45,7.85-26.81,7.85s-20.72-3.31-26.81-7.85c0,0,8.04-5.69,8.04-5.69Z"/>
  </g>
</svg>