<?xml version="1.0" encoding="UTF-8"?>
<svg id="light" xmlns="http://www.w3.org/2000/svg" viewBox="0 0 100 100">
  <defs>
    <style>
      .cls-1 {
        fill: #68004b;
      }

      .cls-2 {
        fill: #fafafa;
      }

      .cls-3 {
        fill: none;
        stroke: #68004b;
        stroke-miterlimit: 10;
        stroke-width: 6px;
      }
    </style>
  </defs>
  <rect class="cls-2" x="5" y="5" width="90" height="90" rx="16" ry="16"/>
  <g>
    <polyline class="cls-3" points="65.77 77.32 34.23 59.11 34.23 22.68"/>
    <line class="cls-3" x1="65.77" y1="40.89" x2="34.23" y2="59.11"/>
    <g>
      <g>
        <path class="cls-2" d="M65.77,82.55c-.06,0-.12,0-.19,0-1.34,0-2.69-.64-3.7-1.76-.92-1.01-1.4-2.27-1.35-3.47-.05-1.2.43-2.46,1.35-3.47,1.01-1.12,2.36-1.76,3.7-1.76.06,0,.12,0,.19,0,.06,0,.12,0,.19,0,1.34,0,2.69.64,3.7,1.76.92,1.01,1.4,2.27,1.35,3.47.05,1.2-.43,2.46-1.35,3.47-1.01,1.12-2.36,1.76-3.7,1.76,0,0-.12,0-.19,0Z"/>
        <path class="cls-1" d="M65.96,74.32c1.42,0,2.95,1.59,2.8,3,.14,1.41-1.38,3-2.8,3-.06,0-.12,0-.19,0-.06,0-.12,0-.19,0-1.42,0-2.95-1.59-2.8-3-.14-1.41,1.38-3,2.8-3,.06,0,.12,0,.19,0,.06,0,.12,0,.19,0M65.96,69.85c-.06,0-.12,0-.19,0-.06,0-.12,0-.19,0-1.97,0-3.92.91-5.36,2.5-1.29,1.42-1.97,3.21-1.92,4.97-.05,1.76.64,3.55,1.92,4.97,1.44,1.59,3.39,2.5,5.36,2.5.06,0,.12,0,.19,0,.06,0,.12,0,.19,0,1.97,0,3.92-.91,5.36-2.5,1.29-1.42,1.97-3.21,1.92-4.97.05-1.76-.64-3.55-1.92-4.97-1.44-1.59-3.39-2.5-5.36-2.5h0Z"/>
      </g>
      <g>
        <path class="cls-2" d="M65.77,46.13c-.06,0-.12,0-.19,0-1.34,0-2.69-.64-3.7-1.76-.92-1.01-1.4-2.27-1.35-3.47-.05-1.2.43-2.46,1.35-3.47,1.01-1.12,2.36-1.76,3.7-1.76.06,0,.12,0,.19,0,.06,0,.12,0,.19,0,1.34,0,2.69.64,3.7,1.76.92,1.01,1.4,2.27,1.35,3.47.05,1.2-.43,2.46-1.35,3.47-1.01,1.12-2.36,1.76-3.7,1.76,0,0-.12,0-.19,0Z"/>
        <path class="cls-1" d="M65.96,37.89c1.42,0,2.95,1.59,2.8,3,.14,1.41-1.38,3-2.8,3-.06,0-.12,0-.19,0-.06,0-.12,0-.19,0-1.42,0-2.95-1.59-2.8-3-.14-1.41,1.38-3,2.8-3,.06,0,.12,0,.19,0,.06,0,.12,0,.19,0M65.96,33.43c-.06,0-.12,0-.19,0-.06,0-.12,0-.19,0-1.97,0-3.92.91-5.36,2.5-1.29,1.42-1.97,3.21-1.92,4.97-.05,1.76.64,3.55,1.92,4.97,1.44,1.59,3.39,2.5,5.36,2.5.06,0,.12,0,.19,0,.06,0,.12,0,.19,0,1.97,0,3.92-.91,5.36-2.5,1.29-1.42,1.97-3.21,1.92-4.97.05-1.76-.64-3.55-1.92-4.97-1.44-1.59-3.39-2.5-5.36-2.5h0Z"/>
      </g>
      <g>
        <path class="cls-2" d="M34.23,27.92c-.06,0-.12,0-.19,0-1.34,0-2.69-.64-3.7-1.76-.92-1.01-1.4-2.27-1.35-3.47-.05-1.2.43-2.46,1.35-3.47,1.01-1.12,2.36-1.76,3.7-1.76.06,0,.12,0,.19,0,.06,0,.12,0,.19,0,1.34,0,2.69.64,3.7,1.76.92,1.01,1.4,2.27,1.35,3.47.05,1.2-.43,2.46-1.35,3.47-1.01,1.12-2.36,1.76-3.7,1.76,0,0-.12,0-.19,0Z"/>
        <path class="cls-1" d="M34.42,19.68c1.42,0,2.95,1.59,2.8,3,.14,1.41-1.38,3-2.8,3-.06,0-.12,0-.19,0-.06,0-.12,0-.19,0-1.42,0-2.95-1.59-2.8-3-.14-1.41,1.38-3,2.8-3,.06,0,.12,0,.19,0,.06,0,.12,0,.19,0M34.42,15.21c-.06,0-.12,0-.19,0-.06,0-.12,0-.19,0-1.97,0-3.92.91-5.36,2.5-1.29,1.42-1.97,3.21-1.92,4.97-.05,1.76.64,3.55,1.92,4.97,1.44,1.59,3.39,2.5,5.36,2.5.06,0,.12,0,.19,0,.06,0,.12,0,.19,0,1.97,0,3.92-.91,5.36-2.5,1.29-1.42,1.97-3.21,1.92-4.97.05-1.76-.64-3.55-1.92-4.97-1.44-1.59-3.39-2.5-5.36-2.5h0Z"/>
      </g>
    </g>
  </g>
</svg>