<?xml version="1.0" encoding="UTF-8"?>
<svg id="light" xmlns="http://www.w3.org/2000/svg" viewBox="0 0 100 100">
  <defs>
    <style>
      .cls-1 {
        stroke-width: 3px;
      }

      .cls-1, .cls-2, .cls-3, .cls-4, .cls-5 {
        fill: none;
        stroke: #68004b;
        stroke-linecap: round;
        stroke-linejoin: round;
      }

      .cls-2, .cls-6, .cls-7 {
        opacity: .3;
      }

      .cls-2, .cls-3, .cls-5 {
        stroke-width: 2px;
      }

      .cls-6, .cls-8 {
        fill: #68004b;
      }

      .cls-4 {
        stroke-width: 4px;
      }

      .cls-7, .cls-9 {
        fill: #fff;
      }

      .cls-8, .cls-5, .cls-9 {
        opacity: .6;
      }

      .cls-10 {
        fill: #fafafa;
      }
    </style>
  </defs>
  <rect class="cls-10" x="5" y="5" width="90" height="90" rx="16" ry="16"/>
  <g>
    <g>
      <polygon class="cls-9" points="67.5 17.34 50 42.24 15 62.45 32.5 37.55 67.5 17.34"/>
      <polygon class="cls-7" points="85 62.45 50 82.66 15 62.45 50 42.24 85 62.45"/>
      <polygon class="cls-6" points="67.5 17.34 50 42.24 15 62.45 32.5 37.55 67.5 17.34"/>
      <polygon class="cls-8" points="85 62.45 50 82.66 15 62.45 50 42.24 85 62.45"/>
    </g>
    <g>
      <polygon class="cls-5" points="67.5 17.34 50 42.24 15 62.45 32.5 37.55 67.5 17.34"/>
      <polygon class="cls-2" points="85 62.45 50 82.66 15 62.45 50 42.24 85 62.45"/>
      <polygon class="cls-3" points="67.5 17.34 50 42.24 15 62.45 32.5 37.55 67.5 17.34"/>
      <polygon class="cls-3" points="85 62.45 50 82.66 15 62.45 50 42.24 85 62.45"/>
    </g>
    <polyline class="cls-4" points="67.5 17.34 50 42.24 85 62.45"/>
    <path class="cls-1" d="M57.14,31.75c6.25,2.88,9.36,10.11,7,16.7"/>
  </g>
</svg>