<?xml version="1.0" encoding="UTF-8"?>
<svg id="light" xmlns="http://www.w3.org/2000/svg" viewBox="0 0 100 100">
  <defs>
    <style>
      .cls-1 {
        opacity: .3;
      }

      .cls-1, .cls-2 {
        fill: #68004b;
      }

      .cls-3 {
        stroke-width: 2px;
      }

      .cls-3, .cls-4 {
        fill: none;
        stroke: #68004b;
        stroke-linecap: round;
        stroke-linejoin: round;
      }

      .cls-5 {
        fill: #fafafa;
      }
    </style>
  </defs>
  <rect class="cls-5" x="5" y="5" width="90" height="90" rx="16" ry="16"/>
  <g>
    <g>
      <polygon class="cls-1" points="75.64 21.3 75.64 42.11 54.19 54.49 54.19 33.69 75.64 21.3"/>
      <polygon class="cls-1" points="54.19 33.69 54.19 54.49 24.36 58.28 24.36 37.47 54.19 33.69"/>
      <polygon class="cls-1" points="75.64 42.11 75.64 62.92 54.19 75.3 54.19 54.49 75.64 42.11"/>
      <polygon class="cls-1" points="54.19 54.49 54.19 75.3 24.36 79.09 24.36 58.28 54.19 54.49"/>
    </g>
    <g>
      <line class="cls-3" x1="75.64" y1="21.3" x2="54.19" y2="33.69"/>
      <line class="cls-3" x1="24.36" y1="37.47" x2="54.19" y2="33.69"/>
      <line class="cls-4" x1="24.36" y1="58.28" x2="24.36" y2="37.47"/>
      <line class="cls-4" x1="54.19" y1="54.49" x2="54.19" y2="33.69"/>
      <line class="cls-4" x1="75.64" y1="42.11" x2="75.64" y2="21.3"/>
      <line class="cls-3" x1="75.64" y1="42.11" x2="54.19" y2="54.49"/>
      <line class="cls-3" x1="75.64" y1="62.92" x2="54.19" y2="75.3"/>
      <line class="cls-4" x1="24.36" y1="79.09" x2="24.36" y2="58.28"/>
      <line class="cls-3" x1="24.36" y1="79.09" x2="54.19" y2="75.3"/>
      <line class="cls-3" x1="24.36" y1="58.28" x2="54.19" y2="54.49"/>
      <line class="cls-4" x1="54.19" y1="75.3" x2="54.19" y2="54.49"/>
      <line class="cls-4" x1="75.64" y1="62.92" x2="75.64" y2="42.11"/>
    </g>
    <g>
      <g>
        <circle class="cls-5" cx="24.36" cy="37.47" r="4"/>
        <path class="cls-2" d="M24.36,34.47c1.65,0,3,1.35,3,3s-1.35,3-3,3-3-1.35-3-3,1.35-3,3-3M24.36,32.47c-2.76,0-5,2.24-5,5s2.24,5,5,5,5-2.24,5-5-2.24-5-5-5h0Z"/>
      </g>
      <g>
        <circle class="cls-5" cx="24.36" cy="79.08" r="4"/>
        <path class="cls-2" d="M24.36,76.09c1.65,0,3,1.35,3,3s-1.35,3-3,3-3-1.35-3-3,1.35-3,3-3M24.36,74.09c-2.76,0-5,2.24-5,5s2.24,5,5,5,5-2.24,5-5-2.24-5-5-5h0Z"/>
      </g>
      <g>
        <circle class="cls-5" cx="24.36" cy="58.28" r="4"/>
        <path class="cls-2" d="M24.36,55.28c1.65,0,3,1.35,3,3s-1.35,3-3,3-3-1.35-3-3,1.35-3,3-3M24.36,53.28c-2.76,0-5,2.24-5,5s2.24,5,5,5,5-2.24,5-5-2.24-5-5-5h0Z"/>
      </g>
      <g>
        <circle class="cls-5" cx="54.19" cy="33.69" r="4"/>
        <path class="cls-2" d="M54.19,30.69c1.65,0,3,1.35,3,3s-1.35,3-3,3-3-1.35-3-3,1.35-3,3-3M54.19,28.69c-2.76,0-5,2.24-5,5s2.24,5,5,5,5-2.24,5-5-2.24-5-5-5h0Z"/>
      </g>
      <g>
        <circle class="cls-5" cx="54.19" cy="75.3" r="4"/>
        <path class="cls-2" d="M54.19,72.3c1.65,0,3,1.35,3,3s-1.35,3-3,3-3-1.35-3-3,1.35-3,3-3M54.19,70.3c-2.76,0-5,2.24-5,5s2.24,5,5,5,5-2.24,5-5-2.24-5-5-5h0Z"/>
      </g>
      <g>
        <circle class="cls-5" cx="54.19" cy="54.49" r="4"/>
        <path class="cls-2" d="M54.19,51.49c1.65,0,3,1.35,3,3s-1.35,3-3,3-3-1.35-3-3,1.35-3,3-3M54.19,49.49c-2.76,0-5,2.24-5,5s2.24,5,5,5,5-2.24,5-5-2.24-5-5-5h0Z"/>
      </g>
      <g>
        <circle class="cls-5" cx="75.64" cy="20.92" r="4"/>
        <path class="cls-2" d="M75.64,17.91c1.65,0,3,1.35,3,3s-1.35,3-3,3-3-1.35-3-3,1.35-3,3-3M75.64,15.91c-2.76,0-5,2.24-5,5s2.24,5,5,5,5-2.24,5-5-2.24-5-5-5h0Z"/>
      </g>
      <g>
        <circle class="cls-5" cx="75.64" cy="62.53" r="4"/>
        <path class="cls-2" d="M75.64,59.53c1.65,0,3,1.35,3,3s-1.35,3-3,3-3-1.35-3-3,1.35-3,3-3M75.64,57.53c-2.76,0-5,2.24-5,5s2.24,5,5,5,5-2.24,5-5-2.24-5-5-5h0Z"/>
      </g>
      <g>
        <circle class="cls-5" cx="75.64" cy="41.72" r="4"/>
        <path class="cls-2" d="M75.64,38.72c1.65,0,3,1.35,3,3s-1.35,3-3,3-3-1.35-3-3,1.35-3,3-3M75.64,36.72c-2.76,0-5,2.24-5,5s2.24,5,5,5,5-2.24,5-5-2.24-5-5-5h0Z"/>
      </g>
    </g>
  </g>
</svg>