<?xml version="1.0" encoding="UTF-8"?>
<svg id="light" xmlns="http://www.w3.org/2000/svg" viewBox="0 0 100 100">
  <defs>
    <style>
      .cls-1 {
        opacity: .3;
      }

      .cls-1, .cls-2, .cls-3 {
        fill: #68004b;
      }

      .cls-4 {
        fill: none;
        stroke: #68004b;
        stroke-linecap: round;
        stroke-linejoin: round;
        stroke-width: 2px;
      }

      .cls-3 {
        opacity: .6;
      }

      .cls-5 {
        fill: #fafafa;
      }
    </style>
  </defs>
  <rect class="cls-5" x="5" y="5" width="90" height="90" rx="16" ry="16"/>
  <g>
    <g>
      <polygon class="cls-1" points="75.26 18.42 34.59 31.68 24.74 28.26 65.4 15 75.26 18.42"/>
      <path class="cls-2" d="M24.74,28.26v13.33l9.85,3.42v-13.33l-9.85-3.42ZM32.62,41.66l-5.91-2.05v-8l5.91,2.05v8Z"/>
      <polygon class="cls-1" points="32.62 37.68 32.62 41.66 26.71 39.61 32.62 37.68"/>
      <polygon class="cls-3" points="32.62 33.66 32.62 37.68 26.71 39.61 26.71 31.61 32.62 33.66"/>
      <polygon class="cls-1" points="75.26 58.41 52.57 65.81 57.62 57.53 65.4 54.99 75.26 58.41"/>
      <polygon class="cls-1" points="75.26 58.41 75.26 71.74 34.59 85 34.59 71.67 38.19 70.5 52.57 65.81 75.26 58.41"/>
      <path class="cls-2" d="M24.74,68.25v13.33l9.85,3.42v-13.33l-9.85-3.42ZM32.62,81.65l-5.91-2.05v-8l5.91,2.05v8Z"/>
      <polygon class="cls-1" points="32.62 77.67 32.62 81.65 26.71 79.6 32.62 77.67"/>
      <polygon class="cls-3" points="32.62 73.65 32.62 77.67 26.71 79.6 26.71 71.6 32.62 73.65"/>
      <polygon class="cls-5" points="58.52 37.21 38.19 70.5 28.33 67.08 43.61 42.07 58.52 37.21"/>
      <polygon class="cls-1" points="38.19 70.5 34.59 71.67 24.74 68.25 28.33 67.08 38.19 70.5"/>
      <polygon class="cls-1" points="75.26 18.42 75.26 31.75 72.89 32.52 58.52 37.21 43.61 42.07 34.59 45.01 34.59 31.68 75.26 18.42"/>
      <polygon class="cls-5" points="72.89 32.52 57.62 57.53 52.57 65.81 38.19 70.5 58.52 37.21 72.89 32.52"/>
    </g>
    <g>
      <polygon class="cls-4" points="75.26 18.42 34.59 31.68 24.74 28.26 65.4 15 75.26 18.42"/>
      <path class="cls-4" d="M24.74,28.26v13.33l9.85,3.42v-13.33l-9.85-3.42ZM32.62,41.66l-5.91-2.05v-8l5.91,2.05v8Z"/>
      <polygon class="cls-4" points="32.62 37.68 32.62 41.66 26.71 39.61 32.62 37.68"/>
      <polygon class="cls-4" points="32.62 33.66 32.62 37.68 26.71 39.61 26.71 31.61 32.62 33.66"/>
      <polygon class="cls-4" points="75.26 58.41 52.57 65.81 57.62 57.53 65.4 54.99 75.26 58.41"/>
      <polygon class="cls-4" points="75.26 58.41 75.26 71.74 34.59 85 34.59 71.67 38.19 70.5 52.57 65.81 75.26 58.41"/>
      <path class="cls-4" d="M24.74,68.25v13.33l9.85,3.42v-13.33l-9.85-3.42ZM32.62,81.65l-5.91-2.05v-8l5.91,2.05v8Z"/>
      <polygon class="cls-4" points="32.62 77.67 32.62 81.65 26.71 79.6 32.62 77.67"/>
      <polygon class="cls-4" points="32.62 73.65 32.62 77.67 26.71 79.6 26.71 71.6 32.62 73.65"/>
      <polygon class="cls-4" points="58.52 37.21 38.19 70.5 28.33 67.08 43.61 42.07 58.52 37.21"/>
      <polygon class="cls-4" points="38.19 70.5 34.59 71.67 24.74 68.25 28.33 67.08 38.19 70.5"/>
      <polygon class="cls-4" points="75.26 18.42 75.26 31.75 72.89 32.52 58.52 37.21 43.61 42.07 34.59 45.01 34.59 31.68 75.26 18.42"/>
      <polygon class="cls-4" points="72.89 32.52 57.62 57.53 52.57 65.81 38.19 70.5 58.52 37.21 72.89 32.52"/>
    </g>
  </g>
</svg>