<?xml version="1.0" encoding="UTF-8"?>
<svg id="light" xmlns="http://www.w3.org/2000/svg" viewBox="0 0 100 100">
  <defs>
    <style>
      .cls-1 {
        opacity: .3;
      }

      .cls-1, .cls-2, .cls-3 {
        fill: #68004b;
      }

      .cls-3 {
        opacity: .6;
      }

      .cls-4 {
        fill: #fafafa;
      }
    </style>
  </defs>
  <rect class="cls-4" x="5" y="5" width="90" height="90" rx="16" ry="16"/>
  <path class="cls-1" d="M38.28,83.35v11.65h-17.28c-.06,0-.11,0-.17-.01v-21.7l17.45,10.06Z"/>
  <path class="cls-4" d="M79.17,61.48v33.51c-.06.01-.11.01-.17.01h-37.72v-11.65l1.12-.64,18.57-10.72,17.06-9.85,1.14-.66Z"/>
  <path class="cls-2" d="M81.42,57.58l-20.45-11.81c-.23-.13-.49-.2-.75-.2s-.52.07-.75.2l-40.89,23.62c-.11.07-.22.15-.31.24t-.01.01c-.08.09-.16.19-.23.3v.02c-.06.11-.11.22-.15.34-.03.13-.05.26-.05.39v23.99c.49.1.98.18,1.48.23.25.02.5.04.76.06.25.01.51.02.76.02v-21.7l17.45,10.06v11.65h3v-11.65l1.12-.64,18.57-10.72,17.06-9.85,1.14-.66v33.51c.25,0,.51-.01.76-.02.26-.02.51-.04.76-.06.5-.05.99-.13,1.48-.23v-35.8c0-.54-.29-1.03-.75-1.3ZM58.72,69.82l-18.94,10.93-17.45-10.06,36.39-21.02v20.15ZM61.72,68.09v-18.42l15.95,9.21-15.95,9.21Z"/>
  <polygon class="cls-1" points="77.67 58.88 61.72 68.09 61.72 49.67 77.67 58.88"/>
  <polygon class="cls-3" points="58.72 49.67 58.72 69.82 39.78 80.75 22.33 70.69 58.72 49.67"/>
  <path class="cls-2" d="M82.5,27.26c-10.8,6.24-32.53,18.79-43.33,25.02l-21.67-12.5L60.83,14.75l21.67,12.52Z"/>
</svg>