<?xml version="1.0" encoding="UTF-8"?>
<svg id="light" xmlns="http://www.w3.org/2000/svg" viewBox="0 0 100 100">
  <defs>
    <style>
      .cls-1 {
        opacity: .3;
      }

      .cls-1, .cls-2, .cls-3 {
        fill: #68004b;
      }

      .cls-3 {
        opacity: .6;
      }

      .cls-4 {
        fill: #fafafa;
      }
    </style>
  </defs>
  <rect class="cls-4" x="5" y="5" width="90" height="90" rx="16" ry="16"/>
  <g>
    <path class="cls-2" d="M50,33.75c0,8.97-7.28,16.25-16.25,16.25-8.97,0-16.25-7.28-16.25-16.25s7.28-16.25,16.25-16.25c8.97,0,16.25,7.28,16.25,16.25Z"/>
    <path class="cls-3" d="M66.25,50c0,8.97-7.28,16.25-16.25,16.25-8.97,0-16.25-7.28-16.25-16.25s7.28-16.25,16.25-16.25c8.97,0,16.25,7.28,16.25,16.25Z"/>
    <path class="cls-1" d="M82.5,66.25c0,8.97-7.28,16.25-16.25,16.25-8.97,0-16.25-7.28-16.25-16.25s7.28-16.25,16.25-16.25c8.97,0,16.25,7.28,16.25,16.25Z"/>
  </g>
</svg>