<?xml version="1.0" encoding="UTF-8"?>
<svg id="light" xmlns="http://www.w3.org/2000/svg" viewBox="0 0 100 100">
  <defs>
    <style>
      .cls-1, .cls-2 {
        fill: #68004b;
      }

      .cls-2 {
        opacity: .6;
      }

      .cls-3 {
        fill: #fafafa;
      }
    </style>
  </defs>
  <rect class="cls-3" x="5" y="5" width="90" height="90" rx="16" ry="16"/>
  <g>
    <path class="cls-1" d="M32.86,45.71c-4.59,0-8.84-2.45-11.13-6.43-2.3-3.98-2.3-8.88,0-12.86,2.3-3.98,6.54-6.43,11.13-6.43s8.84,2.45,11.13,6.43c2.3,3.98,2.3,8.88,0,12.86-2.3,3.98-6.54,6.43-11.13,6.43Z"/>
    <path class="cls-1" d="M32.86,80c-4.59,0-8.84-2.45-11.13-6.43-2.3-3.98-2.3-8.88,0-12.86,2.3-3.98,6.54-6.43,11.13-6.43s8.84,2.45,11.13,6.43c2.3,3.98,2.3,8.88,0,12.86-2.3,3.98-6.54,6.43-11.13,6.43Z"/>
    <path class="cls-2" d="M77.75,56.54c1.26,1.26,1.26,3.29,0,4.55l-6.06,6.06,6.06,6.06c1.26,1.26,1.26,3.29,0,4.55s-3.29,1.26-4.55,0l-6.06-6.06-6.06,6.06c-1.26,1.26-3.29,1.26-4.55,0-1.26-1.26-1.26-3.29,0-4.55l6.06-6.06-6.06-6.06c-1.26-1.26-1.26-3.29,0-4.55,1.26-1.26,3.29-1.26,4.55,0l6.06,6.06,6.06-6.06c1.26-1.26,3.29-1.26,4.55,0Z"/>
    <path class="cls-1" d="M80,32.86c0,4.59-2.45,8.84-6.43,11.13-3.98,2.3-8.88,2.3-12.86,0-3.98-2.3-6.43-6.54-6.43-11.13s2.45-8.84,6.43-11.13c3.98-2.3,8.88-2.3,12.86,0,3.98,2.3,6.43,6.54,6.43,11.13Z"/>
  </g>
</svg>