<?xml version="1.0" encoding="UTF-8"?>
<svg id="light" xmlns="http://www.w3.org/2000/svg" viewBox="0 0 100 100">
  <defs>
    <style>
      .cls-1, .cls-2 {
        fill: #68004b;
      }

      .cls-2 {
        opacity: .6;
      }

      .cls-3 {
        fill: #fafafa;
      }
    </style>
  </defs>
  <rect class="cls-3" x="5" y="5" width="90" height="90" rx="16" ry="16"/>
  <g>
    <path class="cls-1" d="M20.95,79.05c-2.59-2.6.27-10.03,6.75-19.18-1.34-3.02-2.07-6.35-2.07-9.87,0-13.46,10.91-24.37,24.37-24.37,3.52,0,6.84.74,9.87,2.07,9.15-6.48,16.58-9.34,19.18-6.75,4.12,4.12-5.54,20.47-21.59,36.51-16.04,16.04-32.39,25.71-36.51,21.59Z"/>
    <path class="cls-2" d="M44.5,73.75c4.99-3.73,10.34-8.37,15.61-13.64,5.27-5.27,9.91-10.62,13.64-15.61.41,1.77.62,3.61.62,5.5,0,13.46-10.91,24.37-24.37,24.37-1.9,0-3.73-.21-5.5-.62Z"/>
  </g>
</svg>