<?xml version="1.0" encoding="UTF-8"?>
<svg id="light" xmlns="http://www.w3.org/2000/svg" viewBox="0 0 100 100">
  <defs>
    <style>
      .cls-1 {
        fill: #68004b;
      }

      .cls-2 {
        fill: #fafafa;
      }
    </style>
  </defs>
  <rect class="cls-2" x="5" y="5" width="90" height="90" rx="16" ry="16"/>
  <g>
    <path class="cls-1" d="M50,24.72c-17.87,0-29.11,16.85-32.5,25.28,3.39,8.43,14.63,25.28,32.5,25.28s29.11-16.85,32.5-25.28c-3.39-8.43-14.63-25.28-32.5-25.28ZM58.13,64.07c-5.03,2.9-11.22,2.9-16.25,0-5.03-2.9-8.12-8.27-8.12-14.07s3.1-11.17,8.12-14.07c5.03-2.9,11.22-2.9,16.25,0,5.03,2.9,8.12,8.27,8.12,14.07s-3.1,11.17-8.12,14.07Z"/>
    <path class="cls-1" d="M39.37,47.88l10.63,2.12-2.12-10.63c.69-.14,1.4-.2,2.12-.2,5.98,0,10.83,4.85,10.83,10.83s-4.85,10.83-10.83,10.83-10.83-4.85-10.83-10.83c0-.72.07-1.43.2-2.12Z"/>
  </g>
</svg>