<?xml version="1.0" encoding="UTF-8"?>
<svg id="light" xmlns="http://www.w3.org/2000/svg" viewBox="0 0 100 100">
  <defs>
    <style>
      .cls-1 {
        fill: #68004b;
      }

      .cls-2 {
        fill: #fafafa;
      }
    </style>
  </defs>
  <rect class="cls-2" x="5" y="5" width="90" height="90" rx="16" ry="16"/>
  <g>
    <polygon class="cls-1" points="32.2 20 32.2 22.13 32.2 29.46 38.55 25.65 40.38 24.55 42.57 28.2 40.75 29.29 34.21 33.22 40.75 37.14 42.57 38.24 40.38 41.89 38.56 40.79 32.2 36.98 32.2 44.31 32.2 46.44 27.94 46.44 27.94 44.31 27.94 36.98 21.59 40.79 19.76 41.89 17.57 38.23 19.39 37.14 25.93 33.22 19.39 29.29 17.57 28.2 19.76 24.55 21.58 25.65 27.94 29.46 27.94 22.13 27.94 20 32.2 20"/>
    <path class="cls-1" d="M81.92,72.95l-21.12-42.23c-.83-1.66-2.52-2.7-4.37-2.7v-.02c-1.85,0-3.53,1.06-4.37,2.7l-21.12,42.23c-1.22,2.42-.24,5.32,2.17,6.54s5.34.24,6.54-2.17l3.53-7.05h26.48l3.53,7.07c1.2,2.4,4.14,3.37,6.54,2.17,2.4-1.2,3.37-4.12,2.17-6.54ZM48.07,60.5l8.37-16.71,8.35,16.71h-16.71Z"/>
  </g>
</svg>