<?xml version="1.0" encoding="UTF-8"?>
<svg id="default" xmlns="http://www.w3.org/2000/svg" viewBox="0 0 100 100">
  <defs>
    <style>
      .cls-1 {
        fill: #68004b;
      }

      .cls-2 {
        fill: #fafafa;
      }
    </style>
  </defs>
  <rect class="cls-2" x="5" y="5" width="90" height="90" rx="16" ry="16"/>
  <path class="cls-1" d="M22.5,28.52c0-3.32,2.69-6.02,6.02-6.02h42.97c3.32,0,6.02,2.69,6.02,6.02v42.97c0,3.32-2.69,6.02-6.02,6.02H28.52c-3.32,0-6.02-2.69-6.02-6.02V28.52ZM44.84,44.84v27.5h26.64c.47,0,.86-.38.86-.86v-26.64h-27.5ZM72.34,39.69v-11.17c0-.47-.38-.86-.86-.86h-26.64v12.03h27.5ZM27.66,44.84v26.64c0,.47.38.86.86.86h11.17v-27.5h-12.03ZM39.69,39.69v-12.03h-11.17c-.47,0-.86.38-.86.86v11.17h12.03Z"/>
</svg>