<?xml version="1.0" encoding="UTF-8"?>
<svg id="light" xmlns="http://www.w3.org/2000/svg" viewBox="0 0 100 100">
  <defs>
    <style>
      .cls-1, .cls-2 {
        fill: #68004b;
      }

      .cls-2 {
        opacity: .6;
      }

      .cls-3 {
        fill: #fafafa;
      }
    </style>
  </defs>
  <rect class="cls-3" x="5" y="5" width="90" height="90" rx="16" ry="16"/>
  <g>
    <path class="cls-2" d="M48.96,26.76c.38.94,1.71.94,2.09,0l2.43-6.06c.16-.42.59-.7,1.04-.7h12.36c3.11,0,5.62,2.52,5.62,5.62v24.38H27.5v-24.38c0-3.11,2.52-5.62,5.62-5.62h1.11c.46,0,.87.28,1.04.7l2.43,6.06c.38.94,1.71.94,2.09,0l2.43-6.06c.16-.42.59-.7,1.04-.7h2.23c.46,0,.87.28,1.04.7l2.43,6.06Z"/>
    <path class="cls-1" d="M27.5,53.75v3.75c0,4.14,3.36,7.5,7.5,7.5h7.5v7.5c0,4.14,3.36,7.5,7.5,7.5s7.5-3.36,7.5-7.5v-7.5h7.5c4.14,0,7.5-3.36,7.5-7.5v-3.75H27.5ZM50,74.38c-1.04,0-1.88-.84-1.88-1.88s.84-1.88,1.88-1.88,1.88.84,1.88,1.88-.84,1.88-1.88,1.88Z"/>
  </g>
</svg>