<?xml version="1.0" encoding="UTF-8"?>
<svg id="light" xmlns="http://www.w3.org/2000/svg" xmlns:xlink="http://www.w3.org/1999/xlink" viewBox="0 0 100 100">
  <defs>
    <style>
      .cls-1 {
        fill: #68004b;
      }

      .cls-2, .cls-3 {
        fill: none;
      }

      .cls-3 {
        stroke: #68004b;
        stroke-linecap: round;
        stroke-miterlimit: 10;
        stroke-width: 4px;
      }

      .cls-4 {
        fill: #fafafa;
      }

      .cls-5 {
        clip-path: url(#clippath);
      }
    </style>
    <clipPath id="clippath">
      <path class="cls-2" d="M72,84c-11.05,0-20-8.95-20-20s8.95-20,20-20c4.97,0,9.5,1.82,13,4.82V15H15v70h70v-5.82c-3.5,3-8.03,4.82-13,4.82Z"/>
    </clipPath>
  </defs>
  <rect class="cls-4" x="5" y="5" width="90" height="90" rx="16" ry="16"/>
  <g>
    <path class="cls-1" d="M80.43,78.5c-2.49,1.42-5.37,2.24-8.44,2.24-9.39,0-17-7.61-17-17,0-3.07.82-5.95,2.24-8.44.75-1.31,2.52-1.39,3.59-.33l19.94,19.94c1.06,1.06.99,2.84-.33,3.59Z"/>
    <path class="cls-1" d="M86.76,72.18c-.75,1.31-2.52,1.39-3.59.33l-19.94-19.94c-1.06-1.06-.99-2.84.33-3.59,2.49-1.42,5.37-2.24,8.44-2.24,9.39,0,17,7.61,17,17,0,3.07-.82,5.95-2.24,8.44Z"/>
  </g>
  <g class="cls-5">
    <g>
      <line class="cls-3" x1="40.5" y1="25.5" x2="40.5" y2="75.5"/>
      <rect class="cls-3" x="20.5" y="25.5" width="60" height="50"/>
      <line class="cls-3" x1="20.5" y1="41.5" x2="80.5" y2="41.5"/>
      <line class="cls-3" x1="20.5" y1="58.5" x2="80.5" y2="58.5"/>
    </g>
  </g>
</svg>