<?xml version="1.0" encoding="UTF-8"?>
<svg id="light" xmlns="http://www.w3.org/2000/svg" viewBox="0 0 100 100">
  <defs>
    <style>
      .cls-1 {
        fill: #68004b;
      }

      .cls-2 {
        fill: #fafafa;
      }
    </style>
  </defs>
  <rect class="cls-2" x="5" y="5" width="90" height="90" rx="16" ry="16"/>
  <g>
    <g>
      <polygon class="cls-1" points="36.65 62.19 47.09 62.19 41.88 51.75 36.65 62.19"/>
      <path class="cls-1" d="M66.25,33.75H17.5v48.75h48.75v-48.75ZM57.8,69.97c1.19,2.39-1.04,5.59-4.8,4.01l-2.85-5.7h-16.55l-2.21,4.4c-.75,1.51-2.58,2.12-4.09,1.36s-2.12-2.58-1.36-4.09l13.2-26.4c.52-1.03,1.57-1.69,2.73-1.69h0c1.16.01,2.21.66,2.73,1.7l13.2,26.4Z"/>
    </g>
    <polygon class="cls-1" points="74.38 25.62 41.87 25.62 41.87 29.69 33.75 29.69 33.75 17.5 82.5 17.5 82.5 66.25 70.31 66.25 70.31 58.13 74.38 58.13 74.38 25.62"/>
  </g>
</svg>