<?xml version="1.0" encoding="UTF-8"?>
<svg id="light" xmlns="http://www.w3.org/2000/svg" viewBox="0 0 100 100">
  <defs>
    <style>
      .cls-1 {
        opacity: .3;
      }

      .cls-1, .cls-2, .cls-3 {
        fill: #68004b;
      }

      .cls-4 {
        fill: none;
        stroke: #68004b;
        stroke-linecap: round;
        stroke-linejoin: round;
        stroke-width: 2px;
      }

      .cls-3 {
        opacity: .6;
      }

      .cls-5 {
        fill: #fafafa;
      }
    </style>
  </defs>
  <rect class="cls-5" x="5" y="5" width="90" height="90" rx="16" ry="16"/>
  <g>
    <path class="cls-2" d="M76.26,22.67l-3-11.21-3.01,11.21h1.97v40.49c0,.57.46,1.03,1.03,1.03s1.03-.46,1.03-1.03V22.67h1.97Z"/>
    <g>
      <polygon class="cls-5" points="78.87 33.33 32.68 60 21.13 53.33 67.32 26.66 78.87 33.33"/>
      <g>
        <polygon class="cls-3" points="32.68 60 26.91 63.33 21.13 66.66 21.13 53.33 32.68 60"/>
        <polygon class="cls-5" points="78.87 33.33 78.87 46.66 32.68 73.33 32.68 60 78.87 33.33"/>
        <polygon class="cls-1" points="78.87 33.33 32.68 60 21.13 53.33 67.32 26.66 78.87 33.33"/>
        <polygon class="cls-1" points="32.68 60 32.68 73.33 21.13 66.66 26.91 63.33 32.68 60"/>
      </g>
      <g>
        <polygon class="cls-4" points="32.68 60 26.91 63.33 21.13 66.66 21.13 53.33 32.68 60"/>
        <polygon class="cls-4" points="78.87 33.33 78.87 46.66 32.68 73.33 32.68 60 78.87 33.33"/>
        <polygon class="cls-4" points="78.87 33.33 32.68 60 21.13 53.33 67.32 26.66 78.87 33.33"/>
        <polygon class="cls-4" points="32.68 60 32.68 73.33 21.13 66.66 26.91 63.33 32.68 60"/>
      </g>
    </g>
    <path class="cls-2" d="M26.21,36.06l-3.01,11.15h1.97v40.29c0,.57.46,1.03,1.03,1.03s1.03-.46,1.03-1.03v-40.29h1.97l-3-11.15Z"/>
  </g>
</svg>