<?xml version="1.0" encoding="UTF-8"?>
<svg id="light" xmlns="http://www.w3.org/2000/svg" viewBox="0 0 100 100">
  <defs>
    <style>
      .cls-1, .cls-2 {
        fill: #68004b;
      }

      .cls-2 {
        opacity: .6;
      }

      .cls-3 {
        fill: #fafafa;
      }
    </style>
  </defs>
  <rect class="cls-3" x="5" y="5" width="90" height="90" rx="16" ry="16"/>
  <g>
    <polygon class="cls-1" points="32.79 30.88 40.44 34.71 32.79 38.53 28.97 46.18 25.15 38.53 17.5 34.71 25.15 30.88 28.97 23.24 32.79 30.88"/>
    <polygon class="cls-2" points="48.09 19.41 50.63 24.51 55.74 27.06 50.63 29.6 48.09 34.71 45.54 29.6 40.44 27.06 45.54 24.51 48.09 19.41"/>
    <path class="cls-1" d="M77.77,28.06l-3.92-3.92-4.73-4.73-4.73,4.73L26.06,62.47l-4.73,4.73,4.73,4.73,3.92,3.92,4.73,4.73,4.73-4.73,38.33-38.33,4.73-4.73-4.73-4.73ZM63.43,42.4l-3.92-3.92,9.61-9.61,3.92,3.92-9.61,9.61Z"/>
    <polygon class="cls-1" points="71.03 53.82 74.85 61.47 82.5 65.29 74.85 69.12 71.03 76.76 67.21 69.12 59.56 65.29 67.21 61.47 71.03 53.82"/>
  </g>
</svg>