<?xml version="1.0" encoding="UTF-8"?>
<svg id="light" xmlns="http://www.w3.org/2000/svg" viewBox="0 0 100 100">
  <defs>
    <style>
      .cls-1 {
        fill: #68004b;
        opacity: .3;
      }

      .cls-2 {
        fill: none;
        stroke: #68004b;
        stroke-linecap: round;
        stroke-linejoin: round;
        stroke-width: 2px;
      }

      .cls-3 {
        fill: #fafafa;
      }
    </style>
  </defs>
  <rect class="cls-3" x="5" y="5" width="90" height="90" rx="16" ry="16"/>
  <g>
    <path class="cls-2" d="M39.26,57.6c-2.58.89-5.72,2.95-8.02,4.99-1.3,1.11-2.39,2.93-2.63,4.69-.24,1.76.37,3.46,1.39,4.42.96,1.02,2.66,1.63,4.42,1.39,1.76-.24,3.58-1.33,4.69-2.63l.99-1.19"/>
    <path class="cls-2" d="M33.3,51.15c-2.29,1.16-4.41,2.61-6.19,4.13-3.06,2.39-5.51,6.5-5.9,10.62s1.28,8.27,3.88,10.72c3.21,3.46,9.32,5.15,14.58,2.95"/>
    <path class="cls-2" d="M46.74,74.2c1.4-1.7,2.73-3.67,3.8-5.8"/>
    <path class="cls-2" d="M43.55,61.88c-.24.24-.45.52-.62.82l-.83,1.56-.73,1.55-.63,1.55-.53,1.54-.42,1.54-.31,1.54-.2,1.53-.09,1.52.03,1.51.16,1.5.28,1.47.4,1.44.52,1.41.64,1.37.75,1.32.86,1.27c.94,1.6,3.86,2.05,5.24.81,1.6-.94,2.05-3.86.81-5.24l-.55-.81-.46-.81-.38-.81-.31-.82-.23-.83-.16-.85-.09-.88-.02-.91.05-.95.13-.99.21-1.03.3-1.08.38-1.12.48-1.17.57-1.21.16-.32"/>
    <path class="cls-2" d="M58.75,39.21c.24-.24.45-.52.62-.82l.83-1.56.73-1.55.63-1.55.53-1.54.42-1.54.31-1.54.2-1.53.09-1.52-.03-1.51-.16-1.5-.28-1.47-.4-1.44-.52-1.41-.64-1.37-.75-1.32-.86-1.27c-.94-1.6-3.86-2.05-5.24-.81-1.6.94-2.05,3.86-.81,5.24l.55.81.46.81.38.81.31.82.23.83.16.85.09.88.02.91-.05.95-.13.99-.21,1.03-.3,1.08-.38,1.12-.48,1.17-.57,1.21-.16.32"/>
    <path class="cls-2" d="M62.2,31.82l.99-1.19c1.11-1.3,2.93-2.39,4.69-2.63,1.76-.24,3.46.37,4.42,1.39,1.02.96,1.63,2.66,1.39,4.42-.24,1.76-1.33,3.58-2.63,4.69-2.31,2.04-5.44,4.1-8.02,4.99"/>
    <path class="cls-2" d="M51.75,32.69c1.08-2.13,2.41-4.1,3.8-5.8"/>
    <path class="cls-2" d="M62.64,21.53c5.26-2.21,11.37-.51,14.58,2.95,2.6,2.45,4.27,6.6,3.88,10.72-.39,4.12-2.85,8.22-5.9,10.62-1.78,1.52-3.9,2.97-6.19,4.13"/>
    <g>
      <path class="cls-2" d="M68.04,54.81c1.71-1.4,1.71-4.92,0-6.31l-14.84-14.84c-1.4-1.71-4.92-1.71-6.31,0-1.71,1.4-1.71,4.92,0,6.31l14.84,14.84c1.4,1.71,4.92,1.71,6.31,0Z"/>
      <path class="cls-2" d="M55.41,67.43c1.71-1.4,1.71-4.92,0-6.31l-14.84-14.84c-1.4-1.71-4.92-1.71-6.31,0-1.71,1.4-1.71,4.92,0,6.31l14.84,14.84c1.4,1.71,4.92,1.71,6.31,0Z"/>
      <path class="cls-2" d="M61.72,61.12c1.71-1.4,1.71-4.92,0-6.31l-14.84-14.84c-1.4-1.71-4.92-1.71-6.31,0-1.71,1.4-1.71,4.92,0,6.31l14.84,14.84c1.4,1.71,4.92,1.71,6.31,0Z"/>
    </g>
    <path class="cls-1" d="M68.03,54.81c-1.28,1.57-4.34,1.7-5.91.39,1.31,1.57,1.18,4.65-.39,5.92-1.3,1.58-4.42,1.69-5.98.34,1.36,1.56,1.25,4.67-.34,5.97-1.04,1.27-3.23,1.59-4.87.98-.58-.21-1.08-.55-1.44-.98l-.13-.13-5.42-5.42-4.29-4.29-5.01-5c-.44-.36-.76-.86-.98-1.43-.61-1.64-.28-3.84.98-4.88,1.3-1.59,4.42-1.7,5.98-.34-1.36-1.56-1.25-4.68.34-5.98,1.28-1.57,4.35-1.7,5.92-.39-1.31-1.57-1.18-4.65.39-5.92,1.04-1.27,3.24-1.59,4.88-.97.57.21,1.07.53,1.43.97l14.84,14.84c.45.36.77.86.99,1.44.61,1.64.27,3.84-.99,4.88Z"/>
  </g>
</svg>