<?xml version="1.0" encoding="UTF-8"?>
<svg id="light" xmlns="http://www.w3.org/2000/svg" viewBox="0 0 100 100">
  <defs>
    <style>
      .cls-1 {
        fill: #68004b;
      }

      .cls-2 {
        fill: #fafafa;
      }
    </style>
  </defs>
  <rect class="cls-2" x="5" y="5" width="90" height="90" rx="16" ry="16"/>
  <path class="cls-1" d="M67.15,53.5c-1.62,7.98-8.68,14-17.15,14s-15.53-6.02-17.15-14h-14.35c-1.94,0-3.5-1.56-3.5-3.5s1.56-3.5,3.5-3.5h14.35c1.62-7.98,8.68-14,17.15-14s15.53,6.02,17.15,14h14.35c1.94,0,3.5,1.56,3.5,3.5s-1.56,3.5-3.5,3.5h-14.35ZM50,58.75c3.13,0,6.01-1.67,7.58-4.37,1.56-2.71,1.56-6.04,0-8.75-1.56-2.71-4.45-4.37-7.58-4.37s-6.01,1.67-7.58,4.37c-1.56,2.71-1.56,6.04,0,8.75,1.56,2.71,4.45,4.37,7.58,4.37Z"/>
</svg>