<?xml version="1.0" encoding="UTF-8"?>
<svg id="light" xmlns="http://www.w3.org/2000/svg" viewBox="0 0 100 100">
  <defs>
    <style>
      .cls-1 {
        fill: #fafafa;
      }

      .cls-2 {
        fill: none;
        stroke: #68004b;
        stroke-miterlimit: 10;
        stroke-width: 6px;
      }
    </style>
  </defs>
  <rect class="cls-1" x="5" y="5" width="90" height="90" rx="16" ry="16"/>
  <path class="cls-2" d="M20,41.54l21.36-19.42c1.36-1.4,3.45-2.27,5.41-2.24,1.96-.03,4.04.84,5.41,2.24,1.4,1.36,2.27,3.45,2.24,5.41.03,1.96-.84,4.04-2.24,5.41l-25.7,25.7c-1.39,1.35-2.25,3.42-2.22,5.36-.03,1.94.83,4.01,2.22,5.36,1.35,1.39,3.42,2.25,5.36,2.22,1.94.03,4.01-.83,5.36-2.22l29.85-29.86c1.22-1.28,3.29-2.22,5.36-2.22s4.14.94,5.36,2.22c1.28,1.22,2.22,3.29,2.22,5.36s-.94,4.14-2.22,5.36l-11.82,11.81c-1.62,1.56-2.83,4-3.06,6.53-.23,2.53.52,5.15,1.83,6.98,1.24,1.87,3.43,3.51,5.87,4.19,2.45.68,5.16.42,7.19-.54"/>
</svg>