<?xml version="1.0" encoding="UTF-8"?>
<svg id="light" xmlns="http://www.w3.org/2000/svg" viewBox="0 0 100 100">
  <defs>
    <style>
      .cls-1 {
        fill: #68004b;
      }

      .cls-2 {
        fill: #fafafa;
      }
    </style>
  </defs>
  <rect class="cls-2" x="5" y="5" width="90" height="90" rx="16" ry="16"/>
  <g>
    <path class="cls-1" d="M66.13,78.21c-4.75,2.72-10.26,4.29-16.13,4.29-17.96,0-32.5-14.54-32.5-32.5,0-5.87,1.56-11.37,4.29-16.13,1.44-2.5,4.81-2.66,6.87-.63l38.11,38.11c2.03,2.03,1.89,5.42-.63,6.87Z"/>
    <path class="cls-1" d="M78.21,66.13c-1.44,2.5-4.81,2.66-6.87.63L33.24,28.65c-2.03-2.03-1.89-5.42.63-6.87,4.75-2.72,10.26-4.29,16.13-4.29,17.96,0,32.5,14.54,32.5,32.5,0,5.87-1.56,11.37-4.29,16.13Z"/>
  </g>
</svg>