<?xml version="1.0" encoding="UTF-8"?>
<svg id="light" xmlns="http://www.w3.org/2000/svg" viewBox="0 0 100 100">
  <defs>
    <style>
      .cls-1, .cls-2 {
        fill: #68004b;
      }

      .cls-2 {
        opacity: .6;
      }

      .cls-3 {
        fill: #fafafa;
      }
    </style>
  </defs>
  <rect class="cls-3" x="5" y="5" width="90" height="90" rx="16" ry="16"/>
  <g>
    <path class="cls-1" d="M72.59,41.83l-18.48-18.49c-3.43-3.43-9-3.43-12.43,0l-6.48,6.48-9.93-9.92c-1.53-1.53-3.99-1.53-5.52,0h0c-1.53,1.51-1.53,3.99,0,5.52l9.92,9.94-11.24,11.24c-4.58,4.58-4.58,12,0,16.58l14.34,14.34c4.58,4.58,12,4.58,16.58,0l23.24-23.25c3.43-3.43,3.43-9,0-12.43ZM67.06,48.74l-5.16,5.16H22.94c.17-.65.51-1.27,1.03-1.78l11.24-11.24,6.03,6.03c1.53,1.53,4,1.53,5.53,0,1.53-1.53,1.53-4,0-5.53l-6.03-6.03,6.48-6.48c.38-.38,1-.38,1.38,0l18.47,18.49c.38.38.38,1,0,1.38Z"/>
    <path class="cls-2" d="M77.19,81.24c-4.31,0-7.81-3.5-7.81-7.81,0-3.08,3.98-9.72,6.25-13.27.73-1.15,2.38-1.15,3.11,0,2.28,3.55,6.26,10.19,6.26,13.27,0,4.31-3.5,7.81-7.81,7.81Z"/>
  </g>
</svg>