<?xml version="1.0" encoding="UTF-8"?>
<svg id="light" xmlns="http://www.w3.org/2000/svg" viewBox="0 0 100 100">
  <defs>
    <style>
      .cls-1 {
        fill: #68004b;
      }

      .cls-2 {
        fill: #fafafa;
      }
    </style>
  </defs>
  <rect class="cls-2" x="5" y="5" width="90" height="90" rx="16" ry="16"/>
  <path class="cls-1" d="M68.59,45.62h-2.19l3.13,4.38,7.81,10.94v4.37h-7.66l3.13,4.37,7.81,10.94v4.38H19.38v-4.38l7.81-10.94,3.13-4.37h-7.66v-4.37l7.81-10.94,3.13-4.38h-6.56v-4.38l20.06-22.93,2.91-3.32,2.91,3.32,20.06,22.93v4.38h-4.38ZM50,21.64l-17.16,19.61h9.26l-4.95,6.92-9.12,12.77h10.79l-4.95,6.92-9.12,12.77h50.5l-9.12-12.77-4.95-6.92h10.79l-9.12-12.77-4.95-6.92h9.26l-17.16-19.61Z"/>
</svg>