<?xml version="1.0" encoding="UTF-8"?>
<svg id="light" xmlns="http://www.w3.org/2000/svg" viewBox="0 0 100 100">
  <defs>
    <style>
      .cls-1 {
        opacity: .3;
      }

      .cls-1, .cls-2 {
        fill: #68004b;
      }

      .cls-3 {
        stroke-width: 2px;
      }

      .cls-3, .cls-4 {
        fill: none;
        stroke: #68004b;
        stroke-linejoin: round;
      }

      .cls-4 {
        stroke-linecap: round;
        stroke-width: 5px;
      }

      .cls-2 {
        opacity: .6;
      }

      .cls-5 {
        fill: #fafafa;
      }
    </style>
  </defs>
  <rect class="cls-5" x="5" y="5" width="90" height="90" rx="16" ry="16"/>
  <g>
    <polygon class="cls-5" points="87.12 34.28 87.12 51.43 37.63 80 37.63 62.85 72.27 42.86 72.27 42.86 87.12 34.28"/>
    <polygon class="cls-1" points="62.37 20 62.37 37.14 12.88 65.71 12.88 48.57 62.37 20"/>
    <polygon class="cls-2" points="72.27 42.86 37.63 62.85 37.63 80 12.88 65.71 62.37 37.14 72.27 42.86"/>
    <g>
      <polygon class="cls-3" points="87.12 34.28 87.12 51.43 37.63 80 37.63 62.85 72.27 42.86 72.27 42.86 87.12 34.28"/>
      <polygon class="cls-3" points="62.37 20 62.37 37.14 12.88 65.71 12.88 48.57 62.37 20"/>
      <polygon class="cls-3" points="72.27 42.86 37.63 62.85 37.63 80 12.88 65.71 62.37 37.14 72.27 42.86"/>
    </g>
    <polyline class="cls-4" points="12.88 48.57 12.88 65.71 37.63 80 37.63 62.85"/>
  </g>
</svg>