<?xml version="1.0" encoding="UTF-8"?>
<svg id="default" xmlns="http://www.w3.org/2000/svg" viewBox="0 0 100 100">
  <defs>
    <style>
      .cls-1 {
        fill: none;
        stroke: #68004b;
        stroke-linecap: round;
        stroke-linejoin: round;
        stroke-width: 3px;
      }

      .cls-2 {
        opacity: .3;
      }

      .cls-2, .cls-3 {
        fill: #68004b;
      }

      .cls-3 {
        fill-rule: evenodd;
      }

      .cls-4 {
        fill: #fafafa;
      }
    </style>
  </defs>
  <g>
    <rect class="cls-4" x="5" y="5" width="90" height="90" rx="16" ry="16"/>
    <g>
      <path class="cls-3" d="M26.8,30.08c3.89-2.1,5.34-6.95,3.24-10.83-2.1-3.89-6.95-5.34-10.83-3.24-3.89,2.1-5.34,6.95-3.24,10.83,2.1,3.89,6.95,5.34,10.83,3.24Z"/>
      <path class="cls-3" d="M51.93,56.55l-17.86-4.95-3.74-11.48,8.47-.11,6.53-1.34c.46.54,1.12.91,1.89.91,1.39,0,2.51-1.12,2.51-2.51s-1.12-2.51-2.51-2.51c-.75,0-1.41.35-1.87.88l-7.8-.79-9.13-.64-9.94-.17,7.73,25.35,17.4,2.99-6.4,22.77h13.33l-6.1-5.73,7.47-22.67Z"/>
      <rect class="cls-2" x="48.09" y="35.62" width="36.91" height="2.92"/>
    </g>
  </g>
  <g>
    <rect class="cls-4" x="5" y="5" width="90" height="90" rx="16" ry="16"/>
    <g>
      <polygon class="cls-1" points="53.31 46.2 31.25 37.28 46.69 24.55 68.75 33.46 53.31 46.2"/>
      <polygon class="cls-1" points="53.31 46.2 53.31 68.18 31.25 59.27 31.25 37.28 53.31 46.2"/>
      <polygon class="cls-1" points="68.75 33.46 68.75 55.45 46.69 46.53 46.69 24.55 68.75 33.46"/>
      <polygon class="cls-1" points="68.75 55.45 53.31 68.18 53.31 46.2 68.75 33.46 68.75 55.45"/>
      <polygon class="cls-1" points="46.69 46.53 31.25 59.27 31.25 37.28 46.69 24.55 46.69 46.53"/>
      <polygon class="cls-2" points="53.31 68.18 68.75 55.45 68.75 45.96 87.5 53.54 56.61 79.01 12.5 61.18 31.25 45.71 31.25 59.27 53.31 68.18"/>
    </g>
  </g>
</svg>