<?xml version="1.0" encoding="UTF-8"?>
<svg id="light" xmlns="http://www.w3.org/2000/svg" viewBox="0 0 100 100">
  <defs>
    <style>
      .cls-1, .cls-2 {
        fill: #68004b;
      }

      .cls-2 {
        opacity: .6;
      }

      .cls-3 {
        fill: #fafafa;
      }
    </style>
  </defs>
  <rect class="cls-3" x="5" y="5" width="90" height="90" rx="16" ry="16"/>
  <g>
    <polygon class="cls-1" points="40.75 21.75 44.5 21.75 44.5 29.25 40.75 29.25 29.5 29.25 29.5 70.5 71.69 70.5 71.69 59.25 71.69 55.5 79.19 55.5 79.19 59.25 79.19 74.25 79.19 78 75.44 78 25.75 78 22 78 22 74.25 22 25.5 22 21.75 25.75 21.75 40.75 21.75"/>
    <polygon class="cls-2" points="82 18 82 44.25 74.5 44.25 74.5 30.81 48.25 57.06 42.94 51.75 69.19 25.5 55.75 25.5 55.75 18 82 18"/>
  </g>
</svg>