<?xml version="1.0" encoding="UTF-8"?>
<svg id="light" xmlns="http://www.w3.org/2000/svg" viewBox="0 0 100 100">
  <defs>
    <style>
      .cls-1 {
        fill: #68004b;
      }

      .cls-2 {
        fill: #fafafa;
      }
    </style>
  </defs>
  <rect class="cls-2" x="5" y="5" width="90" height="90" rx="16" ry="16"/>
  <g>
    <g>
      <polygon class="cls-1" points="71.57 54.46 73.9 56.79 81.71 64.6 81.87 64.6 81.87 64.78 82.67 65.57 85 67.9 82.67 70.23 81.87 71.02 81.87 71.16 81.7 71.16 73.88 78.97 71.55 81.3 66.92 76.64 69.25 74.31 72.4 71.16 58.85 71.16 57.21 71.16 56.22 69.85 30.89 36.08 18.29 36.08 15 36.08 15 29.5 18.29 29.5 32.54 29.5 34.18 29.5 35.17 30.82 60.5 64.58 72.4 64.58 69.25 61.43 66.92 59.1 71.57 54.46"/>
      <polygon class="cls-1" points="73.9 21.69 81.71 29.5 81.87 29.5 81.87 29.68 82.67 30.47 85 32.8 82.67 35.13 81.87 35.93 81.87 36.08 81.7 36.08 73.88 43.89 71.55 46.22 66.92 41.56 69.25 39.23 72.4 36.08 60.5 36.08 52.55 46.67 48.44 41.19 56.22 30.82 57.21 29.5 58.85 29.5 72.4 29.5 69.25 26.35 66.92 24.02 71.57 19.37 73.9 21.7 73.9 21.69"/>
    </g>
    <g>
      <path class="cls-1" d="M30.29,55.48c-.91,0-1.73.54-2.1,1.36l-6.14,13.8c-.81,1.84.97,4.18,3.76,2.87l.86-1.93h7.23l.4.93c.83,1.83,3.72,2.08,4.66-.84l-6.58-14.83c-.36-.83-1.19-1.36-2.1-1.36ZM28.71,66.97l1.58-3.53,1.57,3.53h-3.14Z"/>
      <polygon class="cls-1" points="58.94 76.64 18.99 76.64 18.99 52.72 40.02 52.72 36.03 48.73 15 48.73 15 80.63 62.93 80.63 58.94 76.64"/>
    </g>
  </g>
</svg>