<?xml version="1.0" encoding="UTF-8"?>
<svg id="light" xmlns="http://www.w3.org/2000/svg" viewBox="0 0 100 100">
  <defs>
    <style>
      .cls-1 {
        fill: #68004b;
      }

      .cls-2 {
        fill: #fafafa;
      }

      .cls-3 {
        fill: none;
        stroke: #68004b;
        stroke-miterlimit: 10;
        stroke-width: 6px;
      }
    </style>
  </defs>
  <rect class="cls-2" x="5" y="5" width="90" height="90" rx="16" ry="16"/>
  <g>
    <polyline class="cls-3" points="18.69 66.57 18.69 29.74 81.31 29.74 81.31 66.57"/>
    <line class="cls-3" x1="50" y1="29.74" x2="50" y2="66.57"/>
    <g>
      <path class="cls-2" d="M81.31,72.49c-.08,0-.15,0-.23,0-1.5,0-3.02-.73-4.17-2-1.04-1.15-1.59-2.57-1.52-3.93-.07-1.35.48-2.77,1.52-3.93,1.15-1.27,2.67-2,4.17-2,.08,0,.15,0,.23,0,.08,0,.15,0,.23,0,1.5,0,3.02.73,4.17,2,1.04,1.15,1.59,2.57,1.52,3.93.07,1.35-.48,2.77-1.52,3.93-1.15,1.27-2.67,2-4.17,2,0,0-.15,0-.23,0Z"/>
      <path class="cls-1" d="M81.54,62.87c1.75,0,3.63,1.96,3.45,3.69.18,1.74-1.7,3.69-3.45,3.69-.08,0-.15,0-.23-.01-.08,0-.15.01-.23.01-1.75,0-3.63-1.96-3.45-3.69-.18-1.74,1.7-3.69,3.45-3.69.08,0,.15,0,.23.01.08,0,.15-.01.23-.01M81.53,58.4c-.08,0-.15,0-.23,0-.08,0-.15,0-.23,0-2.13,0-4.26,1-5.83,2.74-1.41,1.56-2.16,3.52-2.1,5.43-.06,1.91.69,3.86,2.1,5.43,1.57,1.74,3.7,2.74,5.83,2.74.08,0,.15,0,.23,0,.08,0,.15,0,.23,0,2.13,0,4.26-1,5.83-2.74,1.41-1.56,2.17-3.52,2.1-5.43.06-1.91-.69-3.86-2.1-5.43-1.57-1.74-3.7-2.74-5.83-2.74h0Z"/>
    </g>
    <g>
      <path class="cls-2" d="M50,72.49c-.08,0-.15,0-.23,0-1.5,0-3.02-.73-4.17-2-1.04-1.15-1.59-2.57-1.52-3.93-.07-1.35.48-2.77,1.52-3.93,1.15-1.27,2.67-2,4.17-2,.08,0,.15,0,.23,0,.08,0,.15,0,.23,0,1.5,0,3.02.73,4.17,2,1.04,1.15,1.59,2.57,1.52,3.93.07,1.35-.48,2.77-1.52,3.93-1.15,1.27-2.67,2-4.17,2,0,0-.15,0-.23,0Z"/>
      <path class="cls-1" d="M50.23,62.87c1.75,0,3.63,1.96,3.45,3.69.18,1.74-1.7,3.69-3.45,3.69-.08,0-.15,0-.23-.01-.08,0-.15.01-.23.01-1.75,0-3.63-1.96-3.45-3.69-.18-1.74,1.7-3.69,3.45-3.69.08,0,.15,0,.23.01.08,0,.15-.01.23-.01M50.23,58.4c-.08,0-.15,0-.23,0-.08,0-.15,0-.23,0-2.13,0-4.26,1-5.83,2.74-1.41,1.56-2.17,3.52-2.1,5.43-.06,1.91.69,3.86,2.1,5.43,1.57,1.74,3.7,2.74,5.83,2.74.08,0,.15,0,.23,0,.08,0,.15,0,.23,0,2.13,0,4.26-1,5.83-2.74,1.41-1.56,2.17-3.52,2.1-5.43.06-1.91-.69-3.86-2.1-5.43-1.57-1.74-3.7-2.74-5.83-2.74h0Z"/>
    </g>
    <g>
      <path class="cls-2" d="M18.69,72.49c-.08,0-.15,0-.23,0-1.5,0-3.02-.73-4.17-2-1.04-1.15-1.59-2.57-1.52-3.93-.07-1.35.48-2.77,1.52-3.93,1.15-1.27,2.67-2,4.17-2,.08,0,.15,0,.23,0,.08,0,.15,0,.23,0,1.5,0,3.02.73,4.17,2,1.04,1.15,1.59,2.57,1.52,3.93.07,1.35-.48,2.77-1.52,3.93-1.15,1.27-2.67,2-4.17,2,0,0-.15,0-.23,0Z"/>
      <path class="cls-1" d="M18.92,62.87c1.75,0,3.63,1.96,3.45,3.69.18,1.74-1.7,3.69-3.45,3.69-.08,0-.15,0-.23-.01-.08,0-.15.01-.23.01-1.75,0-3.63-1.96-3.45-3.69-.18-1.74,1.7-3.69,3.45-3.69.08,0,.15,0,.23.01.08,0,.15-.01.23-.01M18.92,58.4c-.08,0-.15,0-.23,0-.08,0-.15,0-.23,0-2.13,0-4.26,1-5.83,2.74-1.41,1.56-2.17,3.52-2.1,5.43-.06,1.91.69,3.86,2.1,5.43,1.57,1.74,3.7,2.74,5.83,2.74.08,0,.15,0,.23,0,.08,0,.15,0,.23,0,2.13,0,4.26-1,5.83-2.74,1.41-1.56,2.16-3.52,2.1-5.43.06-1.91-.69-3.86-2.1-5.43-1.57-1.74-3.7-2.74-5.83-2.74h0Z"/>
    </g>
  </g>
</svg>