<?xml version="1.0" encoding="UTF-8"?>
<svg id="light" xmlns="http://www.w3.org/2000/svg" viewBox="0 0 100 100">
  <defs>
    <style>
      .cls-1 {
        fill: #68004b;
      }

      .cls-2 {
        fill: #fafafa;
      }
    </style>
  </defs>
  <rect class="cls-2" x="5" y="5" width="90" height="90" rx="16" ry="16"/>
  <path class="cls-1" d="M50,12.5c-15.12,0-27.39,12.27-27.39,27.39,0,15.98,27.39,47.61,27.39,47.61,0,0,27.39-31.63,27.39-47.61,0-15.12-12.26-27.39-27.39-27.39ZM60.35,44.82l2.71,2.71-5.43,5.43-7.64-7.64-7.64,7.64-5.43-5.43,7.64-7.64-7.64-7.64,5.43-5.43,7.64,7.64,7.64-7.64,5.43,5.43-7.64,7.64,4.92,4.92Z"/>
</svg>