<?xml version="1.0" encoding="UTF-8"?>
<svg id="light" xmlns="http://www.w3.org/2000/svg" viewBox="0 0 100 100">
  <defs>
    <style>
      .cls-1 {
        opacity: .3;
      }

      .cls-1, .cls-2, .cls-3 {
        fill: #68004b;
      }

      .cls-3 {
        opacity: .6;
      }

      .cls-4 {
        fill: #fafafa;
      }
    </style>
  </defs>
  <rect class="cls-4" x="5" y="5" width="90" height="90" rx="16" ry="16"/>
  <g>
    <path class="cls-1" d="M82.49,73.44c-5.18,8.98-16.65,12.05-25.62,6.87-2.96-1.71-5.28-4.1-6.87-6.87,3.24-5.61,3.47-12.74,0-18.75,3.47-6.01,9.76-9.37,16.24-9.38,3.18-.01,6.42.8,9.38,2.51,8.97,5.18,12.05,16.65,6.87,25.62Z"/>
    <path class="cls-2" d="M68.76,35.93c0,3.42-.91,6.62-2.52,9.38-6.48.01-12.77,3.37-16.24,9.38-6.94,0-13-3.77-16.24-9.38-1.61-2.76-2.52-5.96-2.52-9.38,0-10.36,8.4-18.76,18.76-18.76s18.76,8.4,18.76,18.76Z"/>
    <path class="cls-3" d="M50,73.44c-1.59,2.77-3.91,5.16-6.87,6.87-8.97,5.18-20.44,2.11-25.62-6.87-5.18-8.97-2.1-20.44,6.87-25.62,2.96-1.71,6.2-2.52,9.38-2.51,3.24,5.61,9.3,9.38,16.24,9.38,3.47,6.01,3.24,13.14,0,18.75Z"/>
  </g>
</svg>