<?xml version="1.0" encoding="UTF-8"?>
<svg id="light" xmlns="http://www.w3.org/2000/svg" viewBox="0 0 100 100">
  <defs>
    <style>
      .cls-1, .cls-2 {
        opacity: .3;
      }

      .cls-1, .cls-3 {
        fill: #68004b;
      }

      .cls-4 {
        stroke-width: 3px;
      }

      .cls-4, .cls-5 {
        fill: none;
        stroke: #68004b;
        stroke-miterlimit: 10;
      }

      .cls-6 {
        fill: #fafafa;
      }
    </style>
  </defs>
  <rect class="cls-6" x="5" y="5" width="90" height="90" rx="16" ry="16"/>
  <g>
    <g class="cls-2">
      <polygon class="cls-3" points="77.08 50 77.02 54.72 76.88 57.04 76.57 59.29 76.05 61.43 75.7 62.44 75.25 63.49 74.76 64.41 74.31 65.12 73.63 66.04 72.93 66.85 71.33 68.37 69.53 69.76 67.6 71.04 63.54 73.45 59.42 75.76 57.34 76.79 55.24 77.66 53.13 78.28 52.08 78.48 50.94 78.61 50.1 78.65 49.06 78.61 47.92 78.48 46.87 78.28 44.76 77.66 42.66 76.79 40.58 75.76 36.46 73.45 32.4 71.04 30.47 69.76 28.67 68.37 27.07 66.85 26.37 66.04 25.69 65.12 25.24 64.41 24.75 63.49 24.3 62.44 23.95 61.43 23.43 59.29 23.12 57.04 22.98 54.72 22.92 50 22.98 45.28 23.12 42.96 23.43 40.71 23.95 38.57 24.3 37.56 24.75 36.51 25.24 35.59 25.69 34.88 26.37 33.96 27.07 33.15 28.67 31.63 30.47 30.24 32.4 28.96 36.46 26.55 36.72 26.41 40.58 24.24 42.66 23.21 44.76 22.34 46.87 21.72 47.92 21.52 49.06 21.39 50.1 21.35 50.94 21.39 52.08 21.52 53.13 21.72 55.24 22.34 57.34 23.21 59.42 24.24 63.28 26.41 63.54 26.55 67.6 28.96 69.53 30.24 71.33 31.63 72.93 33.15 73.63 33.96 74.31 34.88 74.76 35.59 75.25 36.51 75.7 37.56 76.05 38.57 76.57 40.71 76.88 42.96 77.02 45.28 77.08 50"/>
    </g>
    <polygon class="cls-1" points="77.02 54.72 76.88 57.04 76.57 59.29 76.05 61.43 75.7 62.44 75.25 63.49 74.76 64.41 74.31 65.12 73.63 66.04 72.93 66.85 71.33 68.37 69.53 69.76 67.6 71.04 63.54 73.45 59.42 75.76 57.34 76.79 55.24 77.66 53.13 78.28 52.08 78.48 50.94 78.61 50.1 78.65 50 78.65 50 50 63.54 42.18 66.25 40.62 74.81 35.68 75.25 36.51 75.7 37.56 76.05 38.57 76.57 40.71 76.88 42.96 77.02 45.28 77.08 50 77.02 54.72"/>
    <g>
      <path class="cls-5" d="M33.75,59.38l.04,4.62c.04,1.49.13,2.91.3,4.18l.32,1.79.48,1.51c.19.45.41.85.67,1.18.26.33.56.6.89.8"/>
      <path class="cls-5" d="M50,65.64l2.03-.14,2.03-.4,2.03-.62,2.03-.8c1.35-.59,2.71-1.27,4.06-2l4.06-2.3"/>
      <path class="cls-5" d="M36.46,42.18l-.89,1.83-.67,1.96-.48,2.07-.32,2.16c-.17,1.47-.25,2.98-.3,4.52l-.04,4.67-3.98-2.35c-1.27-.78-2.45-1.56-3.47-2.35l-1.39-1.17-1.07-1.17c-.3-.39-.53-.78-.69-1.17s-.24-.78-.24-1.17"/>
      <path class="cls-5" d="M77.08,50c0,.39-.08.78-.24,1.17s-.39.78-.69,1.17l-1.07,1.17-1.39,1.17c-1.02.78-2.2,1.56-3.47,2.35l-3.98,2.35"/>
      <path class="cls-5" d="M50,65.64l-2.03-.14-2.03-.4-2.03-.62-2.03-.8c-1.35-.59-2.71-1.27-4.06-2l-4.06-2.3"/>
      <path class="cls-5" d="M63.54,26.55c-.34-.2-.72-.32-1.14-.38s-.87-.05-1.36,0l-1.55.34-1.71.61c-1.18.49-2.45,1.12-3.77,1.83l-4.02,2.27,4.02,2.37c1.31.81,2.58,1.64,3.77,2.52l1.71,1.36,1.55,1.45,1.36,1.56,1.14,1.69"/>
      <path class="cls-5" d="M63.54,73.45c.34-.2.63-.46.89-.8.26-.33.48-.73.67-1.18l.48-1.51.32-1.79c.17-1.27.25-2.69.3-4.18l.04-4.62"/>
      <path class="cls-5" d="M36.46,26.55c.34-.2.72-.32,1.14-.38.42-.06.87-.05,1.36,0l1.55.34,1.71.61c1.18.49,2.45,1.12,3.77,1.83l4.02,2.27-4.02,2.37c-1.31.81-2.58,1.64-3.77,2.52l-1.71,1.36-1.55,1.45-1.36,1.56-1.14,1.69"/>
      <path class="cls-5" d="M63.54,42.18l.89,1.83.67,1.96.48,2.07.32,2.16c.17,1.47.25,2.98.3,4.52l.04,4.67"/>
      <polyline class="cls-5" points="63.54 26.55 67.6 28.96 69.53 30.24 71.33 31.63 72.93 33.15 73.63 33.96 74.31 34.88 74.76 35.59 75.25 36.51 75.7 37.56 76.05 38.57 76.57 40.71 76.88 42.96 77.02 45.28 77.08 50 77.02 54.72 76.88 57.04 76.57 59.29 76.05 61.43 75.7 62.44 75.25 63.49 74.76 64.41 74.31 65.12 73.63 66.04 72.93 66.85 71.33 68.37 69.53 69.76 67.6 71.04 63.54 73.45"/>
      <polyline class="cls-5" points="36.46 26.55 40.58 24.24 42.66 23.21 44.76 22.34 46.87 21.72 47.92 21.52 49.06 21.39 50.1 21.35 50.94 21.39 52.08 21.52 53.13 21.72 55.24 22.34 57.34 23.21 59.42 24.24 63.54 26.55"/>
      <polyline class="cls-5" points="22.92 50 22.98 45.28 23.12 42.96 23.43 40.71 23.95 38.57 24.3 37.56 24.75 36.51 25.24 35.59 25.69 34.88 26.37 33.96 27.07 33.15 28.67 31.63 30.47 30.24 32.4 28.96 36.46 26.55"/>
      <polyline class="cls-5" points="63.54 73.45 59.42 75.76 57.34 76.79 55.24 77.66 53.13 78.28 52.08 78.48 50.94 78.61 50.1 78.65 49.06 78.61 47.92 78.48 46.87 78.28 44.76 77.66 42.66 76.79 40.58 75.76 36.46 73.45"/>
      <polyline class="cls-5" points="36.46 73.45 32.4 71.04 30.47 69.76 28.67 68.37 27.07 66.85 26.37 66.04 25.69 65.12 25.24 64.41 24.75 63.49 24.3 62.44 23.95 61.43 23.43 59.29 23.12 57.04 22.98 54.72 22.92 50"/>
    </g>
    <g>
      <polyline class="cls-5" points="82.5 31.24 66.25 40.62 50 50 33.75 40.62 17.5 31.24"/>
      <polygon class="cls-4" points="17.5 68.76 33.75 78.15 50 87.53 66.25 78.15 82.5 68.76 82.5 50 82.5 31.24 66.25 21.85 50 12.47 33.75 21.85 17.5 31.24 17.5 50 17.5 68.76"/>
      <polyline class="cls-5" points="50 87.53 50 68.76 50 50"/>
    </g>
  </g>
</svg>