<?xml version="1.0" encoding="UTF-8"?>
<svg id="default" xmlns="http://www.w3.org/2000/svg" viewBox="0 0 192.78 215.8">
  <defs>
    <style>
      .cls-1 {
        fill: #fafafa;
      }
    </style>
  </defs>
  <path class="cls-1" d="M125.82,44.93c2.3-1.63,8.09-1.63,10.39,0,2.81,1.33,2.81,4.67,0,6l-54.56,31.5c-9.6,5.54-14.69,14.36-14.69,25.45v86.02l.33,4.39c.53,3.05,1.67,5.08,3.41,6.08l14.74,8.51c6.75,3.9,15.14,3.9,21.89,0l74.5-43.01c6.75-3.9,10.94-11.16,10.94-18.96v-16.96c-.04,2.83-2.44,5.67-7.2,8.41l-54.56,31.5c-2.56,1.77-5.45.1-5.19-3-.26-2.8,2.64-7.82,5.19-9l54.56-31.5,3.64-2.48c2.38-1.98,3.56-3.99,3.56-6v-27.92c-.04,2.83-2.44,5.67-7.2,8.41l-54.56,31.5c-2.56,1.77-5.45.1-5.19-3-.26-2.8,2.64-7.82,5.19-9l54.56-31.5,3.64-2.48c2.38-1.98,3.56-3.99,3.56-6v-17.02c0-7.79-4.2-15.06-10.94-18.96L107.33,2.92c-6.75-3.9-15.14-3.9-21.89,0L10.94,45.93c-6.75,3.9-10.94,11.16-10.94,18.96v86.02c0,7.79,4.2,15.06,10.94,18.96l14.68,8.48c-2.44-1.45-3.69-4.94-3.69-10.44v-86.02c0-11.08,5.09-19.9,14.69-25.45l54.56-31.5c2.3-1.63,8.09-1.63,10.39,0,2.81,1.33,2.81,4.67,0,6l-54.56,31.5c-9.6,5.54-14.69,14.36-14.69,25.45v86.02l.33,4.39c.53,3.05,1.67,5.08,3.41,6.08l24.18,13.96c-2.44-1.45-3.69-4.94-3.69-10.44v-86.02c0-11.08,5.09-19.9,14.69-25.45l54.56-31.5Z"/>
</svg>