<?xml version="1.0" encoding="UTF-8"?>
<svg id="light" xmlns="http://www.w3.org/2000/svg" viewBox="0 0 100 100">
  <defs>
    <style>
      .cls-1, .cls-2 {
        fill: #68004b;
      }

      .cls-2 {
        opacity: .6;
      }

      .cls-3 {
        fill: #fafafa;
      }
    </style>
  </defs>
  <rect class="cls-3" x="5" y="5" width="90" height="90" rx="16" ry="16"/>
  <g>
    <path class="cls-1" d="M74.38,50c0-1.38-.11-2.74-.34-4.08l1.18-1.18,5.47-5.47c1.18,3.36,1.81,6.97,1.81,10.73,0,17.95-14.55,32.5-32.5,32.5s-32.5-14.55-32.5-32.5,14.55-32.5,32.5-32.5c3.76,0,7.36.63,10.73,1.82l-5.47,5.47-1.18,1.18c-1.33-.23-2.69-.34-4.07-.34-13.46,0-24.38,10.92-24.38,24.38s10.92,24.38,24.38,24.38,24.38-10.92,24.38-24.38Z"/>
    <path class="cls-2" d="M64.02,44.6l3.63.61c.42,1.52.64,3.14.64,4.79,0,10.09-8.19,18.28-18.28,18.28s-18.28-8.19-18.28-18.28,8.19-18.28,18.28-18.28c1.66,0,3.26.22,4.79.63l.61,3.63-3.96,3.96c-.47-.06-.95-.1-1.44-.1-5.61,0-10.16,4.55-10.16,10.16s4.55,10.16,10.16,10.16,10.16-4.55,10.16-10.16c0-.48-.04-.96-.1-1.43l3.96-3.96Z"/>
    <polygon class="cls-1" points="72.81 41.41 72.34 41.88 63.85 40.45 51.14 53.17 46.83 48.86 59.55 36.15 58.12 27.66 58.6 27.19 64.75 21.03 68.28 17.5 71.54 25.68 72.34 27.66 74.32 28.46 82.5 31.72 78.97 35.25 72.81 41.41"/>
  </g>
</svg>