<?xml version="1.0" encoding="UTF-8"?>
<svg id="light" xmlns="http://www.w3.org/2000/svg" viewBox="0 0 100 100">
  <defs>
    <style>
      .cls-1 {
        opacity: .6;
      }

      .cls-2 {
        fill: #68004b;
      }

      .cls-3 {
        fill: #fafafa;
      }

      .cls-4 {
        fill: none;
        stroke: #68004b;
        stroke-linecap: square;
        stroke-miterlimit: 10;
        stroke-width: 3px;
      }
    </style>
  </defs>
  <rect class="cls-3" x="5" y="5" width="90" height="90" rx="16" ry="16"/>
  <g>
    <g class="cls-1">
      <g>
        <polygon class="cls-2" points="72.78 65.31 53.33 65.31 63.06 48.47 82.5 48.47 72.78 65.31"/>
        <polygon class="cls-2" points="43.61 82.15 24.17 82.15 33.89 65.31 53.33 65.31 43.61 82.15"/>
      </g>
      <polygon class="cls-4" points="43.61 48.47 82.5 48.47 63.06 82.15 24.17 82.15 43.61 48.47"/>
    </g>
    <g>
      <g>
        <polygon class="cls-3" points="56.39 50.83 36.94 50.83 46.67 33.99 66.11 33.99 56.39 50.83"/>
        <polygon class="cls-2" points="66.11 33.99 46.67 33.99 56.39 17.15 75.83 17.15 66.11 33.99"/>
        <polygon class="cls-2" points="36.94 50.83 17.5 50.83 27.22 33.99 46.67 33.99 36.94 50.83"/>
        <polygon class="cls-3" points="46.67 33.99 27.22 33.99 36.94 17.15 56.39 17.15 46.67 33.99"/>
      </g>
      <polygon class="cls-4" points="36.94 17.15 75.83 17.15 56.39 50.83 17.5 50.83 36.94 17.15"/>
    </g>
  </g>
</svg>