<?xml version="1.0" encoding="UTF-8"?>
<svg id="light" xmlns="http://www.w3.org/2000/svg" viewBox="0 0 100 100">
  <defs>
    <style>
      .cls-1 {
        fill: #68004b;
      }

      .cls-2 {
        fill: #fafafa;
      }
    </style>
  </defs>
  <rect class="cls-2" x="5" y="5" width="90" height="90" rx="16" ry="16"/>
  <path class="cls-1" d="M71.21,35.28l.67.64v5.3h-6.18l10.02,11.7.53.62v5.18h-6.18l10.02,11.7.53.62v5.18h-28.44v8.75h-4.37v-8.75h-28.44v-5.18l.53-.62,10.02-11.7h-6.18v-5.18l.53-.62,10.02-11.7h-6.18v-5.3l.67-.66,19.69-18.81,1.52-1.44,1.52,1.44,19.69,18.83ZM58.75,71.85h16.8l-11.91-13.89-3.09-3.61h10.62l-11.91-13.89-3.09-3.61h10.34l-16.52-15.79-16.52,15.79h10.34l-3.09,3.61-11.91,13.89h10.62l-3.09,3.61-11.91,13.89h23.37v-30.62h4.37v30.62h6.56Z"/>
</svg>