<?xml version="1.0" encoding="UTF-8"?>
<svg id="light" xmlns="http://www.w3.org/2000/svg" viewBox="0 0 100 100">
  <defs>
    <style>
      .cls-1 {
        fill: #68004b;
      }

      .cls-2 {
        fill: #fafafa;
      }
    </style>
  </defs>
  <rect class="cls-2" x="5" y="5" width="90" height="90" rx="16" ry="16"/>
  <path class="cls-1" d="M85,39.33v21.33c0,.98-.51,1.95-1.33,2.5l-31.99,21.33c-1.1.68-2.27.67-3.36,0l-31.99-21.33c-.82-.55-1.33-1.52-1.33-2.5v-21.33c0-.98.51-1.95,1.33-2.5l31.99-21.33c1.1-.68,2.27-.67,3.36,0l31.99,21.33c.82.55,1.33,1.52,1.33,2.5ZM21.02,55.04l7.54-5.04-7.54-5.04v10.08ZM23.44,39.33l10.51,7.03,13.05-8.71v-14.02l-23.55,15.7ZM46.99,62.34l-13.05-8.71-10.51,7.03,23.55,15.7v-14.02ZM60.63,50l-10.63-7.11-10.63,7.11,10.63,7.11,10.63-7.11ZM53.01,37.65l13.05,8.71,10.51-7.03-23.55-15.7v14.02ZM76.56,60.66l-10.51-7.03-13.05,8.71v14.02l23.55-15.7ZM78.98,44.96l-7.54,5.04,7.54,5.04v-10.08Z"/>
</svg>