<?xml version="1.0" encoding="UTF-8"?>
<svg id="light" xmlns="http://www.w3.org/2000/svg" viewBox="0 0 100 100">
  <defs>
    <style>
      .cls-1 {
        fill: #68004b;
      }

      .cls-2 {
        fill: #fafafa;
      }
    </style>
  </defs>
  <rect class="cls-2" x="5" y="5" width="90" height="90" rx="16" ry="16"/>
  <polygon class="cls-1" points="63.48 27.85 77.03 23.98 73.16 37.53 80.9 41.4 65.42 53.01 75.1 53.01 73.16 60.75 79.94 66.56 73.16 72.36 74.13 80.11 51.87 74.3 48 80.11 41.18 67.82 29.88 79.1 27.82 81.16 23.72 77.05 25.78 74.99 48.93 51.84 46.23 49.14 44.87 50.51 34.71 60.67 20.9 53.01 26.71 49.14 20.9 26.88 28.65 27.85 34.45 21.07 40.26 27.85 48 25.91 48 35.59 59.61 20.11 63.48 27.85"/>
</svg>