<?xml version="1.0" encoding="UTF-8"?>
<svg id="light" xmlns="http://www.w3.org/2000/svg" viewBox="0 0 100 100">
  <defs>
    <style>
      .cls-1 {
        fill: #68004b;
      }

      .cls-2 {
        fill: #fafafa;
      }
    </style>
  </defs>
  <rect class="cls-2" x="5" y="5" width="90" height="90" rx="16" ry="16"/>
  <g>
    <path class="cls-1" d="M15,45.62c0-12.08,9.79-21.87,21.87-21.87h26.87v-8.75s13.12,13.12,13.12,13.12l-13.12,13.12v-8.75s-26.87,0-26.87,0c-7.25,0-13.13,5.88-13.13,13.13h-8.74Z"/>
    <path class="cls-1" d="M85,54.38c0,12.08-9.79,21.87-21.87,21.87h-26.87v8.75s-13.12-13.12-13.12-13.12l13.12-13.12v8.75s26.87,0,26.87,0c7.25,0,13.13-5.88,13.13-13.13h8.74Z"/>
    <polygon class="cls-1" points="43.47 49.02 43.47 42.7 48.11 40.14 53.45 40.14 53.45 59.82 46.55 59.82 46.55 47.36 43.47 49.02"/>
  </g>
</svg>