<?xml version="1.0" encoding="UTF-8"?>
<svg id="light" xmlns="http://www.w3.org/2000/svg" viewBox="0 0 100 100">
  <defs>
    <style>
      .cls-1, .cls-2 {
        fill: #68004b;
      }

      .cls-2 {
        opacity: .6;
      }

      .cls-3 {
        fill: #fafafa;
      }
    </style>
  </defs>
  <rect class="cls-3" x="5" y="5" width="90" height="90" rx="16" ry="16"/>
  <g>
    <path class="cls-1" d="M67.19,25.64c3.37-3.37,8.81-3.37,12.18,0,.84.84.84,2.2,0,3.04l-33.62,33.62c.57,1.5.89,3.12.89,4.82,0,7.36-5.96,13.32-13.32,13.32s-13.32-5.96-13.32-13.32,5.96-13.32,13.32-13.32c1.7,0,3.32.31,4.82.89l4.7-4.7-4.7-4.7c-1.5.57-3.12.89-4.82.89-7.36,0-13.32-5.96-13.32-13.32s5.96-13.32,13.32-13.32,13.32,5.96,13.32,13.32c0,1.7-.31,3.32-.89,4.82l4.7,4.7,16.74-16.74ZM30.47,37.82c1.77,1.02,3.94,1.02,5.71,0,1.77-1.02,2.85-2.9,2.85-4.94s-1.09-3.92-2.85-4.94c-1.77-1.02-3.94-1.02-5.71,0-1.77,1.02-2.85,2.9-2.85,4.94s1.09,3.92,2.85,4.94ZM28.38,64.27c-1.02,1.77-1.02,3.94,0,5.71,1.02,1.77,2.9,2.85,4.94,2.85s3.92-1.09,4.94-2.85c1.02-1.77,1.02-3.94,0-5.71-1.02-1.77-2.9-2.85-4.94-2.85s-3.92,1.09-4.94,2.85Z"/>
    <path class="cls-2" d="M60.74,52.69l18.62,18.62c.84.84.84,2.2,0,3.04-3.37,3.37-8.81,3.37-12.18,0l-14.06-14.06,7.61-7.61Z"/>
  </g>
</svg>