<?xml version="1.0" encoding="UTF-8"?>
<svg id="light" xmlns="http://www.w3.org/2000/svg" viewBox="0 0 100 100">
  <defs>
    <style>
      .cls-1 {
        fill: none;
        stroke: #68004b;
        stroke-linecap: square;
        stroke-miterlimit: 10;
        stroke-width: 6px;
      }

      .cls-2 {
        fill: #68004b;
        opacity: .6;
      }

      .cls-3 {
        fill: #fafafa;
      }
    </style>
  </defs>
  <rect class="cls-3" x="5" y="5" width="90" height="90" rx="16" ry="16"/>
  <path class="cls-2" d="M84.06,15.94c1.26,1.26,1.26,3.29,0,4.55l-6.06,6.06,6.06,6.06c1.26,1.26,1.26,3.29,0,4.55s-3.29,1.26-4.55,0l-6.06-6.06-6.06,6.06c-1.26,1.26-3.29,1.26-4.55,0-1.26-1.26-1.26-3.29,0-4.55l6.06-6.06-6.06-6.06c-1.26-1.26-1.26-3.29,0-4.55s3.29-1.26,4.55,0l6.06,6.06,6.06-6.06c1.26-1.26,3.29-1.26,4.55,0Z"/>
  <path class="cls-1" d="M17.5,46.96c1.92-13.8,13.84-22.73,23.03-16.56,9.19,6.17,9.15,25.2,15.54,34.99,3.5,6.15,10.91,8.13,17.12,4.11,6.21-4.02,8-10.04,9.32-16.4"/>
</svg>