<?xml version="1.0" encoding="UTF-8"?>
<svg id="light" xmlns="http://www.w3.org/2000/svg" viewBox="0 0 100 100">
  <defs>
    <style>
      .cls-1 {
        opacity: .3;
      }

      .cls-1, .cls-2 {
        fill: #68004b;
      }

      .cls-3 {
        fill: none;
        stroke: #68004b;
        stroke-linecap: round;
        stroke-linejoin: round;
        stroke-width: 2px;
      }

      .cls-2 {
        opacity: .6;
      }

      .cls-4 {
        fill: #fafafa;
      }
    </style>
  </defs>
  <rect class="cls-4" x="5" y="5" width="90" height="90" rx="16" ry="16"/>
  <g>
    <polygon class="cls-1" points="62.86 17.83 62.86 37.63 45.71 47.53 45.71 27.73 54.29 22.78 62.86 17.83"/>
    <polygon class="cls-4" points="80 27.73 62.86 37.63 62.86 27.73 71.43 22.78 80 27.73"/>
    <polygon class="cls-4" points="45.71 47.53 28.57 57.42 20 52.47 37.14 42.58 45.71 47.53"/>
    <polygon class="cls-4" points="28.57 57.42 28.57 67.32 20 72.27 20 52.47 28.57 57.42"/>
    <polygon class="cls-4" points="28.57 67.32 28.57 77.22 20 72.27 28.57 67.32"/>
    <polygon class="cls-4" points="80 27.73 80 47.53 62.86 57.42 45.71 67.32 37.14 72.27 28.57 77.22 28.57 57.42 45.71 47.53 62.86 37.63 80 27.73"/>
    <polygon class="cls-2" points="45.71 67.32 45.71 87.12 37.14 82.17 37.14 72.27 45.71 67.32"/>
    <polygon class="cls-1" points="62.86 57.42 62.86 77.22 45.71 87.12 45.71 67.32 62.86 57.42"/>
    <polygon class="cls-2" points="45.71 27.73 45.71 47.53 37.14 42.58 37.14 22.78 45.71 27.73"/>
    <polygon class="cls-1" points="54.29 12.88 54.29 22.78 45.71 27.73 37.14 22.78 54.29 12.88"/>
    <polygon class="cls-2" points="62.86 17.83 54.29 22.78 54.29 12.88 62.86 17.83"/>
    <g>
      <polygon class="cls-3" points="62.86 17.83 62.86 37.63 45.71 47.53 45.71 27.73 54.29 22.78 62.86 17.83"/>
      <polygon class="cls-3" points="80 27.73 62.86 37.63 62.86 27.73 71.43 22.78 80 27.73"/>
      <polygon class="cls-3" points="45.71 47.53 28.57 57.42 20 52.47 37.14 42.58 45.71 47.53"/>
      <polygon class="cls-3" points="28.57 57.42 28.57 67.32 20 72.27 20 52.47 28.57 57.42"/>
      <polygon class="cls-3" points="28.57 67.32 28.57 77.22 20 72.27 28.57 67.32"/>
      <polygon class="cls-3" points="80 27.73 80 47.53 62.86 57.42 45.71 67.32 37.14 72.27 28.57 77.22 28.57 57.42 45.71 47.53 62.86 37.63 80 27.73"/>
      <polygon class="cls-3" points="45.71 67.32 45.71 87.12 37.14 82.17 37.14 72.27 45.71 67.32"/>
      <polygon class="cls-3" points="62.86 57.42 62.86 77.22 45.71 87.12 45.71 67.32 62.86 57.42"/>
      <polygon class="cls-3" points="45.71 27.73 45.71 47.53 37.14 42.58 37.14 22.78 45.71 27.73"/>
      <polygon class="cls-3" points="54.29 12.88 54.29 22.78 45.71 27.73 37.14 22.78 54.29 12.88"/>
      <polygon class="cls-3" points="62.86 17.83 54.29 22.78 54.29 12.88 62.86 17.83"/>
    </g>
  </g>
</svg>