<?xml version="1.0" encoding="UTF-8"?>
<svg id="default" xmlns="http://www.w3.org/2000/svg" viewBox="0 0 100 100">
  <defs>
    <style>
      .cls-1 {
        fill: #68004b;
      }

      .cls-2 {
        fill: #fafafa;
      }
    </style>
  </defs>
  <rect class="cls-2" x="5" y="5" width="90" height="90" rx="16" ry="16"/>
  <path class="cls-1" d="M21.43,31.25c0-3.45,2.8-6.25,6.25-6.25h44.64c3.45,0,6.25,2.8,6.25,6.25v37.5c0,3.45-2.8,6.25-6.25,6.25H27.68c-3.45,0-6.25-2.8-6.25-6.25V31.25ZM27.68,30.36c-.49,0-.89.4-.89.89v37.5c0,.49.4.89.89.89h44.64c.49,0,.89-.4.89-.89V31.25c0-.49-.4-.89-.89-.89H27.68ZM47.32,50c0,.71-.28,1.39-.79,1.89l-8.04,8.04c-1.01,1.08-2.7,1.15-3.78.14-.38-.35-.65-.8-.77-1.3-.24-.95.05-1.95.77-2.62l6.14-6.14-6.14-6.14c-1.08-1.01-1.15-2.7-.14-3.78.35-.38.8-.65,1.3-.77.95-.24,1.95.05,2.62.77l8.04,8.04c.5.5.79,1.18.79,1.89ZM52.68,55.36h10.71c1.48,0,2.68,1.2,2.68,2.68s-1.2,2.68-2.68,2.68h-10.71c-1.48,0-2.68-1.2-2.68-2.68s1.2-2.68,2.68-2.68Z"/>
</svg>