<?xml version="1.0" encoding="UTF-8"?>
<svg id="light" xmlns="http://www.w3.org/2000/svg" viewBox="0 0 100 100">
  <defs>
    <style>
      .cls-1 {
        opacity: .3;
      }

      .cls-1, .cls-2 {
        fill: #68004b;
      }

      .cls-3 {
        stroke-linecap: round;
        stroke-width: .5px;
      }

      .cls-3, .cls-4 {
        fill: none;
        stroke: #68004b;
        stroke-linejoin: round;
      }

      .cls-5 {
        fill: #fafafa;
      }
    </style>
  </defs>
  <rect class="cls-5" x="5" y="5" width="90" height="90" rx="16" ry="16"/>
  <g>
    <path class="cls-4" d="M80,63.09v-16.89c-.3-1.19-.62-2.34-.95-3.41-.33-1.07-.66-2.1-1-3.05-.67-1.91-1.38-3.64-2.07-5.13-.69-1.48-1.39-2.79-2.07-3.78-.34-.5-.68-.93-1-1.27-.21-.22-.42-.4-.63-.52-1.03-.64-2.08-1.21-3.17-1.74-.35-.17-.7-.33-1.06-.49-1.34-.6-2.74-1.11-4.14-1.55-1.84-.58-3.72-1.04-5.59-1.39-1.87-.35-3.76-.58-5.62-.69-.39-.02-.77-.04-1.16-.05-2.93-.1-5.86.08-8.74.52-1.8.28-3.57.66-5.3,1.15-1.12.32-2.27.75-3.41,1.26-1.36.61-2.75,1.35-4.12,2.2-1.37.85-2.75,1.81-4.09,2.89-1.02.81-2.04,1.71-3.03,2.66-.98.95-1.96,2-2.86,3.12v16.89c.37,1.49.8,2.96,1.26,4.42.44,1.38.9,2.69,1.36,3.88.46,1.19.93,2.3,1.39,3.3.46,1,.93,1.91,1.39,2.7.46.79.92,1.48,1.36,2,.32.38.64.68.94.87,1.03.64,2.08,1.21,3.17,1.74.35.17.7.33,1.06.49,1.34.6,2.74,1.11,4.14,1.55,3.51,1.11,7.25,1.8,10.8,2.05.52.04,1.05.06,1.57.08.13,0,.26,0,.4.01,2.79.07,5.6-.11,8.35-.54,1.75-.27,3.48-.64,5.17-1.11.04-.01.09-.02.13-.04,1.22-.34,2.47-.82,3.72-1.4,2.6-1.2,5.34-2.9,7.91-4.95,1.02-.81,2.04-1.71,3.03-2.66.98-.95,1.96-2,2.86-3.12Z"/>
    <path class="cls-1" d="M28.04,54.23c-.3-1.19-.62-2.34-.95-3.41-.33-1.07-.66-2.1-1-3.05-.67-1.91-1.38-3.64-2.07-5.13-.69-1.48-1.39-2.79-2.07-3.78-.34-.5-.68-.93-1-1.27-.33-.33-.65-.58-.95-.68v16.89c.37,1.49.8,2.96,1.26,4.42.44,1.38.9,2.69,1.36,3.88.46,1.19.93,2.3,1.39,3.3.46,1,.93,1.91,1.39,2.7.46.79.92,1.48,1.36,2,.32.38.64.68.94.87,0,0,.01,0,.02.01.1.06.19.11.3.14v-16.89Z"/>
    <path class="cls-1" d="M30.88,72.71c.35.17.7.33,1.06.49,1.34.6,2.74,1.11,4.14,1.55,3.51,1.11,7.25,1.8,10.8,2.05.52.04,1.05.06,1.57.08,1.41.05,2.81.02,4.17-.09,1.86-.15,3.74-.47,5.41-1.03v-16.89c-1.62-1.04-3.42-1.91-5.21-2.63-1.8-.72-3.67-1.3-5.53-1.77-1.86-.46-3.75-.81-5.62-1.05-1.87-.23-3.75-.35-5.59-.34-1.4,0-2.79.1-4.14.28-1.34.18-2.67.46-3.9.87v16.89c.81.52,1.67,1,2.54,1.43.1.05.2.1.31.15Z"/>
    <path class="cls-5" d="M28.04,54.23c1.23-.41,2.56-.69,3.9-.87,1.34-.18,2.74-.27,4.14-.28,1.84-.01,3.72.11,5.59.34,1.87.23,3.76.58,5.62,1.05,1.86.46,3.73,1.05,5.53,1.77,1.79.71,3.6,1.59,5.21,2.63,1.18-1.47,2.51-2.83,3.82-4.02,1.32-1.2,2.69-2.29,4.05-3.25,1.36-.96,2.75-1.82,4.12-2.55,1.37-.73,2.75-1.36,4.09-1.84,1.02-.36,2.04-.65,3.03-.83.98-.18,1.96-.26,2.86-.18-.3-1.19-.62-2.34-.95-3.41-.33-1.07-.66-2.1-1-3.05-.67-1.91-1.38-3.64-2.07-5.13-.69-1.48-1.39-2.79-2.07-3.78-.34-.5-.68-.93-1-1.27-.21-.22-.42-.4-.63-.52,0,0-.01,0-.02-.01-.1-.06-.19-.11-.3-.14-.8-.51-1.65-.99-2.51-1.42-.11-.06-.23-.11-.34-.17-.35-.17-.7-.33-1.06-.49-1.34-.6-2.74-1.11-4.14-1.55-1.84-.58-3.72-1.04-5.59-1.39-1.87-.35-3.76-.58-5.62-.69-.39-.02-.77-.04-1.16-.05-2.93-.1-5.86.08-8.74.52-1.8.28-3.57.66-5.3,1.15-1.12.32-2.27.75-3.41,1.26-1.36.61-2.75,1.35-4.12,2.2-1.37.85-2.75,1.81-4.09,2.89-1.02.81-2.04,1.71-3.03,2.66-.98.95-1.96,2-2.86,3.12.3.1.62.35.95.68.33.33.66.77,1,1.27.67,1,1.38,2.3,2.07,3.78.69,1.48,1.39,3.22,2.07,5.13.34.96.68,1.98,1,3.05.33,1.07.65,2.22.95,3.41Z"/>
    <path class="cls-1" d="M80,46.2c-.9-.08-1.88,0-2.86.18-.98.18-2.01.47-3.03.83-1.35.48-2.73,1.11-4.09,1.84-1.37.73-2.75,1.59-4.12,2.55-1.36.96-2.73,2.05-4.05,3.25-1.31,1.19-2.63,2.55-3.82,4.02v16.89c1.23.11,2.6-.07,3.96-.42.16-.04.32-.08.48-.13,0,0,0,0,.01,0,1.22-.34,2.47-.82,3.72-1.4,2.6-1.2,5.34-2.9,7.91-4.95,1.02-.81,2.04-1.71,3.03-2.66.98-.95,1.96-2,2.86-3.12v-16.89Z"/>
    <path class="cls-1" d="M59.88,34.15c1.04.6,2.05,1.38,2.81,2.33.77.96,1.28,2.11,1.28,3.37,0,1.06-.36,2.04-.93,2.9-.57.86-1.34,1.58-2.17,2.17.41-.2.81-.41,1.21-.63,1.28-.74,2.51-1.68,3.44-2.85.94-1.17,1.56-2.57,1.56-4.12s-.63-2.95-1.56-4.12c-.93-1.17-2.16-2.11-3.44-2.85-1.8-1.04-3.84-1.75-5.85-2.21-2.03-.46-4.15-.68-6.23-.68-2.08,0-4.2.22-6.23.68-2.01.45-4.05,1.17-5.85,2.21-1.28.74-2.51,1.68-3.44,2.85-.94,1.17-1.56,2.57-1.56,4.12s.63,2.95,1.56,4.12c.93,1.17,2.16,2.11,3.44,2.85.39.23.8.44,1.21.63-.83-.59-1.6-1.32-2.17-2.17-.58-.86-.93-1.84-.93-2.9s.35-2.01.91-2.87c.56-.85,1.32-1.57,2.14-2.16,1.63-1.18,3.64-1.96,5.58-2.42,2.51-.6,5.22-.75,7.78-.49,1.29.13,2.59.37,3.84.74,1.24.36,2.48.85,3.6,1.5Z"/>
    <path class="cls-2" d="M63.98,39.86c0-1.27-.51-2.41-1.28-3.37-.76-.96-1.77-1.73-2.82-2.33-1.12-.65-2.36-1.14-3.61-1.5-1.25-.36-2.55-.6-3.84-.74-2.56-.26-5.27-.11-7.78.49-1.93.46-3.94,1.24-5.57,2.42-.82.59-1.58,1.31-2.14,2.16-.56.86-.91,1.83-.91,2.87s.36,2.04.93,2.9c.57.86,1.34,1.58,2.17,2.17,1.67.8,3.5,1.36,5.31,1.72,1.82.36,3.7.54,5.56.54,1.86,0,3.74-.17,5.56-.54,1.81-.36,3.64-.92,5.31-1.72.83-.59,1.6-1.32,2.17-2.17.58-.86.93-1.84.93-2.9Z"/>
  </g>
  <g>
    <path class="cls-3" d="M80,46.2c-.9-.08-1.88,0-2.86.18-.98.18-2.01.47-3.03.83-1.35.48-2.73,1.11-4.09,1.84-1.37.73-2.75,1.59-4.12,2.55-1.36.96-2.73,2.05-4.05,3.25-1.31,1.19-2.63,2.55-3.82,4.02v16.89c1.23.11,2.6-.07,3.96-.42.16-.04.32-.08.48-.13,0,0,0,0,.01,0,1.22-.34,2.47-.82,3.72-1.4,2.6-1.2,5.34-2.9,7.91-4.95,1.02-.81,2.04-1.71,3.03-2.66.98-.95,1.96-2,2.86-3.12v-16.89Z"/>
    <path class="cls-3" d="M28.04,54.23c-.3-1.19-.62-2.34-.95-3.41-.33-1.07-.66-2.1-1-3.05-.67-1.91-1.38-3.64-2.07-5.13-.69-1.48-1.39-2.79-2.07-3.78-.34-.5-.68-.93-1-1.27-.33-.33-.65-.58-.95-.68v16.89c.37,1.49.8,2.96,1.26,4.42.44,1.38.9,2.69,1.36,3.88.46,1.19.93,2.3,1.39,3.3.46,1,.93,1.91,1.39,2.7.46.79.92,1.48,1.36,2,.32.38.64.68.94.87,0,0,.01,0,.02.01.1.06.19.11.3.14v-16.89Z"/>
    <path class="cls-3" d="M30.88,72.71c.35.17.7.33,1.06.49,1.34.6,2.74,1.11,4.14,1.55,3.51,1.11,7.25,1.8,10.8,2.05.52.04,1.05.06,1.57.08,1.41.05,2.81.02,4.17-.09,1.86-.15,3.74-.47,5.41-1.03v-16.89c-1.62-1.04-3.42-1.91-5.21-2.63-1.8-.72-3.67-1.3-5.53-1.77-1.86-.46-3.75-.81-5.62-1.05-1.87-.23-3.75-.35-5.59-.34-1.4,0-2.79.1-4.14.28-1.34.18-2.67.46-3.9.87v16.89c.81.52,1.67,1,2.54,1.43.1.05.2.1.31.15Z"/>
    <path class="cls-3" d="M28.04,54.23c1.23-.41,2.56-.69,3.9-.87,1.34-.18,2.74-.27,4.14-.28,1.84-.01,3.72.11,5.59.34,1.87.23,3.76.58,5.62,1.05,1.86.46,3.73,1.05,5.53,1.77,1.79.71,3.6,1.59,5.21,2.63,1.18-1.47,2.51-2.83,3.82-4.02,1.32-1.2,2.69-2.29,4.05-3.25,1.36-.96,2.75-1.82,4.12-2.55,1.37-.73,2.75-1.36,4.09-1.84,1.02-.36,2.04-.65,3.03-.83.98-.18,1.96-.26,2.86-.18-.3-1.19-.62-2.34-.95-3.41-.33-1.07-.66-2.1-1-3.05-.67-1.91-1.38-3.64-2.07-5.13-.69-1.48-1.39-2.79-2.07-3.78-.34-.5-.68-.93-1-1.27-.21-.22-.42-.4-.63-.52,0,0-.01,0-.02-.01-.1-.06-.19-.11-.3-.14-.8-.51-1.65-.99-2.51-1.42-.11-.06-.23-.11-.34-.17-.35-.17-.7-.33-1.06-.49-1.34-.6-2.74-1.11-4.14-1.55-1.84-.58-3.72-1.04-5.59-1.39-1.87-.35-3.76-.58-5.62-.69-.39-.02-.77-.04-1.16-.05-2.93-.1-5.86.08-8.74.52-1.8.28-3.57.66-5.3,1.15-1.12.32-2.27.75-3.41,1.26-1.36.61-2.75,1.35-4.12,2.2-1.37.85-2.75,1.81-4.09,2.89-1.02.81-2.04,1.71-3.03,2.66-.98.95-1.96,2-2.86,3.12.3.1.62.35.95.68.33.33.66.77,1,1.27.67,1,1.38,2.3,2.07,3.78.69,1.48,1.39,3.22,2.07,5.13.34.96.68,1.98,1,3.05.33,1.07.65,2.22.95,3.41Z"/>
    <path class="cls-3" d="M56.26,50.81c-5.34.83-11.15.59-16.4-.81-2.63-.7-5.27-1.74-7.6-3.18-1.17-.73-2.27-1.57-3.25-2.54-.52-.52-.99-1.07-1.41-1.66-.38-.53-.71-1.09-.98-1.68-1.02-2.2-1.1-4.53-.19-6.79.88-2.18,2.55-3.97,4.38-5.34,1.85-1.39,4-2.47,6.16-3.26,2.18-.8,4.48-1.37,6.77-1.72,5.34-.83,11.15-.59,16.4.81,2.63.7,5.27,1.74,7.6,3.18,1.17.73,2.27,1.57,3.25,2.54.52.52.99,1.07,1.41,1.66.38.53.71,1.09.98,1.68,1.02,2.2,1.1,4.53.19,6.79-.88,2.18-2.55,3.97-4.38,5.34-1.85,1.39-4,2.47-6.16,3.26-2.18.8-4.48,1.37-6.77,1.72Z"/>
    <path class="cls-3" d="M63.98,39.86c0-1.27-.51-2.41-1.28-3.37-.76-.96-1.77-1.73-2.82-2.33-1.12-.65-2.36-1.14-3.61-1.5-1.25-.36-2.55-.6-3.84-.74-2.56-.26-5.27-.11-7.78.49-1.93.46-3.94,1.24-5.57,2.42-.82.59-1.58,1.31-2.14,2.16-.56.86-.91,1.83-.91,2.87s.36,2.04.93,2.9c.57.86,1.34,1.58,2.17,2.17,1.67.8,3.5,1.36,5.31,1.72,1.82.36,3.7.54,5.56.54,1.86,0,3.74-.17,5.56-.54,1.81-.36,3.64-.92,5.31-1.72.83-.59,1.6-1.32,2.17-2.17.58-.86.93-1.84.93-2.9Z"/>
    <path class="cls-3" d="M59.88,34.15c1.04.6,2.05,1.38,2.81,2.33.77.96,1.28,2.11,1.28,3.37,0,1.06-.36,2.04-.93,2.9-.57.86-1.34,1.58-2.17,2.17.41-.2.81-.41,1.21-.63,1.28-.74,2.51-1.68,3.44-2.85.94-1.17,1.56-2.57,1.56-4.12s-.63-2.95-1.56-4.12c-.93-1.17-2.16-2.11-3.44-2.85-1.8-1.04-3.84-1.75-5.85-2.21-2.03-.46-4.15-.68-6.23-.68-2.08,0-4.2.22-6.23.68-2.01.45-4.05,1.17-5.85,2.21-1.28.74-2.51,1.68-3.44,2.85-.94,1.17-1.56,2.57-1.56,4.12s.63,2.95,1.56,4.12c.93,1.17,2.16,2.11,3.44,2.85.39.23.8.44,1.21.63-.83-.59-1.6-1.32-2.17-2.17-.58-.86-.93-1.84-.93-2.9s.35-2.01.91-2.87c.56-.85,1.32-1.57,2.14-2.16,1.63-1.18,3.64-1.96,5.58-2.42,2.51-.6,5.22-.75,7.78-.49,1.29.13,2.59.37,3.84.74,1.24.36,2.48.85,3.6,1.5Z"/>
    <path class="cls-3" d="M59.88,34.15c1.04.6,2.05,1.38,2.81,2.33.77.96,1.28,2.11,1.28,3.37,0,1.06-.36,2.04-.93,2.9-.57.86-1.34,1.58-2.17,2.17.41-.2.81-.41,1.21-.63,1.28-.74,2.51-1.68,3.44-2.85.94-1.17,1.56-2.57,1.56-4.12s-.63-2.95-1.56-4.12c-.93-1.17-2.16-2.11-3.44-2.85-1.8-1.04-3.84-1.75-5.85-2.21-2.03-.46-4.15-.68-6.23-.68-2.08,0-4.2.22-6.23.68-2.01.45-4.05,1.17-5.85,2.21-1.28.74-2.51,1.68-3.44,2.85-.94,1.17-1.56,2.57-1.56,4.12s.63,2.95,1.56,4.12c.93,1.17,2.16,2.11,3.44,2.85.39.23.8.44,1.21.63-.83-.59-1.6-1.32-2.17-2.17-.58-.86-.93-1.84-.93-2.9s.35-2.01.91-2.87c.56-.85,1.32-1.57,2.14-2.16,1.63-1.18,3.64-1.96,5.58-2.42,2.51-.6,5.22-.75,7.78-.49,1.29.13,2.59.37,3.84.74,1.24.36,2.48.85,3.6,1.5Z"/>
  </g>
</svg>