<?xml version="1.0" encoding="UTF-8"?>
<svg id="light" xmlns="http://www.w3.org/2000/svg" viewBox="0 0 100 100">
  <defs>
    <style>
      .cls-1 {
        fill: #68004b;
        opacity: .3;
      }

      .cls-2 {
        opacity: .8;
      }

      .cls-2, .cls-3 {
        fill: #fafafa;
      }

      .cls-4, .cls-5 {
        fill: none;
        stroke: #68004b;
        stroke-miterlimit: 10;
      }

      .cls-5 {
        stroke-linecap: square;
        stroke-width: 3px;
      }
    </style>
  </defs>
  <rect class="cls-3" x="5" y="5" width="90" height="90" rx="16" ry="16"/>
  <g>
    <path class="cls-1" d="M82.5,50.01s-.05,3.53-.06,5.01c-.05.57.03.43-.03.91-.09,1.52-.21,3.25-.47,4.82-.44,2.52-1.23,5.1-2.67,7.24-2.18,3.25-5.67,5.75-8.82,7.67-4.4,2.62-8.17,4.88-11.89,6.61-2.84,1.23-5.89,2.23-9.03,2.1-4.04-.13-7.92-1.88-11.4-3.76-4.1-2.29-6.15-3.47-9.57-5.56-2.81-1.82-5.6-3.91-7.56-6.67-3.73-5.27-3.39-12.2-3.49-18.35.09-6.02-.23-13,3.37-18.22,1.96-2.84,4.94-5.08,7.8-6.91,3.09-1.89,6.2-3.69,9.33-5.42,3.67-2.01,7.79-3.84,12.05-3.85,2.9,0,5.87.97,8.5,2.11,3.85,1.73,9.24,5.06,12.55,7,3.2,2.08,5.72,3.91,7.9,6.9,1.62,2.22,2.47,4.94,2.94,7.62.25,1.56.39,3.3.47,4.82.09,1.44.05,5.72.09,5.92h0Z"/>
    <polygon class="cls-1" points="82.5 50 82.43 55.67 82.25 58.45 81.89 61.15 81.26 63.72 80.85 64.93 80.3 66.19 79.71 67.3 79.17 68.15 78.35 69.25 77.51 70.22 75.6 72.04 73.44 73.71 71.12 75.25 66.25 78.14 61.31 80.92 58.81 82.15 56.29 83.19 53.76 83.93 52.5 84.17 51.13 84.33 50.13 84.38 50 84.38 50 50 51.15 49.34 52.81 48.38 54.73 47.27 56.84 46.05 61.42 43.41 66.25 40.62 79.77 32.81 80.3 33.81 80.85 35.07 81.26 36.28 81.89 38.85 82.25 41.55 82.43 44.33 82.5 50"/>
    <path class="cls-5" d="M82.5,50.01s-.05,3.53-.06,5.01c-.05.57.03.43-.03.91-.09,1.52-.21,3.25-.47,4.82-.44,2.52-1.23,5.1-2.67,7.24-2.18,3.25-5.67,5.75-8.82,7.67-4.4,2.62-8.17,4.88-11.89,6.61-2.84,1.23-5.89,2.23-9.03,2.1-4.04-.13-7.92-1.88-11.4-3.76-4.1-2.29-6.15-3.47-9.57-5.56-2.81-1.82-5.6-3.91-7.56-6.67-3.73-5.27-3.39-12.2-3.49-18.35.09-6.02-.23-13,3.37-18.22,1.96-2.84,4.94-5.08,7.8-6.91,3.09-1.89,6.2-3.69,9.33-5.42,3.67-2.01,7.79-3.84,12.05-3.85,2.9,0,5.87.97,8.5,2.11,3.85,1.73,9.24,5.06,12.55,7,3.2,2.08,5.72,3.91,7.9,6.9,1.62,2.22,2.47,4.94,2.94,7.62.25,1.56.39,3.3.47,4.82.09,1.44.05,5.72.09,5.92h0Z"/>
    <rect class="cls-2" x="19.57" y="36.39" width="31.99" height="10.04" rx="5.02" ry="5.02" transform="translate(45.65 95.05) rotate(-150)"/>
    <g>
      <line class="cls-4" x1="50" y1="68.76" x2="50" y2="84.38"/>
      <path class="cls-4" d="M30.5,61.26l.05,5.54c.05,1.79.15,3.49.36,5.01l.39,2.14.58,1.81c.23.54.5,1.02.81,1.42.31.4.67.72,1.07.96"/>
      <path class="cls-4" d="M66.25,40.62l1.07,2.2.81,2.35.58,2.48.39,2.59c.2,1.76.3,3.58.36,5.42l.05,5.6"/>
      <path class="cls-4" d="M30.5,61.26l-4.77-2.81c-1.52-.94-2.95-1.88-4.16-2.81l-1.66-1.41-1.28-1.41c-.36-.47-.63-.94-.83-1.41-.19-.47-.29-.94-.29-1.41"/>
      <line class="cls-4" x1="20.23" y1="32.82" x2="20.23" y2="32.81"/>
      <path class="cls-4" d="M50,68.76l-2.44-.17-2.44-.48-2.44-.74-2.44-.96c-1.62-.7-3.25-1.52-4.87-2.4l-4.87-2.76"/>
      <line class="cls-4" x1="79.77" y1="32.81" x2="66.25" y2="40.62"/>
      <path class="cls-4" d="M66.25,78.14c.41-.23.76-.56,1.07-.96.31-.4.58-.88.81-1.42l.58-1.81.39-2.14c.2-1.52.3-3.22.36-5.01l.05-5.54"/>
      <polyline class="cls-4" points="66.25 40.62 61.42 43.41 56.84 46.05 54.73 47.27 52.81 48.38 51.15 49.34 50 50"/>
      <path class="cls-4" d="M82.5,50c0,.47-.1.94-.29,1.41-.19.47-.47.94-.83,1.41l-1.28,1.41-1.66,1.41c-1.22.94-2.64,1.88-4.16,2.81l-4.77,2.81"/>
      <path class="cls-4" d="M50,27.48l4.82,2.84c1.57.97,3.1,1.96,4.52,3.02l2.05,1.63,1.86,1.74,1.63,1.87,1.36,2.03"/>
      <path class="cls-4" d="M33.75,40.62l-1.07,2.2-.81,2.35-.58,2.48-.39,2.59c-.2,1.76-.3,3.58-.36,5.42l-.05,5.6"/>
      <path class="cls-4" d="M66.25,21.86c-.41-.23-.86-.38-1.36-.45-.5-.07-1.05-.06-1.63.01l-1.86.41-2.05.74c-1.42.59-2.95,1.35-4.52,2.2l-4.82,2.73"/>
      <polyline class="cls-4" points="50 50 50 51.33 50 53.24 50 55.46 50 57.9 50 63.18 50 68.76"/>
      <polyline class="cls-4" points="33.75 40.62 38.58 43.41 43.16 46.05 45.27 47.27 47.19 48.38 48.85 49.34 50 50"/>
      <path class="cls-4" d="M50,68.76l2.44-.17,2.44-.48,2.44-.74,2.44-.96c1.62-.7,3.25-1.52,4.87-2.4l4.87-2.76"/>
      <polyline class="cls-4" points="33.75 78.14 28.88 75.25 26.56 73.71 24.4 72.04 22.49 70.22 21.65 69.25 20.83 68.15 20.29 67.3 19.7 66.19 19.16 64.93 18.74 63.72 18.11 61.15 17.75 58.45 17.57 55.67 17.5 50"/>
      <polyline class="cls-4" points="82.5 50 82.43 55.67 82.25 58.45 81.89 61.15 81.26 63.72 80.84 64.93 80.3 66.19 79.71 67.3 79.17 68.15 78.35 69.25 77.51 70.22 75.6 72.04 73.44 73.71 71.12 75.25 66.25 78.14"/>
      <polyline class="cls-4" points="66.25 21.86 66.09 21.77 61.31 19.08 58.81 17.85 56.29 16.81 53.75 16.07 52.49 15.83 51.13 15.67 50.13 15.62 48.87 15.67 47.51 15.83 46.25 16.07 43.71 16.81 41.19 17.85 38.69 19.08 33.91 21.77"/>
      <polyline class="cls-4" points="66.25 78.14 61.31 80.92 58.81 82.15 56.29 83.19 53.75 83.93 52.49 84.17 51.13 84.33 50.13 84.38 48.87 84.33 47.51 84.17 46.25 83.93 43.71 83.19 41.19 82.15 38.69 80.92 33.75 78.14"/>
      <polyline class="cls-4" points="66.25 21.86 71.12 24.75 73.44 26.3 75.6 27.96 77.51 29.79 78.35 30.75 79.17 31.85 79.71 32.7 80.3 33.81 80.84 35.07 81.26 36.28 81.89 38.85 82.25 41.55 82.43 44.33 82.5 50"/>
      <path class="cls-4" d="M50,27.49l-4.83,2.84c-1.57.97-3.1,1.96-4.52,3.02l-2.05,1.63-1.86,1.74-1.63,1.87-1.36,2.03-13.52-7.8.06-.11.54-.85.82-1.1.84-.97,1.91-1.82,2.16-1.67,2.32-1.54,4.87-2.9.15-.08c.36-.18.77-.3,1.21-.36.5-.07,1.05-.06,1.63.01l1.86.41,2.05.74c1.42.59,2.94,1.35,4.52,2.2l4.83,2.73Z"/>
      <polyline class="cls-4" points="17.5 50 17.57 44.33 17.75 41.55 18.11 38.85 18.74 36.28 19.16 35.07 19.7 33.81 20.23 32.82"/>
    </g>
  </g>
</svg>