<?xml version="1.0" encoding="UTF-8"?>
<svg id="default" xmlns="http://www.w3.org/2000/svg" viewBox="0 0 100 100">
  <defs>
    <style>
      .cls-1, .cls-2 {
        fill: #68004b;
      }

      .cls-2 {
        opacity: .6;
      }

      .cls-3 {
        fill: #fafafa;
      }
    </style>
  </defs>
  <rect class="cls-3" x="5" y="5" width="90" height="90" rx="16" ry="16"/>
  <g>
    <path class="cls-1" d="M26.79,27.68v41.96h49.11c1.48,0,2.68,1.2,2.68,2.68s-1.2,2.68-2.68,2.68H24.11c-1.48,0-2.68-1.2-2.68-2.68V27.68c0-1.48,1.2-2.68,2.68-2.68s2.68,1.2,2.68,2.68Z"/>
    <path class="cls-2" d="M77.79,36.71l-18.75,18.75c-1.05,1.04-2.74,1.04-3.79,0l-8.82-8.82-9.71,9.71c-1.06.98-2.7.95-3.72-.06-1.02-1.02-1.05-2.67-.06-3.72l11.61-11.61c1.05-1.04,2.74-1.04,3.79,0l8.82,8.82,16.86-16.86c1.06-.98,2.7-.95,3.72.06,1.02,1.02,1.05,2.67.06,3.72Z"/>
  </g>
</svg>