<?xml version="1.0" encoding="UTF-8"?>
<svg id="light" xmlns="http://www.w3.org/2000/svg" viewBox="0 0 100 100">
  <defs>
    <style>
      .cls-1 {
        opacity: .3;
      }

      .cls-1, .cls-2, .cls-3 {
        fill: #68004b;
      }

      .cls-4 {
        fill: none;
        stroke: #68004b;
        stroke-linecap: round;
        stroke-linejoin: round;
        stroke-width: 5px;
      }

      .cls-3 {
        opacity: .6;
      }

      .cls-5 {
        fill: #fafafa;
      }
    </style>
  </defs>
  <rect class="cls-5" x="5" y="5" width="90" height="90" rx="16" ry="16"/>
  <g>
    <polygon class="cls-3" points="80 32.68 80 67.32 50 84.64 50 50 80 32.68"/>
    <polygon class="cls-2" points="20 32.68 50 50 50 84.64 20 67.32 20 32.68"/>
    <polygon class="cls-1" points="50 15.36 20 32.68 50 50 80 32.68 50 15.36"/>
    <g>
      <line class="cls-4" x1="80" y1="67.32" x2="80" y2="32.68"/>
      <polyline class="cls-4" points="50 50 80 32.68 50 15.36"/>
      <line class="cls-4" x1="20" y1="32.68" x2="50" y2="50"/>
      <line class="cls-4" x1="50" y1="84.64" x2="50" y2="50"/>
      <line class="cls-4" x1="20" y1="67.32" x2="50" y2="84.64"/>
      <line class="cls-4" x1="50" y1="15.36" x2="20" y2="32.68"/>
      <line class="cls-4" x1="20" y1="67.32" x2="20" y2="32.68"/>
      <line class="cls-4" x1="50" y1="84.64" x2="80" y2="67.32"/>
    </g>
    <path class="cls-5" d="M45.94,74.37l-9.07-26.18c-.36-1.02-1.08-1.96-1.88-2.41-.79-.46-1.52-.36-1.87.26l-9.07,15.71c-.52.9-.1,2.59.93,3.78,1.03,1.19,2.29,1.44,2.81.55l1.52-2.63,11.38,6.57,1.52,4.37c.52,1.49,1.77,2.7,2.81,2.7,1.04,0,1.46-1.2.93-2.71ZM31.41,59.81l3.59-6.22,3.6,10.36-7.18-4.15Z"/>
  </g>
</svg>