<?xml version="1.0" encoding="UTF-8"?>
<svg id="light" xmlns="http://www.w3.org/2000/svg" viewBox="0 0 100 100">
  <defs>
    <style>
      .cls-1 {
        opacity: .6;
      }

      .cls-2 {
        fill: none;
        stroke: #68004b;
        stroke-linecap: square;
        stroke-miterlimit: 10;
        stroke-width: 6px;
      }

      .cls-3 {
        fill: #68004b;
      }

      .cls-4 {
        fill: #fafafa;
      }
    </style>
  </defs>
  <rect class="cls-4" x="5" y="5" width="90" height="90" rx="16" ry="16"/>
  <g>
    <polyline class="cls-2" points="69.14 85.36 69.14 30.86 14.64 30.86"/>
    <g>
      <path class="cls-4" d="M69.14,36.86c-1.6,0-3.11-.62-4.24-1.76-2.34-2.34-2.34-6.15,0-8.49,1.13-1.13,2.64-1.76,4.24-1.76s3.11.62,4.24,1.76,1.76,2.64,1.76,4.24-.62,3.11-1.76,4.24-2.64,1.76-4.24,1.76Z"/>
      <path class="cls-3" d="M69.14,26.36c1.2,0,2.33.47,3.18,1.32.85.85,1.32,1.98,1.32,3.18s-.47,2.33-1.32,3.18c-.85.85-1.98,1.32-3.18,1.32s-2.33-.47-3.18-1.32-1.32-1.98-1.32-3.18.47-2.33,1.32-3.18c.85-.85,1.98-1.32,3.18-1.32M69.14,23.36c-1.92,0-3.84.73-5.3,2.2-2.93,2.93-2.93,7.68,0,10.61,1.46,1.46,3.38,2.2,5.3,2.2s3.84-.73,5.3-2.2c2.93-2.93,2.93-7.68,0-10.61-1.46-1.46-3.38-2.2-5.3-2.2h0Z"/>
    </g>
    <g class="cls-1">
      <polyline class="cls-2" points="50 85.36 50 50 14.64 50"/>
      <g>
        <path class="cls-4" d="M50,56c-1.6,0-3.11-.62-4.24-1.76-2.34-2.34-2.34-6.15,0-8.49,1.13-1.13,2.64-1.76,4.24-1.76s3.11.62,4.24,1.76c2.34,2.34,2.34,6.15,0,8.49-1.13,1.13-2.64,1.76-4.24,1.76Z"/>
        <path class="cls-3" d="M50,45.5c1.2,0,2.33.47,3.18,1.32s1.32,1.98,1.32,3.18-.47,2.33-1.32,3.18c-.85.85-1.98,1.32-3.18,1.32s-2.33-.47-3.18-1.32c-.85-.85-1.32-1.98-1.32-3.18s.47-2.33,1.32-3.18c.85-.85,1.98-1.32,3.18-1.32M50,42.5c-1.92,0-3.84.73-5.3,2.2-2.93,2.93-2.93,7.68,0,10.61,1.46,1.46,3.38,2.2,5.3,2.2s3.84-.73,5.3-2.2c2.93-2.93,2.93-7.68,0-10.61-1.46-1.46-3.38-2.2-5.3-2.2h0Z"/>
      </g>
    </g>
  </g>
</svg>