<?xml version="1.0" encoding="UTF-8"?>
<svg id="light" xmlns="http://www.w3.org/2000/svg" viewBox="0 0 100 100">
  <defs>
    <style>
      .cls-1 {
        fill: none;
        stroke: #68004b;
        stroke-linecap: round;
        stroke-linejoin: round;
        stroke-width: 3px;
      }

      .cls-2 {
        fill: #68004b;
        opacity: .3;
      }

      .cls-3 {
        fill: #fafafa;
      }
    </style>
  </defs>
  <rect class="cls-3" x="5" y="5" width="90" height="90" rx="16" ry="16"/>
  <g>
    <polygon class="cls-2" points="43.66 19.02 26.34 29.02 43.54 58.81 54.14 77.18 56.34 80.98 73.66 70.98 43.66 19.02"/>
    <polygon class="cls-1" points="43.66 19.02 26.34 29.02 43.54 58.81 54.14 77.18 56.34 80.98 73.66 70.98 43.66 19.02"/>
    <polygon class="cls-3" points="20 40 20 60 54.4 60 75.61 60 80 60 80 40 20 40"/>
    <polygon class="cls-1" points="20 40 20 60 54.4 60 75.61 60 80 60 80 40 20 40"/>
  </g>
</svg>