<?xml version="1.0" encoding="UTF-8"?>
<svg id="default" xmlns="http://www.w3.org/2000/svg" viewBox="0 0 100 100">
  <defs>
    <style>
      .cls-1 {
        fill: #68004b;
      }

      .cls-2 {
        fill: #fafafa;
      }
    </style>
  </defs>
  <rect class="cls-2" x="5" y="5" width="90" height="90" rx="16" ry="16"/>
  <path class="cls-1" d="M53.64,25l18.75,10.88c1.93,1.12,3.11,3.18,3.11,5.41v21.78c0,2.23-1.19,4.29-3.11,5.41l-18.75,10.88c-1.94,1.12-4.33,1.12-6.27,0l-18.75-10.88c-1.93-1.12-3.11-3.18-3.11-5.41v-21.78c0-2.23,1.19-4.29,3.11-5.41l18.75-10.88c1.94-1.12,4.33-1.12,6.27,0ZM50.06,29.63l-16.54,9.59,16.98,9.85,16.98-9.85-16.54-9.59c-.28-.16-.62-.16-.89,0ZM30.86,43.87v19.19c0,.32.17.61.45.77l16.52,9.58v-19.7l-16.96-9.84ZM53.18,73.41l16.52-9.58c.28-.16.45-.45.45-.77v-19.19l-16.96,9.84v19.7Z"/>
</svg>