<?xml version="1.0" encoding="UTF-8"?>
<svg id="light" xmlns="http://www.w3.org/2000/svg" viewBox="0 0 100 100">
  <defs>
    <style>
      .cls-1 {
        opacity: .3;
      }

      .cls-1, .cls-2 {
        fill: #68004b;
      }

      .cls-3 {
        fill: none;
        stroke: #68004b;
        stroke-linecap: round;
        stroke-linejoin: round;
        stroke-width: 1.5px;
      }

      .cls-2 {
        opacity: .6;
      }

      .cls-4 {
        fill: #fafafa;
      }
    </style>
  </defs>
  <rect class="cls-4" x="5" y="5" width="90" height="90" rx="16" ry="16"/>
  <g>
    <polygon class="cls-2" points="43.54 44.79 46.77 37.82 46.77 78.61 43.54 85.57 43.54 44.79"/>
    <path class="cls-1" d="M46.77,64.68v-26.86c-6.1-.57-11.02-5.5-8.83-8.83.99-3.52,9.52-6.36,15.29-5.1,6.1.57,11.02,5.5,8.83,8.83v37.05c-1.07-2.56-5.07-4.6-8.83-5.1-1.93-.3-4.22-.35-6.46,0Z"/>
    <polygon class="cls-2" points="62.06 73.51 62.06 32.73 74.12 34.59 74.12 75.37 62.06 73.51"/>
    <path class="cls-1" d="M74.12,34.59c.53-1.14.84-2.38.85-3.67v40.72c0,1.31-.31,2.57-.85,3.73v-40.78Z"/>
    <path class="cls-4" d="M43.54,44.79c-9.6-1.1-19.09-7.61-18.51-13.93,0-1.31.31-2.57.85-3.73,1.36-3.27,5.73-6.79,11.64-8.76,5.91-1.97,13.36-2.4,18.95-1.44,9.6,1.1,19.09,7.61,18.51,13.93,0,1.31-.31,2.57-.85,3.73l-12.06-1.87c2.19-3.33-2.73-8.26-8.83-8.83-5.77-1.27-14.31,1.58-15.29,5.1-2.19,3.33,2.73,8.26,8.83,8.83l-3.23,6.96Z"/>
    <path class="cls-1" d="M25.03,30.86c-.58,6.32,8.91,12.83,18.51,13.93v40.78c-9.6-1.1-19.09-7.61-18.51-13.93V30.86Z"/>
    <g>
      <polygon class="cls-3" points="43.54 44.79 46.77 37.82 46.77 78.61 43.54 85.57 43.54 44.79"/>
      <path class="cls-3" d="M46.77,64.68v-26.86c-6.1-.57-11.02-5.5-8.83-8.83.99-3.52,9.52-6.36,15.29-5.1,6.1.57,11.02,5.5,8.83,8.83v37.05c-1.07-2.56-5.07-4.6-8.83-5.1-1.93-.3-4.22-.35-6.46,0Z"/>
      <polygon class="cls-3" points="62.06 73.51 62.06 32.73 74.12 34.59 74.12 75.37 62.06 73.51"/>
      <path class="cls-3" d="M74.12,34.59c.53-1.14.84-2.38.85-3.67v40.72c0,1.31-.31,2.57-.85,3.73v-40.78Z"/>
      <path class="cls-3" d="M43.54,44.79c-9.6-1.1-19.09-7.61-18.51-13.93,0-1.31.31-2.57.85-3.73,1.36-3.27,5.73-6.79,11.64-8.76,5.91-1.97,13.36-2.4,18.95-1.44,9.6,1.1,19.09,7.61,18.51,13.93,0,1.31-.31,2.57-.85,3.73l-12.06-1.87c2.19-3.33-2.73-8.26-8.83-8.83-5.77-1.27-14.31,1.58-15.29,5.1-2.19,3.33,2.73,8.26,8.83,8.83l-3.23,6.96Z"/>
      <path class="cls-3" d="M25.03,30.86c-.58,6.32,8.91,12.83,18.51,13.93v40.78c-9.6-1.1-19.09-7.61-18.51-13.93V30.86Z"/>
    </g>
  </g>
</svg>