<?xml version="1.0" encoding="UTF-8"?>
<svg id="light" xmlns="http://www.w3.org/2000/svg" viewBox="0 0 100 100">
  <defs>
    <style>
      .cls-1 {
        opacity: .3;
      }

      .cls-1, .cls-2 {
        fill: #68004b;
      }

      .cls-3 {
        stroke-linejoin: round;
      }

      .cls-3, .cls-4 {
        fill: none;
        stroke: #68004b;
        stroke-linecap: round;
        stroke-width: 2px;
      }

      .cls-2 {
        opacity: .6;
      }

      .cls-5 {
        fill: #fafafa;
      }

      .cls-4 {
        stroke-miterlimit: 10;
      }
    </style>
  </defs>
  <rect class="cls-5" x="5" y="5" width="90" height="90" rx="16" ry="16"/>
  <g>
    <g>
      <polygon class="cls-1" points="85 21.71 85 64.82 75.67 70.21 75.67 27.1 85 21.71"/>
      <polygon class="cls-1" points="75.67 27.1 75.67 43.26 66.34 37.88 66.34 21.71 75.67 27.1"/>
      <polygon class="cls-1" points="85 21.71 75.67 27.1 75.67 16.32 85 21.71"/>
      <polygon class="cls-1" points="75.67 54.04 75.67 70.21 66.34 64.82 66.34 59.43 75.67 54.04"/>
      <polygon class="cls-2" points="75.67 16.32 75.67 27.1 66.34 21.71 75.67 16.32"/>
      <g>
        <line class="cls-4" x1="71" y1="67.51" x2="71" y2="56.73"/>
        <line class="cls-4" x1="71" y1="40.57" x2="71" y2="24.37"/>
      </g>
      <polygon class="cls-1" points="52.34 72.9 52.34 83.68 15 62.12 15 51.35 52.34 72.9"/>
      <polygon class="cls-2" points="61.67 67.51 61.67 78.29 52.34 72.9 61.67 67.51"/>
      <polygon class="cls-1" points="61.67 78.29 52.34 83.68 52.34 72.9 61.67 78.29"/>
      <polygon class="cls-5" points="75.67 43.26 47.67 59.43 38.33 54.04 66.34 37.88 75.67 43.26"/>
      <polygon class="cls-1" points="61.67 67.51 52.34 72.9 15 51.35 24.33 45.95 38.33 54.04 47.67 59.43 57 64.82 57.01 64.82 61.67 67.51"/>
      <polygon class="cls-5" points="75.67 43.26 75.67 54.04 66.34 59.43 66.34 59.43 57.01 64.82 57 64.82 47.67 59.43 75.67 43.26"/>
    </g>
    <g>
      <polygon class="cls-3" points="85 21.71 85 64.82 75.67 70.21 75.67 27.1 85 21.71"/>
      <polygon class="cls-3" points="75.67 27.1 75.67 43.26 66.34 37.88 66.34 21.71 75.67 27.1"/>
      <polygon class="cls-3" points="85 21.71 75.67 27.1 75.67 16.32 85 21.71"/>
      <polygon class="cls-3" points="75.67 54.04 75.67 70.21 66.34 64.82 66.34 59.43 75.67 54.04"/>
      <polygon class="cls-3" points="75.67 16.32 75.67 27.1 66.34 21.71 75.67 16.32"/>
      <polygon class="cls-3" points="52.34 72.9 52.34 83.68 15 62.12 15 51.35 52.34 72.9"/>
      <polygon class="cls-3" points="61.67 67.51 61.67 78.29 52.34 72.9 61.67 67.51"/>
      <polygon class="cls-3" points="61.67 78.29 52.34 83.68 52.34 72.9 61.67 78.29"/>
      <polygon class="cls-3" points="75.67 43.26 47.67 59.43 38.33 54.04 66.34 37.88 75.67 43.26"/>
      <polygon class="cls-3" points="61.67 67.51 52.34 72.9 15 51.35 24.33 45.95 38.33 54.04 47.67 59.43 57 64.82 57.01 64.82 61.67 67.51"/>
      <polygon class="cls-3" points="75.67 43.26 75.67 54.04 66.34 59.43 66.34 59.43 57.01 64.82 57 64.82 47.67 59.43 75.67 43.26"/>
    </g>
  </g>
</svg>