<?xml version="1.0" encoding="UTF-8"?>
<svg id="light" xmlns="http://www.w3.org/2000/svg" viewBox="0 0 100 100">
  <defs>
    <style>
      .cls-1 {
        opacity: .6;
      }

      .cls-2 {
        fill: #68004b;
      }

      .cls-3 {
        fill: #fafafa;
      }
    </style>
  </defs>
  <rect class="cls-3" x="5" y="5" width="90" height="90" rx="16" ry="16"/>
  <g>
    <g class="cls-1">
      <path class="cls-2" d="M74.92,67.36c-2.92,1.68-6.31,2.64-9.92,2.64-11.05,0-20-8.95-20-20,0-3.61.96-7,2.64-9.92.89-1.54,2.96-1.64,4.22-.39l23.45,23.45c1.25,1.25,1.16,3.34-.39,4.22Z"/>
      <path class="cls-2" d="M82.36,59.92c-.89,1.54-2.96,1.64-4.22.39l-23.45-23.45c-1.25-1.25-1.16-3.34.39-4.22,2.92-1.68,6.31-2.64,9.92-2.64,11.05,0,20,8.95,20,20,0,3.61-.96,7-2.64,9.92Z"/>
    </g>
    <g>
      <path class="cls-2" d="M44.92,67.36c-2.92,1.68-6.31,2.64-9.92,2.64-11.05,0-20-8.95-20-20,0-3.61.96-7,2.64-9.92.89-1.54,2.96-1.64,4.22-.39l23.45,23.45c1.25,1.25,1.16,3.34-.39,4.22Z"/>
      <path class="cls-2" d="M52.36,59.92c-.89,1.54-2.96,1.64-4.22.39l-23.45-23.45c-1.25-1.25-1.16-3.34.39-4.22,2.92-1.68,6.31-2.64,9.92-2.64,11.05,0,20,8.95,20,20,0,3.61-.96,7-2.64,9.92Z"/>
    </g>
  </g>
</svg>