<?xml version="1.0" encoding="UTF-8"?>
<svg id="light" xmlns="http://www.w3.org/2000/svg" viewBox="0 0 100 100">
  <defs>
    <style>
      .cls-1 {
        opacity: .3;
      }

      .cls-1, .cls-2, .cls-3 {
        fill: #68004b;
      }

      .cls-3 {
        opacity: .6;
      }

      .cls-4 {
        fill: #fafafa;
      }
    </style>
  </defs>
  <rect class="cls-4" x="5" y="5" width="90" height="90" rx="16" ry="16"/>
  <g>
    <polygon class="cls-2" points="27.5 23.75 27.5 27.5 27.5 68.75 76.25 68.75 80 68.75 80 76.25 76.25 76.25 23.75 76.25 20 76.25 20 72.5 20 27.5 20 23.75 27.5 23.75"/>
    <polygon class="cls-1" points="42.5 46.25 42.5 50 42.5 57.5 42.5 61.25 35 61.25 35 57.5 35 50 35 46.25 42.5 46.25"/>
    <polygon class="cls-3" points="53.75 38.75 53.75 46.25 53.75 50 46.25 50 46.25 46.25 46.25 38.75 46.25 35 53.75 35 53.75 38.75"/>
    <polygon class="cls-2" points="65 27.5 65 31.25 65 38.75 65 42.5 57.5 42.5 57.5 38.75 57.5 31.25 57.5 27.5 65 27.5"/>
    <polygon class="cls-2" points="76.25 31.25 76.25 57.5 76.25 61.25 68.75 61.25 68.75 57.5 68.75 31.25 68.75 27.5 76.25 27.5 76.25 31.25"/>
  </g>
</svg>