<?xml version="1.0" encoding="UTF-8"?>
<svg id="light" xmlns="http://www.w3.org/2000/svg" viewBox="0 0 100 100">
  <defs>
    <style>
      .cls-1 {
        fill: #68004b;
      }

      .cls-2 {
        fill: #fafafa;
      }
    </style>
  </defs>
  <rect class="cls-2" x="5" y="5" width="90" height="90" rx="16" ry="16"/>
  <polygon class="cls-1" points="17.5 62.19 26.22 53.47 32.32 59.56 33.75 60.99 36.62 58.12 35.18 56.69 29.09 50.6 34.35 45.34 40.44 51.43 41.88 52.87 44.74 50 43.31 48.57 37.22 42.47 42.47 37.22 48.57 43.31 50 44.74 52.87 41.87 51.43 40.44 45.34 34.35 50.6 29.09 56.69 35.18 58.13 36.62 60.99 33.75 59.56 32.32 53.47 26.22 62.19 17.5 82.5 37.81 37.81 82.5 17.5 62.19"/>
</svg>