<?xml version="1.0" encoding="UTF-8"?>
<svg id="light" xmlns="http://www.w3.org/2000/svg" viewBox="0 0 100 100">
  <defs>
    <style>
      .cls-1 {
        opacity: .3;
      }

      .cls-2 {
        fill: #68004b;
      }

      .cls-3 {
        fill: #fafafa;
      }
    </style>
  </defs>
  <rect class="cls-3" x="5" y="5" width="90" height="90" rx="16" ry="16"/>
  <g>
    <path class="cls-2" d="M35.92,57.52c1.23-.93,2.73-1.42,4.27-1.42h.17c1.31,0,2.59.36,3.69,1.04-5.97,6.83-14.74,11.15-24.51,11.15-3.36,0-6.09,2.73-6.09,6.09v2.03c0,3.36,2.73,6.09,6.09,6.09h14.22c14.89,0,27.7-8.9,33.4-21.66l1.52-.41c.69-.18,1.38-.28,2.09-.28h.33c2.86,0,5.5,1.5,6.97,3.95l2.84,4.74c.86,1.45,2.74,1.9,4.18,1.04s1.9-2.74,1.04-4.18l-2.84-4.74c-2.56-4.28-7.2-6.91-12.19-6.91h-.33c-1.23,0-2.46.16-3.67.48h-.04s-.01.01-.03.03l-12.28,3.28-6.11-4.89-.06-.05c-2.34-1.88-5.26-2.89-8.25-2.89h-.17c-2.86,0-5.64.93-7.92,2.64l-5.42,4.06c-1.35,1.02-1.62,2.92-.61,4.27,1.02,1.35,2.92,1.62,4.27.61l5.42-4.06h.01Z"/>
    <g class="cls-1">
      <path class="cls-2" d="M52.03,35.78c0,5.98-1.61,11.58-4.43,16.4.37.24.72.5,1.05.76l6.11,4.89,12.28-3.28c.77-.2,1.56-.34,2.35-.43.61-2.64.93-5.38.93-8.2,0-10.75-4.65-20.43-12.04-27.12-.96-.85-2.2-1.31-3.44-1.31-3.73,0-6.03,3.73-4.82,6.98,1.31,3.52,2.02,7.33,2.02,11.3h0Z"/>
    </g>
  </g>
</svg>