<?xml version="1.0" encoding="UTF-8"?>
<svg id="light" xmlns="http://www.w3.org/2000/svg" viewBox="0 0 100 100">
  <defs>
    <style>
      .cls-1 {
        opacity: .3;
      }

      .cls-1, .cls-2, .cls-3 {
        fill: #68004b;
      }

      .cls-3 {
        opacity: .6;
      }

      .cls-4 {
        fill: #fafafa;
      }
    </style>
  </defs>
  <rect class="cls-4" x="5" y="5" width="90" height="90" rx="16" ry="16"/>
  <g>
    <path class="cls-1" d="M32.5,56.56c0-2.34,1.25-4.51,3.28-5.68,2.03-1.17,4.53-1.17,6.56,0,2.03,1.17,3.28,3.34,3.28,5.68s-1.25,4.51-3.28,5.68c-2.03,1.17-4.53,1.17-6.56,0-2.03-1.17-3.28-3.34-3.28-5.68Z"/>
    <path class="cls-3" d="M41.25,39.06c0-2.34,1.25-4.51,3.28-5.68,2.03-1.17,4.53-1.17,6.56,0,2.03,1.17,3.28,3.34,3.28,5.68s-1.25,4.51-3.28,5.68c-2.03,1.17-4.53,1.17-6.56,0-2.03-1.17-3.28-3.34-3.28-5.68Z"/>
    <path class="cls-2" d="M63.12,45.63c3.13,0,6.01,1.67,7.58,4.38,1.56,2.71,1.56,6.04,0,8.75-1.56,2.71-4.45,4.38-7.58,4.38s-6.01-1.67-7.58-4.38c-1.56-2.71-1.56-6.04,0-8.75,1.56-2.71,4.45-4.38,7.58-4.38Z"/>
    <path class="cls-2" d="M67.5,23.75c3.13,0,6.01,1.67,7.58,4.38,1.56,2.71,1.56,6.04,0,8.75-1.56,2.71-4.45,4.38-7.58,4.38s-6.01-1.67-7.58-4.38c-1.56-2.71-1.56-6.04,0-8.75,1.56-2.71,4.45-4.38,7.58-4.38Z"/>
    <path class="cls-2" d="M23.75,71.88V19.38h-8.75v61.25h69.98v-8.75H23.75Z"/>
  </g>
</svg>