<?xml version="1.0" encoding="UTF-8"?>
<svg id="light" xmlns="http://www.w3.org/2000/svg" viewBox="0 0 100 100">
  <defs>
    <style>
      .cls-1, .cls-2 {
        fill: #68004b;
      }

      .cls-2 {
        opacity: .6;
      }

      .cls-3 {
        fill: #fafafa;
      }
    </style>
  </defs>
  <rect class="cls-3" x="5" y="5" width="90" height="90" rx="16" ry="16"/>
  <path class="cls-1" d="M81.72,46.72h-5.67c-1.48-11.87-10.9-21.29-22.76-22.76v-8.96h-6.56v8.96c-11.87,1.48-21.29,10.9-22.76,22.76h-8.96v6.56h8.96c1.48,11.87,10.9,21.29,22.76,22.76v8.96h6.56v-8.96c11.87-1.48,21.29-10.9,22.76-22.76h8.96v-6.56h-3.28ZM59.84,67.05c-6.09,3.52-13.6,3.52-19.69,0-6.09-3.52-9.84-10.02-9.84-17.05s3.75-13.53,9.84-17.05c6.09-3.52,13.6-3.52,19.69,0,6.09,3.52,9.84,10.02,9.84,17.05s-3.75,13.53-9.84,17.05Z"/>
  <path class="cls-2" d="M40,50c0-3.57,1.91-6.87,5-8.66,3.09-1.79,6.91-1.79,10,0,3.09,1.79,5,5.09,5,8.66s-1.91,6.87-5,8.66c-3.09,1.79-6.91,1.79-10,0-3.09-1.79-5-5.09-5-8.66Z"/>
</svg>