<?xml version="1.0" encoding="UTF-8"?>
<svg id="light" xmlns="http://www.w3.org/2000/svg" viewBox="0 0 100 100">
  <defs>
    <style>
      .cls-1, .cls-2 {
        fill: #68004b;
      }

      .cls-2 {
        opacity: .6;
      }

      .cls-3 {
        fill: #fafafa;
      }
    </style>
  </defs>
  <rect class="cls-3" x="5" y="5" width="90" height="90" rx="16" ry="16"/>
  <g>
    <polygon class="cls-1" points="22 36 36 22 50 36 50 39.5 44.75 39.5 53.5 50 53.5 53.5 48.25 53.5 57 64 57 67.5 39.5 67.5 39.5 74.5 39.5 78 32.5 78 32.5 74.5 32.5 67.5 15 67.5 15 64 23.75 53.5 18.5 53.5 18.5 50 27.25 39.5 22 39.5 22 36"/>
    <polygon class="cls-2" points="60.5 74.5 60.5 71 60.5 67.5 60.5 64 60.5 62.73 59.69 61.76 55.72 57 57 57 57 53.5 57 50 57 48.73 56.19 47.76 52.22 43 53.5 43 53.5 39.5 53.5 36 53.5 34.55 52.47 33.52 64 22 78 36 78 39.5 72.75 39.5 81.5 50 81.5 53.5 76.25 53.5 85 64 85 67.5 67.5 67.5 67.5 74.5 67.5 78 60.5 78 60.5 74.5"/>
  </g>
</svg>