<?xml version="1.0" encoding="UTF-8"?>
<svg id="light" xmlns="http://www.w3.org/2000/svg" viewBox="0 0 100 100">
  <defs>
    <style>
      .cls-1 {
        fill: #68004b;
        opacity: .3;
      }

      .cls-2 {
        fill: none;
        stroke: #68004b;
        stroke-miterlimit: 10;
        stroke-width: 1.5px;
      }

      .cls-3 {
        fill: #fafafa;
      }
    </style>
  </defs>
  <rect class="cls-3" x="5" y="5" width="90" height="90" rx="16" ry="16"/>
  <g>
    <path class="cls-1" d="M25.03,30.91c-.04,4.01,3.14,7.8,7.31,10.15,4.01,2.44,10.83,4.22,17.66,4.22s13.65-1.78,17.66-4.22c4.18-2.35,7.36-6.14,7.31-10.15v40.74c.07,4.02-3.12,7.84-7.31,10.2-4.01,2.44-10.83,4.22-17.66,4.22s-13.65-1.78-17.66-4.22c-4.2-2.36-7.38-6.17-7.31-10.2V30.91Z"/>
    <path class="cls-3" d="M74.97,30.86c.07,4.02-3.12,7.84-7.31,10.2-4.01,2.44-10.83,4.22-17.66,4.22s-13.65-1.78-17.66-4.22c-4.2-2.36-7.38-6.17-7.31-10.2-.07-4.02,3.12-7.84,7.31-10.2,4.01-2.44,10.83-4.22,17.66-4.22s13.65,1.78,17.66,4.22c4.2,2.36,7.38,6.17,7.31,10.2Z"/>
    <path class="cls-1" d="M62.49,30.86c.03,2.01-1.56,3.92-3.66,5.1-3.9,2.76-13.76,2.76-17.66,0-4.79-2.25-4.79-7.94,0-10.2,3.9-2.76,13.76-2.76,17.66,0,2.1,1.18,3.69,3.09,3.66,5.1Z"/>
    <g>
      <path class="cls-2" d="M25.03,30.91c-.04,4.01,3.14,7.8,7.31,10.15,4.01,2.44,10.83,4.22,17.66,4.22s13.65-1.78,17.66-4.22c4.18-2.35,7.36-6.14,7.31-10.15v40.74c.07,4.02-3.12,7.84-7.31,10.2-4.01,2.44-10.83,4.22-17.66,4.22s-13.65-1.78-17.66-4.22c-4.2-2.36-7.38-6.17-7.31-10.2V30.91Z"/>
      <path class="cls-2" d="M74.97,30.86c.07,4.02-3.12,7.84-7.31,10.2-4.01,2.44-10.83,4.22-17.66,4.22s-13.65-1.78-17.66-4.22c-4.2-2.36-7.38-6.17-7.31-10.2-.07-4.02,3.12-7.84,7.31-10.2,4.01-2.44,10.83-4.22,17.66-4.22s13.65,1.78,17.66,4.22c4.2,2.36,7.38,6.17,7.31,10.2Z"/>
      <path class="cls-2" d="M62.49,30.86c.03,2.01-1.56,3.92-3.66,5.1-3.9,2.76-13.76,2.76-17.66,0-4.79-2.25-4.79-7.94,0-10.2,3.9-2.76,13.76-2.76,17.66,0,2.1,1.18,3.69,3.09,3.66,5.1Z"/>
    </g>
  </g>
</svg>