<?xml version="1.0" encoding="UTF-8"?>
<svg id="light" xmlns="http://www.w3.org/2000/svg" viewBox="0 0 100 100">
  <defs>
    <style>
      .cls-1 {
        fill: #68004b;
      }

      .cls-2 {
        fill: #fafafa;
      }
    </style>
  </defs>
  <rect class="cls-2" x="5" y="5" width="90" height="90" rx="16" ry="16"/>
  <path class="cls-1" d="M82.5,17.5H17.5v65h65V17.5ZM27.7,65.12c-1.29-1.42-1.2-3.61.22-4.92l11.13-10.2-11.13-10.2c-1.42-1.29-1.52-3.5-.22-4.92,1.29-1.42,3.5-1.52,4.92-.22l13.93,12.77c.73.67,1.13,1.6,1.13,2.57s-.41,1.92-1.13,2.57l-13.93,12.77c-1.42,1.29-3.63,1.2-4.92-.22ZM69.73,68.57h-20.71c-1.89,0-3.57-1.42-3.66-3.31-.1-2.01,1.49-3.66,3.48-3.66h20.71c1.89,0,3.57,1.42,3.66,3.31.1,2.01-1.49,3.66-3.48,3.66Z"/>
</svg>