<?xml version="1.0" encoding="UTF-8"?>
<svg id="light" xmlns="http://www.w3.org/2000/svg" viewBox="0 0 100 100">
  <defs>
    <style>
      .cls-1 {
        opacity: .3;
      }

      .cls-1, .cls-2 {
        fill: #68004b;
      }

      .cls-3 {
        fill: none;
        stroke: #68004b;
        stroke-linecap: round;
        stroke-linejoin: round;
        stroke-width: 2px;
      }

      .cls-4 {
        fill: #fafafa;
      }
    </style>
  </defs>
  <rect class="cls-4" x="5" y="5" width="90" height="90" rx="16" ry="16"/>
  <g>
    <g>
      <polygon class="cls-1" points="77.5 22.5 77.5 36.25 73.47 36.25 74.31 35.41 64.58 25.69 54.03 36.25 22.5 36.25 22.5 22.5 77.5 22.5"/>
      <polygon class="cls-2" points="74.31 35.41 73.47 36.25 54.03 36.25 64.58 25.69 74.31 35.41"/>
      <polygon class="cls-4" points="73.47 36.25 45.97 63.75 26.53 63.75 54.03 36.25 73.47 36.25"/>
      <polygon class="cls-1" points="77.5 63.75 77.5 77.5 22.5 77.5 22.5 63.75 26.53 63.75 25.69 64.59 35.41 74.31 45.97 63.75 77.5 63.75"/>
      <polygon class="cls-2" points="45.97 63.75 35.41 74.31 25.69 64.59 26.53 63.75 45.97 63.75"/>
    </g>
    <g>
      <polygon class="cls-3" points="73.47 36.25 45.97 63.75 26.53 63.75 54.03 36.25 73.47 36.25"/>
      <polygon class="cls-3" points="22.5 22.5 22.5 36.25 54.03 36.25 73.47 36.25 77.5 36.25 77.5 22.5 22.5 22.5"/>
      <polygon class="cls-3" points="26.53 63.75 22.5 63.75 22.5 77.5 77.5 77.5 77.5 63.75 45.97 63.75 26.53 63.75"/>
    </g>
  </g>
</svg>