<?xml version="1.0" encoding="UTF-8"?>
<svg id="light" xmlns="http://www.w3.org/2000/svg" viewBox="0 0 100 100">
  <defs>
    <style>
      .cls-1 {
        fill: #68004b;
      }

      .cls-2 {
        fill: #fafafa;
      }
    </style>
  </defs>
  <rect class="cls-2" x="5" y="5" width="90" height="90" rx="16" ry="16"/>
  <g>
    <path class="cls-1" d="M83.43,74.5l-7.5-7.51c3.32-5.06,5.06-10.9,5.06-16.99,0-17.09-13.9-30.99-30.99-30.99s-30.99,13.9-30.99,30.99,13.9,30.99,30.99,30.99c6.11,0,11.95-1.74,16.99-5.06l7.5,7.51c1.23,1.23,2.85,1.85,4.47,1.85,1.62,0,3.24-.62,4.47-1.85,2.47-2.47,2.47-6.48,0-8.94ZM65.27,64.35c-1.58.79-3.53.15-4.32-1.44l-2.34-4.67h-17.5l-2.34,4.66c-.79,1.6-2.72,2.24-4.32,1.44s-2.24-2.72-1.44-4.32l13.96-27.92c.55-1.09,1.66-1.78,2.89-1.78h0c1.22.01,2.34.7,2.89,1.8l13.96,27.92c.79,1.6.15,3.53-1.44,4.32Z"/>
    <polygon class="cls-1" points="44.33 51.8 55.38 51.8 49.86 40.76 44.33 51.8"/>
  </g>
</svg>