<?xml version="1.0" encoding="UTF-8"?>
<svg id="light" xmlns="http://www.w3.org/2000/svg" viewBox="0 0 100 100">
  <defs>
    <style>
      .cls-1, .cls-2 {
        fill: #68004b;
      }

      .cls-2 {
        opacity: .6;
      }

      .cls-3 {
        fill: #fafafa;
      }
    </style>
  </defs>
  <rect class="cls-3" x="5" y="5" width="90" height="90" rx="16" ry="16"/>
  <g>
    <path class="cls-1" d="M69.13,46.78l2.87-2.87-2.87-2.87-10.16-10.16h-.01l-2.87-2.88-2.87,2.87-.37.37c-2.79-1-5.81-1.55-8.95-1.55-14.59,0-26.41,11.82-26.41,26.41s11.82,26.41,26.41,26.41,26.41-11.82,26.41-26.41c0-3.14-.55-6.16-1.55-8.95l.37-.37ZM43.91,41.87h-1.02c-7.29,0-13.2,5.92-13.2,13.2v1.02h-4.06v-1.02c0-9.53,7.73-17.27,17.27-17.27h1.02v4.06Z"/>
    <polygon class="cls-2" points="75.73 24.27 82.5 27.66 75.73 31.05 72.34 37.81 68.95 31.05 62.19 27.66 68.95 24.27 72.34 17.5 75.73 24.27"/>
  </g>
</svg>