<?xml version="1.0" encoding="UTF-8"?>
<svg id="light" xmlns="http://www.w3.org/2000/svg" viewBox="0 0 100 100">
  <defs>
    <style>
      .cls-1 {
        opacity: .3;
      }

      .cls-1, .cls-2, .cls-3 {
        fill: #68004b;
      }

      .cls-3 {
        opacity: .6;
      }

      .cls-4 {
        fill: #fafafa;
      }
    </style>
  </defs>
  <rect class="cls-4" x="5" y="5" width="90" height="90" rx="16" ry="16"/>
  <path class="cls-2" d="M80.5,19.5v61H19.5V19.5h61M82.5,17.5H17.5v65h65V17.5h0Z"/>
  <g>
    <path class="cls-1" d="M75.52,68.42c-4.07,7.05-13.08,9.47-20.13,5.4-2.33-1.34-4.15-3.22-5.4-5.4,2.55-4.41,2.73-10.01,0-14.73,2.73-4.72,7.67-7.36,12.76-7.37,2.5,0,5.04.63,7.37,1.97,7.05,4.07,9.47,13.08,5.4,20.13Z"/>
    <path class="cls-2" d="M64.74,38.95c0,2.69-.71,5.2-1.98,7.37-5.09,0-10.03,2.65-12.76,7.37-5.45,0-10.21-2.96-12.76-7.37-1.26-2.17-1.98-4.68-1.98-7.37,0-8.14,6.6-14.74,14.74-14.74s14.74,6.6,14.74,14.74Z"/>
    <path class="cls-3" d="M50,68.42c-1.25,2.18-3.07,4.05-5.4,5.4-7.05,4.07-16.06,1.66-20.13-5.4-4.07-7.05-1.65-16.06,5.4-20.13,2.33-1.34,4.87-1.98,7.37-1.97,2.55,4.41,7.31,7.37,12.76,7.37,2.73,4.72,2.55,10.32,0,14.73Z"/>
  </g>
</svg>