<?xml version="1.0" encoding="UTF-8"?>
<svg id="light" xmlns="http://www.w3.org/2000/svg" viewBox="0 0 100 100">
  <defs>
    <style>
      .cls-1 {
        fill: #68004b;
      }

      .cls-2 {
        fill: #fafafa;
      }
    </style>
  </defs>
  <rect class="cls-2" x="5" y="5" width="90" height="90" rx="16" ry="16"/>
  <path class="cls-1" d="M44.92,22.58v18.82c1.08-.96,2.5-1.55,4.06-1.55,3.21,0,5.84,2.48,6.08,5.62,1.08-.96,2.5-1.56,4.08-1.56,3.21,0,5.84,2.48,6.08,5.63,1.08-.96,2.5-1.56,4.08-1.56,3.36,0,6.09,2.73,6.09,6.1v12.18c0,8.98-7.27,16.25-16.25,16.25h-15c-4.75,0-9.34-1.66-13-4.71l-.69-.57c-3.71-3.08-5.85-7.66-5.85-12.48v-4.82c0-2.41,1.07-4.7,2.92-6.25l2.44-2.03c.24-.19.48-.39.74-.57v7.07c0,1.12.91,2.03,2.03,2.03s2.03-.91,2.03-2.03V22.58c0-2.81,2.27-5.08,5.08-5.08s5.08,2.27,5.08,5.08Z"/>
</svg>